<svg xmlns="http://www.w3.org/2000/svg" width="450.1" height="450.3"><g transform="translate(0 .1)"><ellipse cx="225.1" cy="129.9" rx="225.1" ry="129.9" transform="translate(0 190.3)" fill="#f5f5f5"/><ellipse cx="41.4" cy="23.9" rx="41.4" ry="23.9" transform="translate(222.2 343.9)" fill="#e0e0e0"/><ellipse cx="41.4" cy="23.9" rx="41.4" ry="23.9" transform="translate(329.8 329.8)" fill="#e0e0e0"/><ellipse cx="41.4" cy="23.9" rx="41.4" ry="23.9" transform="translate(103.5 379.7)" fill="#e0e0e0"/><path d="M77 325s-1-25.2-11.6-39.3-23.6-16-30-12c-4.7 2.8-4 11.4 4 17s23.9 19.7 26.3 29z" fill="#37474f"/><path d="M70 321.4a.7.7 0 01-.5-.7c1-23-19-37.2-24.5-39.8a.7.7 0 01-.3-.9.7.7 0 01.8-.3c5.7 2.7 26.4 17.4 25.3 41a.7.7 0 01-.7.6z" fill="#fff"/><path d="M72 317a6 6 0 01-3.8-1.4c-1.3-1.4-1.2-3.5-1.7-5.2-1-2.9-3.8-4.8-6.7-5.4a20.3 20.3 0 00-9 .6c-5.9 1.4-11.5-2.2-17.4-1.8a11.8 11.8 0 00-6 1.9 6.4 6.4 0 00-2.9 5.4 6.8 6.8 0 002.4 4.4 20.5 20.5 0 004.5 2.9l5.2 2.6a9.2 9.2 0 012.5 1.6 7 7 0 011.8 5.5c-.4 2-2 3.5-2.5 5.5-.7 2.6.9 5.3 3.2 6.7a13.1 13.1 0 007.6 1.5c2.7-.1 5.3-.7 8-.7a9.3 9.3 0 015.1 1.1 9.6 9.6 0 013.7 5.3 14 14 0 001.6 3.8 7.5 7.5 0 003.5 2.5 12 12 0 008.2 0c2.2-.8 3.3-3.3 4-5.5a19 19 0 001.2-7 44.7 44.7 0 00-4-17.7c-1.3-2.6-3-5.1-5.7-6a17.2 17.2 0 00-2.7-.5z" fill="#455a64"/><path d="M77.7 344.6a.6.6 0 01-.5-.4c-6.2-17.7-35.4-33.1-46-34.9a.6.6 0 11.2-1.1c10.9 1.8 40.6 17.5 47 35.6a.6.6 0 01-.4.7.6.6 0 01-.3 0z" fill="#fff"/><path d="M51.5 334.9a.6.6 0 01-.3-1 29.4 29.4 0 0116.2-5.3.6.6 0 010 1.2 28.8 28.8 0 00-15.6 5 .6.6 0 01-.3 0z" fill="#fff"/><path d="M78 358.2a4.8 4.8 0 01-2-3.8V146a5 5 0 012.2-3.9L323.4.6a4.2 4.2 0 016.4 3.7v208.4a5 5 0 01-2.2 3.9L82.4 358.2a4.8 4.8 0 01-4.3 0z" fill="#455a64"/><path d="M82 358.3h-.1a.8.8 0 01-.2.1h-.2a1.4 1.4 0 01-.3.1.7.7 0 01-.2 0l-.3.1a4.4 4.4 0 01-2.6-.5 4.8 4.8 0 01-2.2-3.8V172.7l4.3 2.5v181.6c0 1 .5 1.7 1.2 1.7a1 1 0 00.3 0 1 1 0 00.3-.2z" fill="#27debf"/><path d="M82 358.3h-.1a.8.8 0 01-.2.1h-.2a1.4 1.4 0 01-.3.1.7.7 0 01-.2 0l-.3.1a4.4 4.4 0 01-2.6-.5 4.8 4.8 0 01-2.2-3.8V172.7l4.3 2.5v181.6c0 1 .5 1.7 1.2 1.7a1 1 0 00.3 0 1 1 0 00.3-.2z" fill="#e0e0e0" opacity=".8"/><path d="M80.2 175.2l-4.3-2.5v40.4l4.3 2.5z" fill="#27debf"/><path d="M80.2 175.2l-4.3-2.5v40.4l4.3 2.5z" opacity=".1"/><path d="M80.8 146.2a4.7 4.7 0 00-.6 2.3v26.7l-4.3-2.5V146a2.4 2.4 0 010-.3 5 5 0 01.1-.5 5.8 5.8 0 01.6-1.4z" fill="#263238"/><path d="M329.8 4.3v12L150.1 120.2c-1.2.7-2.2.1-2.2-1.3v-4.6c0-1.4-1-2-2.3-1.3L91 144.6a5 5 0 00-2.3 3.9v4.5a5 5 0 01-2.2 4l-6.2 3.6v-12a5 5 0 012.2-4L327.6 3c1.2-.7 2.2-.1 2.2 1.3z" fill="#37474f"/><path d="M329.9 212.7a5 5 0 01-2.3 3.9L82.4 358.2c-1.2.7-2.2 0-2.2-1.4V160.5l6.2-3.5c1.2-.8 3.2-11.7 4.5-12.4l53.8-31c1.3-.8 4.2 7.3 5.4 6.6L329.8 16.4v196.3z" fill="#27debf"/><path d="M329.9 212.7a5 5 0 01-2.3 3.9L82.4 358.2c-1.2.7-2.2 0-2.2-1.4V160.5l6.2-3.5c1.2-.8 3.2-11.7 4.5-12.4l53.8-31c1.3-.8 4.2 7.3 5.4 6.6L329.8 16.4v196.3z" fill="#fff" opacity=".9"/><path d="M328.8 18v194.7a4 4 0 01-1.7 3L81.9 357.3a1 1 0 01-.5.2c-.2 0-.2-.5-.2-.7V161.1l5.7-3.3c.9-.5 1.4-2.3 2.7-6.8a33.6 33.6 0 011.9-5.6l53.3-30.8a22.4 22.4 0 011.8 2.7c1.4 2.5 2.2 3.9 3.4 3.9a1.4 1.4 0 00.6-.2L328.8 18m1-1.6L150.1 120a.3.3 0 01-.1 0c-1.3 0-3.9-6.7-5.1-6.7a.3.3 0 00-.2 0l-53.8 31.1c-1.3.8-3.3 11.7-4.5 12.4l-6.2 3.6v196.3c0 1 .5 1.6 1.2 1.6a2.1 2.1 0 001-.2l245.2-141.6a5 5 0 002.2-3.9V16.4z" fill="#27debf" opacity=".4"/><path d="M80.2 175.2v40.4L329.8 71.4V31z" fill="#07418c"/><path d="M329.8 16.4V31L80.2 175.2v-14.6l4.6-2.7c1.2-.8 1.7-1.9 2.3-4l1.5-5.4c.5-1.9 1-3.2 2.3-4l53.8-31c1.3-.7 2.2-.8 3.2.8l2 3.5c.6 1.2 1 2 2.2 1.2z" fill="#f0f0f0"/><path d="M319.3 11.9c1.5-1 2.8-.2 2.8 1.6a6.3 6.3 0 01-2.8 5c-1.6.8-2.9 0-2.9-1.7a6.3 6.3 0 012.9-5zM309 17.8c1.6-1 2.9-.2 2.9 1.6a6.3 6.3 0 01-2.8 5c-1.6.8-2.9 0-2.9-1.7a6.3 6.3 0 012.9-5zM298.8 23.6c1.6-.9 2.9-.1 2.9 1.7a6.3 6.3 0 01-2.9 4.9c-1.5 1-2.8.2-2.8-1.6a6.3 6.3 0 012.8-5z" fill="#48a1d9"/><path d="M90.5 161.6l-3.5 2 1.3-2.6a.7.7 0 000-.7c0-.1-.3 0-.4.2l-1.9 3.7a.8.8 0 000 .2 1.4 1.4 0 000 .1.8.8 0 000 .2l2 1.6a.2.2 0 00.1 0 .7.7 0 00.2-.3.6.6 0 000-.6l-1.3-1 3.5-2a.8.8 0 00.3-.6c0-.3-.1-.3-.3-.3zM93.5 159.9l3.5-2-1.3-1c-.2-.1-.2-.4 0-.6s.2-.4.4-.3l1.9 1.5a.4.4 0 010 .2.6.6 0 010 .2.8.8 0 010 .2l-2 3.6a.5.5 0 01-.1.2.1.1 0 01-.2 0 .6.6 0 010-.6l1.3-2.6-3.5 2c-.2.1-.3 0-.3-.2a.7.7 0 01.3-.6zM105 149.7c0-.3-.1-.2-.2 0l-.5 1.2c-.9-.1-1.9.7-2.5 2.1-1 1.9-1 4 0 5a1.3 1.3 0 001.6 0 4.4 4.4 0 001.5-1.9.6.6 0 000-.6c0-.1-.3 0-.4.2-.6 1.4-1.7 2-2.3 1.4s-.7-2.3 0-3.7c.4-1 1.1-1.6 1.7-1.6l-.4 1c0 .1 0 .4.2.3l1.4-1a.5.5 0 00.2-.4zM143.2 120.2l1.2-2.8a.8.8 0 000-.8c-.1-.2-.4 0-.5.3l-1.3 2.7-1.3-1.2c-.2-.2-.4 0-.6.3a.8.8 0 000 .9l1.3 1.2-1.3 2.8a.8.8 0 000 .8.2.2 0 00.3 0 .7.7 0 00.3-.3l1.3-2.8 1.3 1.3a.2.2 0 00.3 0 .7.7 0 00.2-.3.8.8 0 000-.9z" fill="#455a64" opacity=".5"/><path d="M109.8 153v-4.5a5 5 0 012.3-4l202.8-117c1.3-.7 2.3 0 2.3 1.4v4.5a5 5 0 01-2.3 3.9l-202.8 117c-1.3.7-2.3.2-2.3-1.3z" fill="#fff"/><path d="M311.8 37.5a.4.4 0 01-.1 0 .5.5 0 01-.3-.5l.2-2-1-.6a.5.5 0 01-.1-.4 1 1 0 01.3-.7l1.3-1a.3.3 0 00.1-.2l.6-2a.8.8 0 01.6-.5.5.5 0 01.4.3l.6 1.1 1.2-.5a.4.4 0 01.5.2.7.7 0 010 .8l-1 1.8a.4.4 0 000 .1l.2 1.7a.9.9 0 01-.3.7.5.5 0 01-.4.2l-1.2-.2-1.1 1.6a.6.6 0 01-.5.1zm-.7-3.6l.9.6a.6.6 0 01.2.6l-.1 1.5 1-1.2a.6.6 0 01.5-.3l1.2.2a.4.4 0 000-.3l-.3-1.6a1 1 0 01.1-.5l1-1.8-1 .4a.4.4 0 01-.6-.2l-.5-1-.6 2a.9.9 0 01-.3.4l-1.3 1a.4.4 0 00-.2.2z" fill="#e0e0e0"/><g opacity=".5" fill="#455a64"><path d="M319.8 27a.8.8 0 01-.4-1.5l6.4-3.7a.8.8 0 11.7 1.4l-6.3 3.6a.8.8 0 01-.4.1zM319.8 30.6a.8.8 0 01-.7-.4.8.8 0 01.3-1l6.4-3.7a.8.8 0 01.7 1.3l-6.3 3.7a.8.8 0 01-.4.1zM319.8 34.3a.8.8 0 01-.7-.4.8.8 0 01.3-1l6.4-3.8a.8.8 0 01.7 1.4l-6.3 3.7a.8.8 0 01-.4 0z"/></g><path d="M80.2 160.5v14.7l-4.3-2.5v-14.6z" fill="#e0e0e0"/><text transform="rotate(-30 311.9 -433.6)" fill="#fff" font-size="16" font-family="SegoeUI-Semibold, Segoe UI" font-weight="600"><tspan x="0" y="0">About us</tspan></text><path d="M91 225l69-39.8v112.6l-69.2 39.7zM175.3 178.5l83.3-48.1c1.6-1 3-.2 3 1.6a6.6 6.6 0 01-3 5.2l-83.3 48.6c-1.7 1-3 .2-3-1.7v-.4a6.7 6.7 0 013-5.2zM174.4 193l137.8-79.5c1.2-.7 2.2-.2 2.2 1a4.6 4.6 0 01-2.2 3.7l-137.8 79.5c-1.2.7-2.2.2-2.2-1a4.7 4.7 0 012.2-3.6zM174.4 202.5l137.8-79.6c1.2-.7 2.2-.2 2.2 1a4.6 4.6 0 01-2.2 3.7l-137.8 79.6c-1.2.7-2.2.2-2.2-1.1a4.7 4.7 0 012.2-3.6zM174.4 211.9l137.8-79.6c1.2-.7 2.2-.2 2.2 1.1a4.6 4.6 0 01-2.2 3.6l-137.8 79.6c-1.2.6-2.2.2-2.2-1.1a4.7 4.7 0 012.2-3.6zM174.4 221.3l137.8-79.6c1.2-.7 2.2-.2 2.2 1.1a4.6 4.6 0 01-2.2 3.6L174.4 226c-1.2.7-2.2.2-2.2-1.1a4.7 4.7 0 012.2-3.6zM174.4 230.7l96.2-56c1.2-.7 2.1-.2 2.1 1.1a4.7 4.7 0 01-2.1 3.6l-96.2 56c-1.2.7-2.2.2-2.2-1a4.7 4.7 0 012.2-3.7zM174.4 249.6L312.2 170c1.2-.7 2.2-.2 2.2 1a4.6 4.6 0 01-2.2 3.7l-137.8 79.5c-1.2.7-2.2.2-2.2-1a4.7 4.7 0 012.2-3.7zM174.4 259l137.8-79.6c1.2-.7 2.2-.2 2.2 1a4.6 4.6 0 01-2.2 3.7l-137.8 79.6c-1.2.7-2.2.2-2.2-1.1a4.7 4.7 0 012.2-3.6zM174.4 268.4l137.8-79.6c1.2-.7 2.2-.2 2.2 1.1a4.6 4.6 0 01-2.2 3.6L174.4 273c-1.2.7-2.2.2-2.2-1.1a4.7 4.7 0 012.2-3.6zM174.4 277.8l50.7-29.6c1.2-.6 2.1-.2 2.1 1.1a4.7 4.7 0 01-2.1 3.6l-50.7 29.6c-1.2.7-2.2.2-2.2-1.1a4.7 4.7 0 012.2-3.6z" fill="#27debf" opacity=".1"/><path d="M358.6 223.8c7.3-23.8 14.5-39.5 7.2-44.4-6.8 1.3-9.8 4.7-11.2 13.6-1.6 9.3-4.7 22.4-6.5 29.9a89 89 0 01-6.8 18.2 3.9 3.9 0 01-2 1.7c-2.2.9-3.3 2-5.2 3.4-1.4 1-2.5 1.1-2.4 1.5a1.9 1.9 0 002.3 1.4 13.7 13.7 0 003.1-1 15.7 15.7 0 01-4 5.8c-3.5 3-3 6 2.8 6.3 2 0 6.7-1.8 11.1-9.2a74.5 74.5 0 004-8.6c3-7.7 6.1-13.8 7.6-18.6z" fill="#ffa8a7"/><path d="M367 179.2s-5.6-.3-9 3.5-7.4 26.2-7.4 26.2 3.7 5.2 13.6 3z" fill="#27debf"/><path d="M367 179.2s-5.6-.3-9 3.5-7.4 26.2-7.4 26.2 3.7 5.2 13.6 3z" fill="#07418c" opacity=".3"/><path fill="#ffa8a7" d="M385.9 339h7.6v13.4h-7.6zM367.2 338.2l-7.5.3-.4-14.3 8-.3z"/><path d="M394.5 222c0 7.6-1 68.2-1 68.2.1 2.2 2 6.2 1.6 14.5-.5 11.3-1.3 41-1.3 41a9.6 9.6 0 01-8.4.2s-7.2-41.2-8.5-52.4a1299 1299 0 01-3.2-42.7l-4.1 38.3a47 47 0 01.9 12.5l-2.8 32.2a10 10 0 01-8.7.7s-4.4-40.7-4.4-45.4c-.1-5.4 2.5-67.1 2.5-67.1z" fill="#07418c"/><path d="M385.9 348.6v-1.2c-.7.4-2.4 7-5.4 9.9-2.4 2.3-5.7 4.9-6.5 7.4s4.5 4.1 6.8 3.7c2.6-.5 7-2.4 8.2-4.2s1.6-4.3 2.6-5.6 3-2.7 3.5-4.2a9 9 0 00-.4-4.2c-.5-1.5-.8-3-1.2-2.8v.9a5.8 5.8 0 01-3.8 1.3c-1.1 0-3.8-.2-3.8-1zM359.6 336c-.4 0-.7.6-1.6 1.6a16.6 16.6 0 01-4.5 3.4c-2.8 1.4-8.3 3.7-10.8 4.9-1.6.7-1.5 2.7.1 3.8s5.5 2 10.2.8c2.5-.6 5.9-3 8-2.9s6 .1 7.5-1 1-3.5.5-5.5c-.5-2.2-1-5.7-1.8-5.6v.8c-.9 1.4-5.6 2-7.6 1zM373.6 250.8a27.8 27.8 0 01-10.5-6.3s2 4 8 7.7l-1.2 34.1z" fill="#263238"/><path d="M390.6 181s6 .5 5.5 11.8l-1.3 18v27c-5.6 6.3-30.3 5.8-38.7-.5l1.5-44.2c.4-8.8 2.4-13.2 11-14.1l10.6.4z" fill="#48a1d9"/><path d="M373.8 186.9l-1.4 9.5h-3.2l3.6.5z" opacity=".3"/><path d="M381.7 155.6a11.5 11.5 0 01-11.3 11.7c-6.2 0-11-5.3-11.3-11.7-.5-11.5 5-11.8 11.3-11.8a11.5 11.5 0 0111.3 11.8zM388 161.4s-1.7 8.4-2.4 9.8a3.7 3.7 0 01-2 1.8v-6z" fill="#263238"/><path d="M386 149.2s1.2-.3 2.5 1.8c1.1 1.8 1.4 5.7-.4 10.4l-3.3.4z" fill="#263238"/><path d="M383.9 161.8c.6.4 1.5-1 2.4-1.8s3.4-2.1 4.7.8-1.2 6.8-3.2 7.5c-3.6 1.1-4.1-1.3-4.1-1.3l-.3 13.4c-4.7 7.4-15.5 7.1-11.6-.3v-4a21.8 21.8 0 01-4.8.2c-2.6-.5-4.3-2.6-5-5.6a41.4 41.4 0 01-.8-17.9c1.2-10.3 12.7-10.3 18.9-6.3s3.8 15.3 3.8 15.3z" fill="#ffa8a7"/><path d="M383.4 177.4a17.1 17.1 0 01-4.6 5.8 13 13 0 01-5.6 2.4 12.4 12.4 0 014 4.5c1.2 2.6 9.5-4.6 9.4-9.7 0 0-1.3-5-3-5.4z" fill="#263238"/><path d="M373.2 185.6s-2.6-1.2-1.4-5.5v-4h-1.1a10 10 0 00-2.7 4.8c-.3 1.1-1 7 .2 8.2s2.7-3.1 5-3.5zM379.5 150.6a1.6 1.6 0 01.9 0c1 .4 1.1 3.5 1.3 4.3.6 3 1 8 2.2 8 .3 0 1.5-2.2 2.4-3 1-1-.4-10.7-.4-10.7a4.7 4.7 0 00-1-4.9c-2-2.3-5.3-2.8-8.2-3-3.4-.2-6.9 0-10.3-.7a27.3 27.3 0 00-3.2-.7.4.4 0 00-.3 0c-.1.1 0 .3 0 .4a10.7 10.7 0 001 3 26 26 0 01-6-1.2.6.6 0 00-.3 0c-.2 0-.2.3-.2.6.1 2.4 1.3 6 3.2 7.5a11.4 11.4 0 005.9 1.8c5.3.2 8.6-.9 13-1.4z" fill="#263238"/><path d="M386 149.8l3.9-2.3a2.1 2.1 0 00-3-1 2.5 2.5 0 00-1 3.2z" fill="#263238"/><path d="M371.8 176s5.8-1.2 7.9-2.3a7 7 0 002.8-3 9.7 9.7 0 01-1.6 3.5c-1.5 2-9.1 3.4-9.1 3.4z" fill="#f28f8f"/><path d="M373.2 160.2a1.2 1.2 0 101.2-1.2 1.2 1.2 0 00-1.2 1.2zM375 155.2l2.6 1.4a1.6 1.6 0 00-.5-2 1.4 1.4 0 00-2 .6z" fill="#263238"/><path d="M372.3 168.7l-2.7 1a1.4 1.4 0 001.9.9 1.6 1.6 0 00.8-2z" fill="#f28f8f"/><path d="M362.4 156.2l2.3-1.8a1.4 1.4 0 00-2-.3 1.6 1.6 0 00-.3 2.1zM363.4 159.9a1.2 1.2 0 001.2 1.2 1.3 1.3 0 000-2.5 1.2 1.2 0 00-1.2 1.3z" fill="#263238"/><path d="M369.7 158.9l-.1 7.4-4.2-1z" fill="#f28f8f"/><path d="M402.1 166.4c1.7-2.3 5.1 2.7 6.7 6.1s1.6 5.4.3 6.7-3.7.6-6.2-2.7-1.8-8.5-.8-10.1z" fill="#27debf"/><path d="M402.1 166.4c1.7-2.3 5.1 2.7 6.7 6.1s1.6 5.4.3 6.7-3.7.6-6.2-2.7-1.8-8.5-.8-10.1z" opacity=".5"/><path d="M414 167c-6 14-14.3 21.9-18 31-5-.4-8.8-12.3-5.1-17.4 0 0 14.4-15.5 15.7-21.6a105 105 0 002.5-19 3.2 3.2 0 00-.9-2c-1.5-1.7-1.5-3-2.4-4.8-.8-1.4-1.6-1.9-1.4-2.2a1.8 1.8 0 012.5-.2 9.6 9.6 0 011.8 1.8 10.3 10.3 0 00-.8-5.3c-1.7-3.7-1.3-5.7 3.8-4.3 3.2.8 5.2 3.5 5.7 11.1a75.9 75.9 0 010 9.6c-.5 6-.9 12.1-1.6 17a25.7 25.7 0 01-1.7 6.3z" fill="#ffa8a7"/><path d="M389.4 180.8l12.7-14.5s-1.6 3.5 1.7 8.7 5.3 4.2 5.3 4.2-7.5 11-9.5 14.6-4 6.8-4 6.8a2.4 2.4 0 01-2.4 1.3c-1.9 0-6.8-8.3-3.8-21z" fill="#27debf"/><path d="M389.4 180.8l12.7-14.5s-1.6 3.5 1.7 8.7 5.3 4.2 5.3 4.2-7.5 11-9.5 14.6-4 6.8-4 6.8a2.4 2.4 0 01-2.4 1.3c-1.9 0-6.8-8.3-3.8-21z" fill="#07418c" opacity=".3"/><path d="M286.5 213.4l6 8-6.5 7.3-8.2-9.7z" fill="#f28f8f"/><path d="M267 195.3c5.1.3 7.6 1 10.4 4.3s16.3 23 16.3 23-2.4 6.7-7.7 6.1l-9.6-9.9z" fill="#455a64"/><path d="M241.4 360.4a38.7 38.7 0 00-.6 6.3c-.1 3.8-.8 5.2-.9 8.3-.1 3.6.5 5 2 7s5.3 3.7 6.9.3 1.4-5.6.8-9-.5-5.7-.8-8.5l-.7-4.2z" fill="#263238"/><path d="M252.2 330.6l-12.6-.3c.2 8.4 1.6 22.3 1.8 30.2 0 1.5 0 11.5.5 14.5.8 4.6 6.3 4 6.5 1.3s-.3-14.5-.3-15.7c0-5 2.3-18.2 3.6-27.2l.5-2.8z" fill="#ffbda7"/><path d="M270.6 354s-.6 0-.7.5l-.4 2.7a15 15 0 00-.5 5c.2 1.1 2.9 2.9 4.7 3.2s4.4 2 5.8 3.4a14 14 0 008.2 3.2c3 0 5.1-1 6.1-2.6s-.9-1.9-4.4-4.1l-2.7-1.8c-5.5-3.6-7.5-5.5-9-9.1z" fill="#263238"/><path d="M277.7 352c-.1-2.6 1.2-21.7 1.2-21.7l-10.8 1.2a98.7 98.7 0 012.5 22.6 2.2 2.2 0 000 .7c0 3 3.3 4.5 6 6.5a23.4 23.4 0 006.7 4.2c2 .7 5.7 1 6.2-.3-3.2-2.4-7.5-5.5-10-8.3-1.3-1.3-1.7-2.3-1.8-5z" fill="#ffbda7"/><path d="M242.5 244c-5.8 12.8.3 58 .3 58-.2 2.1-2.6 6.2-3.5 15.4-1 10.9 2 40 2 40a7 7 0 007 0s7.5-42.6 9-53.4l3.4-30.1 6.5 30a55.8 55.8 0 00-2 9.4c-.7 6.3 5.5 38.1 5.5 38.1a8.8 8.8 0 007-.1l3.3-48.8c1-12.8-2.4-52.9-4.8-60.5z" fill="#27debf"/><path d="M242.5 244c-5.8 12.8.3 58 .3 58-.2 2.1-2.6 6.2-3.5 15.4-1 10.9 2 40 2 40a7 7 0 007 0s7.5-42.6 9-53.4l3.4-30.1 6.5 30a55.8 55.8 0 00-2 9.4c-.7 6.3 5.5 38.1 5.5 38.1a8.8 8.8 0 007-.1l3.3-48.8c1-12.8-2.4-52.9-4.8-60.5z" fill="#07418c" opacity=".5"/><path d="M260.7 273.9l1.9-12s8-1.6 11.8-5a20.9 20.9 0 01-9.6 6.3l-2.2 9.2 3.8 27.8z" opacity=".2"/><path d="M245.6 204l8 2v-16.9c-4.5-1.1-8 1.4-8 5.7z" fill="#27debf"/><path d="M245.6 204l8 2v-16.9c-4.5-1.1-8 1.4-8 5.7z" opacity=".6"/><path d="M261.4 191.6l-2.9-.1a16.2 16.2 0 01-15.5-16.9c0-10 7.7-18 17.3-18 9.5-.1 17.3 8 17.3 17.8v1a16.2 16.2 0 01-16.2 16.2z" fill="#27debf"/><path d="M261.4 191.6l-2.9-.1a16.2 16.2 0 01-15.5-16.9c0-10 7.7-18 17.3-18 9.5-.1 17.3 8 17.3 17.8v1a16.2 16.2 0 01-16.2 16.2z" opacity=".6"/><path d="M248 160.7a2.2 2.2 0 00-2.8-1.6l.8 3a2 2 0 00-.6-.5 2.1 2.1 0 00-3 1l4 2.3a2.4 2.4 0 00.2-1.3 2.5 2.5 0 001.4-3z" fill="#27debf"/><path d="M248 160.7a2.2 2.2 0 00-2.8-1.6l.8 3a2 2 0 00-.6-.5 2.1 2.1 0 00-3 1l4 2.3a2.4 2.4 0 00.2-1.3 2.5 2.5 0 001.4-3z" opacity=".6"/><path d="M252.7 196a73.6 73.6 0 00-8 1.6c3.1 7.6-1.7 19.3-1.7 19.3l4.6 14.1c-3.2 6.5-5.8 9.7-7 15 3 5.7 23.6 11.2 37 .8 0 0-.4-14.5-2.1-22.9 4.4-8.5 3.7-11 2.8-14-2.1-7-6.3-9.7-11.4-14.6l-3-.3z" fill="#37474f"/><path d="M248 236.7c2.6-2.6 7.8-3.3 7.8-3.3l-4.8-2.8-5.4-13a30 30 0 003.2-14.5l-3-.7c.3 7-2.8 14.5-2.8 14.5l4.5 14.1c-3.1 6.5-5.7 9.7-6.8 15 2 4 12.3 7.7 22.9 6.4-14.2-1-18-13.3-15.5-15.7z" fill="#263238"/><path d="M262.4 252.5h.6a3.5 3.5 0 00-.6 0z" fill="#e6e6e6"/><path d="M271.2 165.4c1.7 1.6 3.9 5 3.7 15-.2 8.5-2.8 10.6-4.1 11.2s-3.9.3-6.4-.2v3.6s3.3 3.6 3 6-4.6 3.3-7.8 1a30.2 30.2 0 01-6-6v-10.8s-1.5 1.5-4-.7c-2-1.9-2.8-5-1.2-6.7a3.5 3.5 0 015.7 1.1 32.5 32.5 0 0011-3.1 10.8 10.8 0 006-10.4z" fill="#ffbda7"/><path d="M264.4 178.5a1 1 0 11-1-1 1 1 0 011 1z" fill="#263238"/><path d="M264.8 185.6l2.7.8a1.4 1.4 0 01-1.8 1 1.5 1.5 0 01-1-1.8z" fill="#f79776"/><path d="M274 174.6l-2.4-.8a1.2 1.2 0 011.6-.8 1.4 1.4 0 01.9 1.6z" fill="#263238"/><path d="M254.1 178v3.6a1.7 1.7 0 001.8-1.8 1.9 1.9 0 00-1.8-1.8z" fill="#27debf"/><path d="M254.1 178v3.6a1.7 1.7 0 001.8-1.8 1.9 1.9 0 00-1.8-1.8z" opacity=".6"/><path d="M273.2 178.1a1 1 0 01-1 1.2 1.1 1.1 0 111-1.2z" fill="#263238"/><path d="M267.5 176.7v7l3.2-1.1zM264.4 191.5c-2.6-.4-8-2-8.9-4.2a5.8 5.8 0 002 2.9c1.6 1.4 7 3 7 3z" fill="#f79776"/><path d="M232.4 231.6s6.4 9 7.5 10.3 1.9.8 3 .2a33.8 33.8 0 014.5-1.4c2-.5 2.4 1.3.5 2.6-1.4 1-3 1.3-2.4 2a14.9 14.9 0 004.7 3c4.8 1.8 4.4 2.8 3.5 4.3-.7 1.3-3 4.2-11.4.8a36.3 36.3 0 01-10.8-8c-3.3-3.7-8.5-10.3-8.5-10.3z" fill="#ffbda7"/><path d="M246 197.2c-2.4.2-6.7.7-12.2 9.8-4.8 8-12.3 18.8-13.7 22.7-.5 1.6 1.7 4.8 4.5 8.2 3.8-.2 7.3-2.9 9.1-5a17.8 17.8 0 00-1.8-3.2l11.3-12.8s4.3-4 5.1-9c1-5.5.7-9.9-2.4-10.7z" fill="#455a64"/><path d="M308.9 214.5l-27.7 7.3-7.7 31.3 26.4-7.6z" fill="#27debf"/><path d="M308.9 214.5l-27.7 7.3-7.7 31.3 26.4-7.6z" fill="#054aa6" opacity=".3"/><path d="M296.4 236.7a5.5 5.5 0 005.1 3l.2-.6zM300.5 219.5l.3-1.1c0-.6-1.5-.6-3.7 0l-4 1c-2.2.6-4 1.5-4.1 2l-.3 1.1z" opacity=".1"/><path d="M302.7 215.5c0-.4-.6-.5-1.5-.2l-1.6.4s.4-2.3-3.1-1.5a5.6 5.6 0 00-4.4 3.4l-1.7.5c-1 .3-1.9.8-2 1.2l-.2.6 14.3-3.7z" fill="#37474f"/><path d="M300.7 216.6c-1.3.3-1.9.5-2 1.4l-.3 1.8-6.3 1.7.4-1.8c0-.5-.1-.9-1.2-.6v-.4l9.9-2.5z" fill="#37474f"/><path d="M301 219.6l.1-1.1c.2-.6-1.5-.6-3.6 0l-4 1c-2.2.6-4 1.5-4.2 2l-.2 1.1z" fill="#37474f"/><path d="M306 224.6l-1.3 4.3c-.3.8-3.4 2.4-5.4 3s-4.3 1.2-3.3 4c.9 2.7 4.2 3.3 6 3.2s4-1.7 5-4.3c1.1-3.4.5-7 1-9s-1-2.4-2-1.3z" fill="#ffbda7"/><path d="M201 225.4c-3.8-3.8-5.2-2.4-5.6 1.8a18.7 18.7 0 01-1.3 5.2 9.5 9.5 0 00-.7-2.6 1.9 1.9 0 00-2.3-1c-.4 0 .1 1 0 2.6 0 2-.7 3.2-.2 5.4a3.6 3.6 0 01-.4 2.5c-2 3.8-8.6 10.8-13.2 15.9l-17.6-15.9c-6-5.4-8-7.8-13.7-7.4a15.7 15.7 0 015 3c2.6 2.2 2 15.2 2 15.2a2498.7 2498.7 0 0022.9 16.2 5 5 0 006-1.1c4.2-4.9 10.4-14.5 14-19.4a60.2 60.2 0 004.3-7.6c3.6-7 3.2-10.4.8-12.8z" fill="#914f4e"/><path d="M146.6 231.6a10 10 0 018 2c3.4 2.6 18 16 18 16s.4 7-7 11.3l-17.9-12.6z" fill="#27debf"/><path d="M146.6 231.6a10 10 0 018 2c3.4 2.6 18 16 18 16s.4 7-7 11.3l-17.9-12.6z" fill="#07418c" opacity=".3"/><path fill="#914f4e" d="M121.8 391.5h7.6V405h-7.6zM148 390.8l7.6.3.4-14.3-8-.3z"/><path d="M120.7 274.6c0 7.5 1.1 68.2 1.1 68.2-.1 2.1-2 6.1-1.7 14.4.6 11.4 1.4 41 1.4 41a9.6 9.6 0 008.4.2s7.2-41.1 8.5-52.3c1.2-9.8 3.2-42.7 3.2-42.7l4.1 38.2a47 47 0 00-1 12.6l2.9 32.1a10 10 0 008.7.7s4.3-40.6 4.4-45.4c.1-5.4-2.5-67-2.5-67z" fill="#07418c"/><path d="M129.4 401.1V400c.7.3 2.4 7 5.4 9.9 2.4 2.2 5.6 4.9 6.4 7.4s-4.5 4-6.7 3.7c-2.6-.5-7.1-2.4-8.2-4.2s-1.7-4.4-2.6-5.6-3-2.8-3.5-4.3a10 10 0 01.4-4.1c.3-1.4.7-3 1.2-2.8v.9a5.9 5.9 0 003.8 1.3c1 0 3.8-.2 3.8-1zM155.7 388.6c.4 0 .7.6 1.6 1.6a16.6 16.6 0 004.4 3.3c2.9 1.5 8.4 3.8 10.9 5 1.5.7 1.4 2.6-.2 3.8s-5.5 1.9-10.1.8c-2.6-.6-5.9-3-8-3s-6 .2-7.6-1-1-3.4-.5-5.4c.5-2.3 1-5.7 1.8-5.6v.8c.9 1.4 5.6 2 7.6 1zM141.6 303.4a27.8 27.8 0 0010.6-6.3s-2 4-8.1 7.6l1.3 34.2z" fill="#263238"/><path d="M124.7 233.6s-6 .5-5.5 11.8l1.3 18-.2 27c5.6 6.3 30.3 5.8 38.8-.5l-1.5-44.2c-.4-8.8-2.4-13.2-11-14.1l-10.5.4z" fill="#48a1d9"/><path d="M141.5 239.5l1.4 9.4h3.1l-3.6.6z" opacity=".3"/><path d="M105.9 272.3c3-24.7 10.1-37 18.7-38.4l-.6 15.8a139.5 139.5 0 00-8.2 26.1c-1.1 6.1-2.4 16.7-2 21.9a3.9 3.9 0 001 2.4c1.7 1.7 2.2 3.2 3.4 5.2.9 1.5 1.8 2 1.5 2.4a2 2 0 01-2.6.4 14.4 14.4 0 01-2.5-2.2 15.6 15.6 0 001.3 6.8c2 4.2 1.7 6.4-4 5.1-3.4-.7-6-4.4-7-13a75.4 75.4 0 010-9.7c.3-8.2.4-17.9 1-22.8z" fill="#914f4e"/><path d="M125.1 233.5c-4.5 0-8.5.8-11.8 7-3.1 6-5.5 18.7-6.7 22.8 0 0 6.5 3.9 12.5 3.8l4.3-14.7s2.8-6.8 1.7-19z" fill="#27debf"/><path d="M125.1 233.5c-4.5 0-8.5.8-11.8 7-3.1 6-5.5 18.7-6.7 22.8 0 0 6.5 3.9 12.5 3.8l4.3-14.7s2.8-6.8 1.7-19z" fill="#07418c" opacity=".3"/><path d="M134.3 208a11.3 11.3 0 1011.3-11.7 11.5 11.5 0 00-11.3 11.8zM127.2 214s1.7 8.4 2.4 9.8a3.7 3.7 0 002.1 1.8l-.1-6zM129.3 201.8s-1.2-.3-2.5 1.8c-1.1 1.7-1.4 5.7.4 10.3l3.2.4z" fill="#263238"/><path d="M131.4 214.3c-.7.4-1.6-.9-2.4-1.7s-3.4-2.1-4.7.8 1.1 6.8 3.2 7.4c3.6 1.2 4-1.2 4-1.2l.4 13.4c4.7 7.3 15.4 7 11.6-.3v-4.2a21.8 21.8 0 004.8.3c2.6-.4 4.3-2.6 5-5.5 1.3-4.8 1.8-8.6.7-18-1.2-10.2-12.6-10.3-18.8-6.3s-3.8 15.3-3.8 15.3z" fill="#914f4e"/><path d="M131.8 230a17.1 17.1 0 004.6 5.8 13.2 13.2 0 005.6 2.4 12.5 12.5 0 00-4 4.4c-1.1 2.7-9.5-4.5-9.4-9.6 0 0 1.3-5.1 3.1-5.4zM142 238.2s2.6-1.3 1.5-5.5v-4.1l1.1.1a10 10 0 012.7 4.7c.3 1.2 1 7-.2 8.3s-2.7-3.1-5-3.5zM131.4 215.5c-.3 0-1.6-2.2-2.4-3-1.1-1 .3-10.7.3-10.7a4.7 4.7 0 011.1-4.9c1.6-1.7 4.2-2 8.6-2.7a46 46 0 005.2-1 30.7 30.7 0 005.2-2.4 2.6 2.6 0 011.8-.4 1.7 1.7 0 011 1.2 5.3 5.3 0 010 1.8 2.9 2.9 0 014.1.1 4.1 4.1 0 01.7 4.3 7.7 7.7 0 01-3 3.4c-5.6 3.7-12 2.7-18.3 2a1.6 1.6 0 00-.9 0c-1 .5-1.1 3.5-1.3 4.4-.5 2.9-1 7.9-2.1 7.9z" fill="#263238"/><path d="M129.3 202.3l-3.9-2.2a2.1 2.1 0 013-1 2.5 2.5 0 011 3.2z" fill="#263238"/><path d="M143.5 228.6s-5.9-1.3-8-2.4a6.9 6.9 0 01-2.8-3 9.7 9.7 0 001.6 3.5c1.5 2 9.2 3.5 9.2 3.5z" fill="#783736"/><path d="M141.3 212.5a1.2 1.2 0 01-1.1 1.2 1.2 1.2 0 01-1.2-1.3 1.2 1.2 0 112.3 0zM139.3 207.4l-2.5 1.4a1.6 1.6 0 01.6-2 1.4 1.4 0 012 .6z" fill="#263238"/><path d="M143 221.2l2.6 1a1.4 1.4 0 01-1.8 1 1.6 1.6 0 01-.9-2z" fill="#783736"/><path d="M153 208.8l-2.6-1.3a1.4 1.4 0 011.9-.8 1.6 1.6 0 01.8 2zM151.3 212.5a1.2 1.2 0 11-2.3 0 1.2 1.2 0 011.2-1.3 1.2 1.2 0 011.1 1.3z" fill="#263238"/><path d="M144.7 211.6l.1 7.4 4.2-1z" fill="#783736"/><path d="M139.5 209.4a3 3 0 000 5.9h.6a3 3 0 000-6zm-3.4 3a3.5 3.5 0 013.4-3.6h.6a3.5 3.5 0 010 7h-.6a3.5 3.5 0 01-3.4-3.5zM150 209.4a3 3 0 100 5.9h.6a3 3 0 000-6zm-3.4 3a3.5 3.5 0 013.5-3.6h.5a3.5 3.5 0 010 7h-.5a3.5 3.5 0 01-3.5-3.5z" fill="#263238"/><path d="M143.5 211.6a2.3 2.3 0 011.8-1 1.9 1.9 0 011.6.7l.5-.4a2.4 2.4 0 00-2.1-.8 2.8 2.8 0 00-2.3 1.2zM130.4 211.6h6v.6h-6z" fill="#263238"/></g></svg>