<svg xmlns="http://www.w3.org/2000/svg" viewBox="0 0 48 48"><path fill="#CFD8DC" d="M5 38V14h38v24a4 4 0 01-4 4H9a4 4 0 01-4-4z"/><path fill="#F44336" d="M43 10v6H5v-6a4 4 0 014-4h30a4 4 0 014 4z"/><path fill="#B71C1C" d="M33 7a3 3 0 100 6 3 3 0 100-6zM15 7a3 3 0 100 6 3 3 0 100-6z"/><path fill="#B0BEC5" d="M33 3a2 2 0 00-2 2v5c0 1.1.9 2 2 2s2-.9 2-2V5a2 2 0 00-2-2zM15 3a2 2 0 00-2 2v5c0 1.1.9 2 2 2s2-.9 2-2V5a2 2 0 00-2-2z"/><path fill="#90A4AE" d="M13 20h4v4h-4zm6 0h4v4h-4zm6 0h4v4h-4zm6 0h4v4h-4zm-18 6h4v4h-4zm6 0h4v4h-4zm6 0h4v4h-4zm6 0h4v4h-4zm-18 6h4v4h-4zm6 0h4v4h-4zm6 0h4v4h-4zm6 0h4v4h-4z"/></svg>