<svg xmlns="http://www.w3.org/2000/svg" viewBox="0 0 48 48"><path fill="#1b9de2" d="M44 24a2 2 0 00-.7-1.5L42 21l1-1.6a2 2 0 00-1-3l-1.7-.8.3-1.8a2 2 0 00-1.8-2.5l-1.9-.3-.2-1.8A2 2 0 0034 7.5l-1.9.3-.8-1.7a2 2 0 00-2.9-1l-1.7 1-1.3-1.4a2 2 0 00-3 0L21 6l-1.6-1a2 2 0 00-3 1l-.8 1.7-1.8-.3a2 2 0 00-2.5 1.8l-.3 1.9-1.8.2A2 2 0 007.5 14l.3 1.9-1.7.8a2 2 0 00-1 2.9l1 1.7-1.4 1.3a2 2 0 000 3L6 27l-1 1.6a2 2 0 001 3l1.7.8-.3 1.8a2 2 0 001.8 2.5l1.9.3.2 1.8a2 2 0 002.5 1.8l1.9-.3.8 1.7a2 2 0 002.9 1l1.7-1 1.3 1.4c.4.5 1 .7 1.5.7a2 2 0 001.5-.7L27 42l1.6 1a2 2 0 003-1l.8-1.7 1.8.3a2 2 0 002.5-1.8l.3-1.9 1.8-.2a2 2 0 001.8-2.5l-.3-1.9 1.7-.8a2 2 0 001-2.9l-1-1.7 1.4-1.3c.5-.4.7-1 .7-1.5z"/><path d="M22.6 33.1c-.8 0-1.5-.4-1.9-1.1-3.5-6.4-9.2-9.4-9.2-9.4l-.4-.2.4-1.7h.4c5.4 0 8.4 2 10.5 4a25.4 25.4 0 0113.4-9.4l.5-.1.7 1.6-.3.3a37.4 37.4 0 00-12 14.8c-.5.7-1.2 1.2-2 1.2z" opacity=".1"/><path d="M22.6 32.6c-.6 0-1.1-.3-1.4-.9a25.6 25.6 0 00-9.5-9.5l.2-1c6 0 8.8 2.4 10.6 4.2 3.1-5.5 10.3-8.9 13.5-9.7l.4 1a37.8 37.8 0 00-12.2 15c-.3.5-1 .9-1.6.9z" opacity=".1"/><path fill="#fff" d="M12 21.7s5.8 3 9.6 9.8c.5.8 1.7.8 2.1 0 2-4.2 5.7-10.7 12.4-15.3-3.6 1-10.8 4.6-13.4 10a13.3 13.3 0 00-10.8-4.5z"/></svg>