<svg xmlns="http://www.w3.org/2000/svg" xmlns:xlink="http://www.w3.org/1999/xlink" viewBox="0 0 30 30" fill="#FFFFFF">
  <path d="M24,4H6C4.895,4,4,4.895,4,6v18c0,1.105,0.895,2,2,2h18c1.105,0,2-0.895,2-2V6C26,4.895,25.105,4,24,4z M13,10H7 c-0.552,0-1-0.448-1-1c0-0.552,0.448-1,1-1h6c0.552,0,1,0.448,1,1C14,9.552,13.552,10,13,10z M23,11h-6c-0.552,0-1-0.448-1-1V8 c0-0.552,0.448-1,1-1h6c0.552,0,1,0.448,1,1v2C24,10.552,23.552,11,23,11z M13,16H7c-0.552,0-1-0.448-1-1c0-0.552,0.448-1,1-1h6 c0.552,0,1,0.448,1,1C14,15.552,13.552,16,13,16z M23,22h-6c-0.552,0-1-0.448-1-1c0-0.552,0.448-1,1-1h6c0.552,0,1,0.448,1,1 C24,21.552,23.552,22,23,22z M23,17h-6c-0.552,0-1-0.448-1-1v-2c0-0.552,0.448-1,1-1h6c0.552,0,1,0.448,1,1v2 C24,16.552,23.552,17,23,17z M13,23h-2c-0.552,0-1-0.448-1-1v-2c0-0.552,0.448-1,1-1h2c0.552,0,1,0.448,1,1v2 C14,22.552,13.552,23,13,23z" fill="#000000" />
</svg>