<svg xmlns="http://www.w3.org/2000/svg" viewBox="0 0 48 48"><path fill="#ff3d00" d="M24 4a20 20 0 100 40 20 20 0 000-40z"/><path fill="#fff" d="M24 8a16 16 0 100 32 16 16 0 000-32zm0 28c-6.7 0-12-5.3-12-12s5.3-12 12-12 12 5.3 12 12-5.3 12-12 12zm0-20c-4.5 0-8 3.5-8 8s3.5 8 8 8 8-3.5 8-8-3.5-8-8-8zm0 12c-2.3 0-4-1.7-4-4s1.7-4 4-4 4 1.7 4 4-1.7 4-4 4z"/><path fill="#1976d2" d="M43 9s-.6 2.3-2.2 3.8c-1.6 1.6-8 2.4-8 2.4s.8-6.5 2.4-8A9 9 0 0139 5v4h4z"/><path fill="#37474f" d="M42.7 5.3a1 1 0 00-1.4 0l-18 18a1 1 0 000 1.4c.2.2.5.3.7.3s.5-.1.7-.3l18-18c.4-.4.4-1 0-1.4z"/><path fill="#42a5f5" d="M39 7.7l1.4 1.4-5.9 6-1.4-1.5L39 7.7z"/></svg>