<svg xmlns="http://www.w3.org/2000/svg" xmlns:xlink="http://www.w3.org/1999/xlink" width="439.5" height="429.3"><defs><linearGradient id="c" x1="1.1" y1="1" x2=".3" y2=".4" gradientUnits="objectBoundingBox"><stop offset="0" stop-color="#b37cff"/><stop offset="1" stop-color="#f895e7"/></linearGradient><linearGradient id="b" x1=".4" y1="-.2" x2=".6" y2="1" gradientUnits="objectBoundingBox"><stop offset="0" stop-color="#a737d5"/><stop offset="1" stop-color="#ef497a"/></linearGradient><linearGradient id="a" x1="4.1" y1="2.3" x2="2.4" y2="2.2" gradientUnits="objectBoundingBox"><stop offset="0" stop-color="#9f5699"/><stop offset="1" stop-color="#202278"/></linearGradient><linearGradient id="j" x1="2.5" y1=".3" x2="-1.2" y2=".7" xlink:href="#a"/><linearGradient id="k" x1="-23.4" y1="-2.2" x2="-24.3" y2="-2.4" xlink:href="#a"/><linearGradient id="l" x1="-23.4" y1=".3" x2="-27.1" y2=".7" xlink:href="#a"/><linearGradient id="m" x1=".3" y1="1" x2=".9" y2="0" xlink:href="#b"/><linearGradient id="n" x1="0" y1=".5" x2="1" y2=".5" xlink:href="#b"/><linearGradient id="o" x1="0" y1=".5" x2="1" y2=".5" xlink:href="#c"/><linearGradient id="e" y1=".5" x2="1" y2=".5" gradientUnits="objectBoundingBox"><stop offset="0" stop-color="#2b3582"/><stop offset="1" stop-color="#150e42"/></linearGradient><linearGradient id="d" x1=".5" y1=".3" x2=".4" y2="2" gradientUnits="objectBoundingBox"><stop offset="0" stop-color="#53d8ff"/><stop offset="1" stop-color="#3840f7"/></linearGradient><linearGradient id="q" x1=".5" y1=".3" x2=".4" y2="2" xlink:href="#d"/><linearGradient id="r" y1=".5" x2="1" y2=".5" gradientUnits="objectBoundingBox"><stop offset="0" stop-color="#18459f"/><stop offset="1" stop-color="#2874b5"/></linearGradient><linearGradient id="s" x1=".5" y1="-1.8" x2=".5" y2="3" xlink:href="#e"/><linearGradient id="f" x1=".6" y1="-.1" x2=".4" y2="2" gradientUnits="objectBoundingBox"><stop offset="0" stop-color="#fdf53f"/><stop offset="1" stop-color="#d93c65"/></linearGradient><linearGradient id="t" x1=".6" y1="-.5" x2=".4" y2="1.4" xlink:href="#f"/><linearGradient id="u" x1=".2" y1="1.6" x2=".6" y2="-.2" xlink:href="#f"/><linearGradient id="v" x1="1" y1="-1.7" x2=".3" y2="1.5" xlink:href="#f"/><linearGradient id="w" x1="-54.1" y1=".5" x2="-53.1" y2=".5" xlink:href="#d"/><linearGradient id="x" x1="-55.7" y1=".5" x2="-54.7" y2=".5" xlink:href="#e"/><linearGradient id="g" x1="-193.9" y1=".5" x2="-192.9" y2=".5" gradientUnits="objectBoundingBox"><stop offset="0" stop-color="#f9b776"/><stop offset="1" stop-color="#f47960"/></linearGradient><linearGradient id="y" x1="-153.3" y1=".5" x2="-152.3" y2=".5" xlink:href="#d"/><linearGradient id="z" x1="-104" y1=".5" x2="-103" y2=".5" xlink:href="#e"/><linearGradient id="A" x1="-172.7" y1=".5" x2="-171.7" y2=".5" xlink:href="#g"/><linearGradient id="h" x1="-28" y1="1" x2="-26.1" y2="-.6" gradientUnits="objectBoundingBox"><stop offset="0" stop-color="#fdf53f"/><stop offset=".7" stop-color="#e57a58"/><stop offset="1" stop-color="#d93c65"/></linearGradient><linearGradient id="i" x1="-32.6" y1="-.1" x2="-35.2" y2="1.9" gradientUnits="objectBoundingBox"><stop offset="0" stop-color="#ce1567"/><stop offset="1" stop-color="#7a1dbc"/></linearGradient><linearGradient id="B" x1="-122.3" y1="5" x2="-122" y2="4.2" xlink:href="#h"/><linearGradient id="C" x1="-110.8" y1=".1" x2="-113.2" y2="1.1" xlink:href="#g"/><linearGradient id="D" x1="-74.6" y1="-.5" x2="-80.2" y2="3" xlink:href="#i"/><linearGradient id="E" x1="-94.8" y1="-.2" x2="-102.3" y2="4" xlink:href="#i"/><linearGradient id="F" x1="-52.9" y1=".5" x2="-51.9" y2=".5" xlink:href="#g"/><linearGradient id="G" x1="-74.9" y1="0" x2="-74.9" y2="1.9" xlink:href="#g"/><linearGradient id="H" x1="-10.7" y1=".5" x2="-9.7" y2=".5" xlink:href="#e"/><linearGradient id="I" x1="-8.7" y1=".5" x2="-7.7" y2=".5" xlink:href="#e"/><linearGradient id="J" x1="-77" y1="-1.2" x2="-78.7" y2="3.8" xlink:href="#g"/><linearGradient id="K" x1="-144.7" y1=".5" x2="-143.7" y2=".5" xlink:href="#g"/><linearGradient id="L" x1="-92.3" y1=".3" x2="-93.4" y2="1.1" xlink:href="#g"/><linearGradient id="M" x1="-65.5" y1=".2" x2="-64.7" y2="1.1" xlink:href="#e"/><linearGradient id="N" x1="-381.3" y1="-.7" x2="-385.8" y2="1.8" xlink:href="#g"/><clipPath id="p"><path d="M623.9 1451.8v179.5c0 9.1 7 16.5 15.7 16.6l353.3 4.6c8.6.1 15.8-7.1 15.8-16.1l.6-178a11.6 11.6 0 00-11.1-11.8l-361.7-7.6a12.6 12.6 0 00-12.6 12.8z" transform="translate(-623.9 -1439)" fill="none"/></clipPath></defs><g><path d="M925.4 745C884.2 842.4 774.2 896.8 679 882c-15.5-2.4-58-9.5-95.7-43-72.4-64.7-88-192.7-29.5-282.9a225.5 225.5 0 01191.4-101c15.6.4 75.4 2.9 128 46.2a197.2 197.2 0 0140 45.6c36.1 56.3 39.2 134.9 12.3 198.2z" transform="translate(-509.2 -455)" opacity=".3" fill="url(#c)"/><rect width="5.3" height="43" rx="2.7" transform="translate(360.3 9.6)" fill="url(#b)"/><path transform="rotate(-6.5 982.2 -3271.5)" fill="url(#a)" d="M0 0h7.3v14.6H0z"/><path d="M2879 913.9a1.3 1.3 0 00-2.3-.6l-6 9.4a5.8 5.8 0 00-1 4l3 19a5.8 5.8 0 001.9 3.4l7 6.2a1.3 1.3 0 002-1.1z" transform="translate(-2489.9 -840.5)" fill="url(#j)"/><path transform="rotate(-83.5 229.5 -140.4)" fill="url(#k)" d="M0 0h14.6v7.3H0z"/><path d="M2575 913.9a1.3 1.3 0 012.4-.6l6.1 9.4a5.8 5.8 0 01.9 4l-2.9 19a5.8 5.8 0 01-2 3.4l-6.9 6.2a1.3 1.3 0 01-2-1.1z" transform="translate(-2237.9 -840.5)" fill="url(#l)"/><path d="M2669.4 878l-1.2-9-13.4-101a3 3 0 00-2.6-2.7h-12.8a3.5 3.5 0 00-3 2.7l-1.5 9.2-10.7 103.2a2.8 2.8 0 002.5 2.8h.4a2.7 2.7 0 002.7-2.3l.9-8.2 16.2-6 16.3 4.6 1 7.5a2.6 2.6 0 105.2-.7zm-29-93.9l2.3 3-3.2 4.4zm10.7 44.7l6-4.2 1.1 8.8zm5.6 9.8l-10 6.5-10.2-5.8 10.1-7.2zm-10.2-12.8l-8.5-5.5 8.2-7.4 8.5 7zm3.6-16.4l4.4-4 1.1 8.4zm2.5-18.3l-3.4-4.3 2.4-3.4zm.3 8.7l-7 6.3-6.5-5.3 6.7-9.5zm-15 6.5l4.1 3.3-5 4.5zm-2 18.8l6 4-7 5zm-2 18.7l7.9 4.4-9 5.9zm13 7.3l11 6.1-11.1 4.1-11-3zm5-3.2l7.6-4.8 1.3 9.8zm-2-76.3l.7 4.3-4.8 6.8-4.7-5.7.6-5.4zm-18.6 95.3l.5-4.4 6.6 1.9zm24-3.2l6.6-2.4.6 4.4z" transform="translate(-2283 -716.3)" fill="url(#m)"/><path d="M1376.2 839.7a4.5 4.5 0 00-4.4-4.4H1281a4.9 4.9 0 00-4.8 4.5v217.6a4.8 4.8 0 004.7 4.4l95-.3a4.4 4.4 0 004.4-4.5z" transform="translate(-1147.8 -775.3)" fill="url(#n)"/><g opacity=".5" fill="#fff"><path d="M161.6 85.6h-25.9l-.2-13.3h25.9zM190.6 85.6h-25.9l-.1-13.3h25.8zM219.5 85.6h-25.8l-.1-13.3h25.8zM161.9 109.4h-25.8l-.2-13.1h25.8zM190.8 109.4h-25.7l-.2-13.1h25.8zM219.7 109.4H194l-.2-13.2h25.8zM162.2 133h-25.7l-.2-13H162zM191.1 133h-25.7l-.2-13H191zM220 133h-25.8l-.1-13 25.7-.1zM162.5 156.6h-25.7l-.2-13h25.8zM191.4 156.6h-25.7l-.2-13 25.7-.1zM220.2 156.5h-25.7l-.1-13H220zM162.9 180l-25.7.1-.2-13h25.7zM191.7 180H166l-.2-13h25.7zM220.4 180h-25.6l-.2-13h25.7zM163.2 203.5h-25.7l-.2-13H163zM192 203.4h-25.7l-.2-13h25.7zM220.6 203.3H195l-.1-12.9h25.6zM163.5 226.8h-25.6l-.2-13h25.6zM192.2 226.7h-25.6l-.2-12.9H192zM220.8 226.6h-25.5l-.1-12.9h25.5zM163.8 250h-25.5l-.2-12.8 25.5-.1zM192.5 249.9h-25.6l-.1-12.8h25.5zM221 249.8h-25.4l-.2-12.8H221zM164.1 273.1l-25.5.1-.2-12.8 25.6-.1zM192.7 273l-25.5.1-.1-12.8 25.5-.1zM221.3 273h-25.5l-.1-12.8 25.5-.1z"/></g><path d="M735.4 602.2a3.3 3.3 0 00-3.3-3.2H623c-1.9 0-3.8 1.5-3.8 3.3v254.5a5.5 5.5 0 005.5 5l110.2-.2a5.1 5.1 0 005.1-5.3z" transform="translate(-594.5 -576.3)" fill="url(#o)"/><path d="M78.2 40.7H42.6v-4.5h35.6zM78.3 57.2L42.5 57v-4.5l35.8.2zM78.4 73.8l-36-.2.1-4.6 36 .2zM78.5 90.5l-36-.3v-4.6l36 .3zM78.6 107.3l-36.2-.3v-4.6l36.2.3zM78.8 141.4l-36.5-.3v-4.7l36.5.3zM79.2 193.7l-37-.5v-4.8l37 .5zM78.7 124.3l-36.4-.3v-4.7l36.4.3zM79 158.7l-36.8-.4v-4.7l36.7.4zM79 176.1l-36.8-.4v-4.8l36.8.5zM79.3 211.4L42 211V206l37.1.6zM79.4 229.3l-37.4-.6v-4.9l37.3.6zM79.5 247.3l-37.5-.6v-5l37.4.7zM79.6 265.5l-37.7-.7v-5l37.7.7zM125 41l-35.9-.2v-4.5l35.8.1zM125.3 57.4l-36-.2v-4.5l36 .2zM125.6 74l-36.2-.2v-4.5l36.1.2zM125.9 90.8l-36.3-.3V86l36.2.2zM126.2 107.7l-36.5-.3v-4.6l36.4.3zM126.8 142l-36.8-.5v-4.7l36.7.4zM127.7 194.4l-37.3-.5V189l37.2.5zM126.5 124.7l-36.7-.3v-4.7l36.6.4zM127.1 159.3l-37-.5v-4.7l37 .4zM127.4 176.7l-37.1-.4v-4.8l37 .4zM128 212.1l-37.4-.5v-4.9l37.3.6zM128.3 230l-37.5-.5v-5l37.5.7zM128.7 248.2l-37.8-.7v-5l37.7.7zM129 266.4l-38-.7v-5l37.9.7z" fill="#fff"/><path d="M549.6 1414.2v189c0 15.6 12 28.3 27 28.7 66.5 1.8 299.3 6 362.6 5.1a20.7 20.7 0 0020-20.5c1.2-43.9 3.2-149.5-4.1-198.5a21.2 21.2 0 00-20-18.4c-55.8-1.8-302.5-7.7-365.8-6.2-11 .3-19.7 9.5-19.7 20.8z" transform="translate(-535.9 -1245.1)" fill="url(#e)"/><path d="M622.1 1452.6V1632c0 9.1 7 16.5 15.8 16.6l353.2 4.6c8.7.1 15.8-7.1 15.8-16.1l.6-178a11.6 11.6 0 00-11.1-11.8l-361.7-7.6a12.6 12.6 0 00-12.6 12.8z" transform="translate(-596.9 -1284.4)" fill="url(#d)"/><path d="M412.7 376.2l-387.5-6.8a.5.5 0 01-.5-.5.5.5 0 01.5-.6l387.5 6.9a.5.5 0 010 1z" fill="#fff" opacity=".7"/><g transform="translate(25.5 155.2)" clip-path="url(#p)"><path d="M623.9 1451.8v179.5c0 9.1 7 16.5 15.7 16.6l353.3 4.6c8.6.1 15.8-7.1 15.8-16.1l.6-178a11.6 11.6 0 00-11.1-11.8l-361.7-7.6a12.6 12.6 0 00-12.6 12.8z" transform="translate(-623.9 -1439)" fill="url(#q)"/><path d="M118.4 983.3l-2 117h107.2l-2.5-23.5z" transform="translate(-123.5 -983.4)" fill="url(#r)" opacity=".8"/><path d="M1853.8 1132.8l-50.2 25.4 3.2 81.1 49.3 31.3z" transform="translate(-1544.5 -1109.3)" fill="url(#r)" opacity=".8"/><path d="M85 2120.7l112.2.8-3.5 37.7H103z" transform="translate(-97.1 -1941.3)" fill="url(#r)" opacity=".8"/><path d="M2482.4 961.3v202.5l22.8 14.6V965z" transform="translate(-2116.2 -964.9)" fill="url(#r)" opacity=".8"/><path d="M104.2 216.3h-9V96.7L-9.7-4.3l6.1-6.5L104.2 92.9z" fill="#fff"/><path d="M263.6 224.8h-9V52.6L193-1l-89.6 101.8-6.9-6L192.2-14l71.4 62.5zM-12.2 112.7h112v9h-112zM-12.2 173.8h112v8.5h-112z" fill="#fff"/><path fill="#fff" d="M100 149.3h158.8v9.6H100zM256.7 46.6l91.4-54.2 4.6 7.9-91.3 54.2zM256.5 131.5l5-7.6L396 212.4l-5 7.6z"/><path fill="#fff" d="M306.6 19.1h9.6v143.5h-9.6zM361.4-13.8h9.6v209.4h-9.6zM27.6 19.1h137.6v9H27.6zM212.6 154.1h9v70.7h-9zM100.2 101.2l-.2-9 163.6-4.5v9h-4.4v.2z"/></g><path d="M9.6 2398.5h420.3a9.6 9.6 0 019.6 9.6 9.6 9.6 0 01-9.6 9.6H9.6A9.6 9.6 0 010 2408a9.6 9.6 0 019.6-9.6z" transform="translate(0 -2020.1)" fill="url(#s)"/><path d="M35.8 174.8v163.6a15.1 15.1 0 0015 15.2l334 4.1a14.7 14.7 0 0015-14.7l.5-162.1a10.8 10.8 0 00-10.5-10.9l-342-6.9a11.7 11.7 0 00-12 11.7z" fill="#fff" opacity=".4"/><circle cx="67" cy="67" r="67" transform="rotate(-45 235.9 -79)" fill="url(#f)"/><path d="M1563.3 1331.1h-134s-5.3 38.1 54.5 140a15 15 0 0012.6 7.6 15 15 0 0012.5-7.7c59.8-102 54.4-139.9 54.4-139.9z" transform="translate(-1276.7 -1192.9)" fill="url(#t)"/><path d="M1487.4 1146.1v.2h-1.4a16.5 16.5 0 01-14.2-8.1c-35-59.6-47.8-97.2-52.4-118.3a67.4 67.4 0 01-2.3-14.4 33.5 33.5 0 010-7.3l.2-1a69 69 0 01137.6.6 30.7 30.7 0 010 3.7v.3a69.1 69.1 0 01-2.7 19.4c-4.7 21-17 58.3-51.3 116.9a16.7 16.7 0 01-13.5 8zm-66.6-146s0 2.8.2 5a63.8 63.8 0 002.2 13.8v.1c4.5 20.8 17.2 58 52 117.2 2.2 3.8 7 6.2 11.5 6.2l.7 2v-2c2.1 0 8.2-2.4 10.4-6.2 34.2-58.2 47-95.2 51.2-116v-.1c2.1-6 2.4-12.1 2.4-18.3l-.3-.3V998a65 65 0 00-130 .4l-.2 1.6z" transform="translate(-1266.3 -857.7)" fill="url(#u)"/><circle cx="38.7" cy="38.7" r="38.7" transform="rotate(-45 255.7 -127.7)" fill="#fff" opacity=".8"/><path d="M1638 1186.8a40.9 40.9 0 1141-40.8 41 41 0 01-41 40.8zm0-77.4a36.5 36.5 0 1036.6 36.6 36.6 36.6 0 00-36.5-36.6z" transform="translate(-1418.1 -1002.5)" fill="url(#v)"/><path d="M183.2 103.1a.6.6 0 01-.4-1.1 60 60 0 0139.1-14.5.7.7 0 010 1.3 58.8 58.8 0 00-38.3 14.2.6.6 0 01-.4.1zM162.5 148.2a.6.6 0 01-.6-.6 60 60 0 019-31.6.6.6 0 111 .6 58.6 58.6 0 00-8.8 31 .6.6 0 01-.6.6z" fill="#fff"/><g opacity=".7" fill="#fff"><path d="M279.9 69.3a7.1 7.1 0 117.4-6.8 7.1 7.1 0 01-7.4 6.8zm.5-11.4a4.3 4.3 0 104.1 4.5 4.3 4.3 0 00-4-4.5zM281 47a15.1 15.1 0 0114.2 17.5 1 1 0 001.1 1.2l2.2-.3a1 1 0 001-.9l.1-1.4a19.4 19.4 0 00-18.4-20.3 19.2 19.2 0 00-2.4 0 1 1 0 00-1 1.2l.3 2.1a1 1 0 001.1 1 14.7 14.7 0 011.8 0z"/><path d="M281.5 36.1a26.1 26.1 0 0124.8 27.4 1 1 0 001.1 1l2.2-.1 1-1A30.3 30.3 0 00277.4 32a1 1 0 00-1 1.1l.3 2.2a1 1 0 001.1.9 25.8 25.8 0 013.6 0z"/><path d="M282.1 25.2a37 37 0 0135.1 37.3 1 1 0 001.2 1l2.1-.2a1 1 0 001-1A41.2 41.2 0 00276.2 21a1 1 0 00-1 1.2l.3 2.1a1 1 0 001.2 1 37 37 0 015.4-.2z"/></g><path d="M2455 3066.7c3.4.3 9.3.8 14 1a13.5 13.5 0 005.2-.6v.3a1 1 0 01-.9 1 162.7 162.7 0 01-18.2 0 .7.7 0 01-.5-1 5.5 5.5 0 01.4-.7z" transform="translate(-2140.1 -2654.6)" fill="url(#w)"/><path d="M2472 3031.2c-4.7-.2-10.6-.7-14-1 3.4-4 14-6.8 14-6.8h3a12.5 12.5 0 012.3 7.3 13.4 13.4 0 01-5.4.5z" transform="translate(-2143.2 -2618.2)" fill="url(#x)"/><path d="M2538.4 2992.5l-.2 5.5a1.3 1.3 0 01-1.1 1.2 4.9 4.9 0 01-2.3-.2 1.5 1.5 0 01-1-1.1l-1-5.4z" transform="translate(-2206.2 -2592.1)" fill="url(#g)"/><path d="M2786.5 3063a2.7 2.7 0 002.4-1.7 2 2 0 01-1.3 2.2 8.4 8.4 0 01-3.6.5 3.5 3.5 0 01-2.6-1.2c1 .5 2.6.6 5 .3z" transform="translate(-2415.5 -2650)" fill="url(#y)"/><path d="M2760.3 2992.3h2.5c3.7 0 6 7.8 6.9 10.9a2.7 2.7 0 01-2.5 1.8c-2.4.3-4 .2-5-.3-2-2.7-3-6.6-3.6-8.8a3.1 3.1 0 011.7-3.6z" transform="translate(-2396.2 -2592)" fill="url(#z)"/><path d="M2755.4 2959.8l1.4 5.4a1.5 1.5 0 01-.8 1.7 5.2 5.2 0 01-2.8.7 1.2 1.2 0 01-1-.8l-2-5.7z" transform="translate(-2389.2 -2564.6)" fill="url(#A)"/><path d="M2513.5 2557.4c-1.7 1.5-7.2 1.7-7.2 1.7-20-47.8-28-54.5-28-54.5 2.8 18 .4 58 .4 58-3.3 1.4-7.5 0-7.5 0a307.8 307.8 0 00-10.2-75.7 38 38 0 0023-6.7c11.2 18 29.5 77.2 29.5 77.2z" transform="translate(-2145.6 -2160.7)" fill="url(#h)"/><path d="M2384.1 2130.1c2.5 12.7 1.6 35.5 1 45.9-.1 2.9 1.9 7 3.5 9.7a.9.9 0 01-.3 1.2 60 60 0 01-22.9 6.3 1.5 1.5 0 01-1.6-1.1c-8-30-17.3-49.1-17.3-49.1 10.3-16.4 37.6-12.9 37.6-12.9z" transform="translate(-2049.2 -1865.6)" fill="url(#i)"/><path d="M2517.4 2585.4a.6.6 0 00.6-1 20 20 0 00-8-6.8.6.6 0 00-.5 1.1 19 19 0 017.4 6.4.6.6 0 00.5.3z" transform="translate(-2186.2 -2242.6)" fill="url(#B)"/><path d="M2633.1 2358.3c-.8 5.9-3.2 12.4-8 19.2l-2-1.5a56.8 56.8 0 001-18.4 22 22 0 019 .7z" transform="translate(-2282.2 -2057.2)" fill="url(#C)"/><path d="M2566.7 2147.6l2.9-15.7s19 14.5 16 36.4a22 22 0 00-9-.6c-1-7-3.5-14.7-9.9-20.1z" transform="translate(-2234.7 -1867.3)" fill="url(#D)"/><path d="M2309.4 2213.4l7.3 15.8c-1.2 9.5-6.3 13.6-11.8 15.2a33.5 33.5 0 00-2.5-10.3c7-7.3 7-20.7 7-20.7z" transform="translate(-2012 -1936)" fill="url(#E)"/><path d="M2216 2345a33.5 33.5 0 012.5 10.2c-14.8 5.8-18.7-5.3-18.7-5.3l2.7-.5c6.2.6 10.5-1.4 13.5-4.5z" transform="translate(-1925.7 -2046.8)" fill="url(#F)"/><path d="M2389.3 2071l3.6 13a2.5 2.5 0 003.4 1.7 51.8 51.8 0 005-2.4 3.4 3.4 0 001.3-4.9l-7.4-11z" transform="translate(-2085.3 -1813)" fill="url(#G)"/><path d="M2144.8 2320.9l90.7 33a7 7 0 014 9.4l-.3.6a6.5 6.5 0 01-8.6 3.2l-88.1-40.8z" transform="translate(-1877.4 -2026.5)" fill="url(#H)"/><ellipse cx="44.8" cy="44" rx="44.8" ry="44" transform="translate(179.8 230.5)" fill="#fff" opacity=".5"/><path d="M1576.6 1933.6c0 27 22.3 49 49.8 49s49.9-22 49.9-49-22.3-49-49.9-49-49.8 22-49.8 49zm7.3 0c0-23 19-41.8 42.5-41.8s42.6 18.7 42.6 41.8-19 41.7-42.6 41.7-42.5-18.7-42.5-41.7z" transform="translate(-1400.8 -1659)" fill="url(#I)"/><path d="M271.7 280.6a.3.3 0 01-.3-.4c.2-1.1.3-2.3.3-3.5a.3.3 0 01.4-.2.3.3 0 01.3.3l-.4 3.5a.3.3 0 01-.3.2zm-.6-14a44.5 44.5 0 00-2.6-9 46 46 0 00-42.8-28.4 46.6 46.6 0 00-24.8 7.1.3.3 0 11-.3-.5 47.2 47.2 0 0125-7.2 46.6 46.6 0 0143.4 28.7 45 45 0 012.7 9.2.3.3 0 01-.6.1z" fill="#fff"/><path d="M2562.4 2470l-8.6-.7-3.7 3.4s.9 1.2 3.6.5a39.3 39.3 0 016.5-.8s3.8 1.7 3.9-1.5z" transform="translate(-2220.7 -2151.5)" fill="url(#J)"/><path d="M2175.9 2354.3c-.8.6-3.3-.6-4.9-1.4a1.8 1.8 0 01-.8-2.2c.3-1.1 1-2.7 1.7-2.9 1.3-.3 7 4.1 4 6.5z" transform="translate(-1900.6 -2049.2)" fill="url(#K)"/><path d="M356.4 339.3c3.6-1.2 4.4-3.3 4.5-4.8a5.4 5.4 0 00-3.5-5.2l-11-4.2a.3.3 0 00-.1.5l10.9 4.3a4.8 4.8 0 013 4.5c0 2-1.4 3.4-4 4.3a.3.3 0 00.2.6zM343 324.3a.3.3 0 00.1-.6l-1.4-.5a.3.3 0 10-.2.6l1.4.5a.3.3 0 00.1 0z" fill="#fff"/><path d="M2366.8 2008.7s-3 6.7-3.1 10.3-1 5.8 3.1 6.5a8.7 8.7 0 009.4-4.8s3-5.5 2.3-7.7-11.7-4.3-11.7-4.3z" transform="translate(-2063.5 -1763.6)" fill="url(#L)"/><path d="M2357 1949.4c.3-1.4.9-4 2.7-4.3a4.2 4.2 0 013.1 1.1l1.3 1a7.5 7.5 0 002.8 2 22.9 22.9 0 012.9 1.2c2 .9 4.2 2 5.4 4a3.3 3.3 0 01.2 3 .3.3 0 00.2 0c.4-.2 1-.3 1.8.4 1.4 1.2.8 4.2-2.2 6.7a.3.3 0 000 .4c.6.4 1.4 1.2-.7 2.4-2.2 1.1-3.5 1-4 .9a.3.3 0 01-.2-.3l.2-3.1a.3.3 0 00-.3-.3h-1.6s1.6-3.3.8-4.7a7.6 7.6 0 01-1.8-.7 2.5 2.5 0 00-.7-.2l-1-.2-1.4-.3a13.4 13.4 0 01-2.6-.7 8 8 0 01-4.7-4 7.2 7.2 0 01-.2-4.3z" transform="translate(-2057.8 -1710)" fill="url(#M)"/><path d="M2434.4 2055s1.1-4.4 3-3.2-1 4.8-2.5 5z" transform="translate(-2123.2 -1799.7)" fill="url(#N)"/></g></svg>