<svg xmlns="http://www.w3.org/2000/svg" width="1366" height="1366"><defs><radialGradient id="a" cx=".5" cy=".5" r=".5" gradientUnits="objectBoundingBox"><stop offset="0" stop-color="#fff"/><stop offset=".1" stop-color="#fcfefe"/><stop offset=".2" stop-color="#f3fbfc"/><stop offset=".3" stop-color="#e4f5f8"/><stop offset=".3" stop-color="#ceedf3"/><stop offset=".4" stop-color="#b2e2eb"/><stop offset=".5" stop-color="#95d7e4"/><stop offset=".5" stop-color="#9bd9e5"/><stop offset=".6" stop-color="#bfe7ef"/><stop offset=".7" stop-color="#dbf1f6"/><stop offset=".8" stop-color="#eff9fb"/><stop offset=".9" stop-color="#fbfdfe"/><stop offset="1" stop-color="#fff"/></radialGradient><radialGradient id="b" cx=".7" cy=".1" r="1.3" gradientUnits="objectBoundingBox"><stop offset="0" stop-color="#fff"/><stop offset=".2" stop-color="#fafafa"/><stop offset=".4" stop-color="#ececec"/><stop offset=".6" stop-color="#d5d5d5"/><stop offset=".8" stop-color="#b6b6b6"/><stop offset="1" stop-color="#999"/></radialGradient><radialGradient id="c" cx=".1" cy=".9" r="1.5" gradientUnits="objectBoundingBox"><stop offset="0" stop-color="#fff"/><stop offset=".3" stop-color="#fcfcfc"/><stop offset=".4" stop-color="#f2f2f2"/><stop offset=".6" stop-color="#e2e2e2"/><stop offset=".8" stop-color="#cbcbcb"/><stop offset=".9" stop-color="#aeaeae"/><stop offset="1" stop-color="#999"/></radialGradient><clipPath id="d"><path fill="none" d="M0 0h711v711H0z"/></clipPath><clipPath id="e"><path fill="none" d="M0 0h711v711H0z"/></clipPath></defs><path fill="url(#a)" d="M0 0h1366v1366H0z"/><g opacity=".1" fill="#00f"><path d="M682 1051a392 392 0 01-277-669h3a388 388 0 10547 0h3a392 392 0 01-276 669z"/><path d="M682 995a337 337 0 01-335-336h3a332 332 0 10332-332v-3a336 336 0 010 671z"/><path d="M878 855a274 274 0 10-386 0h-3a277 277 0 11392 0z"/><path d="M682 886a227 227 0 01-160-387 223 223 0 10315 0 227 227 0 01-160 387z"/><path d="M682 829a170 170 0 11120-289 164 164 0 00-284 117 164 164 0 00284 117 170 170 0 01-120 55zM419 382a14 14 0 11-14-11 14 14 0 0114 11zM363 659a14 14 0 11-26 0 14 14 0 1126 0zM500 853a14 14 0 11-6-14 14 14 0 016 14zM893 852a14 14 0 11-14-14 14 14 0 0114 14z"/><path d="M813 780a14 14 0 11-13-14 14 14 0 0113 14zM535 502a13 13 0 01-13 14 14 14 0 110-27 13 13 0 0113 13zM699 327a14 14 0 11-14-11 14 14 0 0114 11zM970 382a14 14 0 11-13-14 14 14 0 0113 14zM853 501a14 14 0 11-27 0 13 13 0 0114-13 13 13 0 0113 13z"/></g><g opacity=".1" fill="#00f"><path d="M682 1099a443 443 0 01-312-756 438 438 0 10751 312 438 438 0 00-128-310 443 443 0 01-311 754z"/><path d="M682 1038a379 379 0 01-379-383h4a375 375 0 10375-374v-4a381 381 0 010 761z"/><path d="M904 877h-3a309 309 0 10-438 0 312 312 0 11441-441 312 312 0 010 442z"/><path d="M682 912a256 256 0 01-181-437h3a252 252 0 10357 0h3a256 256 0 01-182 437z"/><path d="M682 848a192 192 0 11136-329h-3c-73-72-192-72-265 0a187 187 0 000 266c73 73 192 73 265 0l3 3a190 190 0 01-136 60zM384 343a15 15 0 11-4-11 15 15 0 014 11zM322 655a15 15 0 11-15-12 15 15 0 0115 12zM477 874a15 15 0 11-15-15 15 15 0 0115 15zM920 874a16 16 0 01-15 15 15 15 0 110-30 16 16 0 0115 15z"/><path d="M830 792a16 16 0 01-15 16 15 15 0 01-15-16 15 15 0 0115-15 15 15 0 0115 15zM517 479a15 15 0 11-16-15 16 16 0 0116 15zM701 281a15 15 0 11-15-15 15 15 0 0115 15zM1007 345a15 15 0 01-15 15 15 15 0 110-30 15 15 0 0115 15zM874 477a15 15 0 11-15-15 15 15 0 0115 15zM832 522a15 15 0 11-13-16 15 15 0 0113 16z"/></g><path d="M563 285A278 278 0 11285 7a277 277 0 01278 278z" transform="translate(397 364)" fill="url(#b)"/><path d="M8 238a231 231 0 10462 0 231 231 0 00-462 0z" transform="translate(444 411)" fill="url(#c)"/><g transform="translate(0 325)" clip-path="url(#d)" fill="#07418b" opacity=".8"><g transform="translate(-147 91)" opacity=".1"><path d="M275 65h47v-3h-46l-40-41h-88L132 5H56L11 50l2 1L57 8h74l16 17h88zM14 126h80l56-57h58l54 54h186l43-43h62v-3h-63l-44 43H263l-54-54h-60l-56 57H14z"/><path d="M440 165h126l23-22h91v-3h-93l-22 22H442l-77-76H250l-52-52H57L34 57H11v3h25l23-23h137l53 52h115z"/><path d="M177 343h51l53-53h67l149-149h55v-3h-56L346 287h-66l-53 53h-50zM113 177h75l30-30h164v-6H216l-31 30h-70l-37-38H11v6h64z"/><path d="M244 233h119v-3H245l-37-37H79l-23-24H6v3h48l24 24h129z"/><path d="M160 287h52l112-112h73l54 54h178l30 30h42v-6h-40l-30-30H454l-54-54h-78L210 281h-48l-24-24H7v6h129z"/><path d="M228 273h194l89-89h103v-6H509l-89 89H230l-42-42H11v6h175z"/><path d="M636 294h65v-3h-64l-44-44H467v3h124zM54 415h226l64-64h115l45-46h46v-2h-47l-45 45H343l-64 64H55l-41-40H0v3h13z"/><path d="M91 494h191l19-20h104l135-135h182l28 27 2-2-29-28H539L404 471H300l-19 20H92l-14-15H3v3h74z"/><path d="M432 369h157v-4H433l-57-56H171l-65-66H6v3h99l65 65h205zM317 63a5 5 0 005 6 6 6 0 100-12 5 5 0 00-5 6zM547 79a6 6 0 106-6 6 6 0 00-6 6zM544 141a6 6 0 106-6 6 6 0 00-6 6zM693 294a6 6 0 106-6 6 6 0 00-6 6zM461 248a6 6 0 106-6 6 6 0 00-6 6zM543 304a6 6 0 106-6 6 6 0 00-6 6zM532 339a6 6 0 106-6 6 6 0 00-6 6z"/><path d="M276 287a6 6 0 106-6 6 6 0 00-6 6zM200 193a6 6 0 101-7 6 6 0 00-1 7zM441 121a6 6 0 106-6 6 6 0 00-6 6zM357 230a5 5 0 005 6 5 5 0 006-6 6 6 0 00-4-6 6 6 0 00-7 6zM336 349a6 6 0 107-6 6 6 0 00-7 6z"/><circle cx="6" cy="6" r="6" transform="translate(273 406)"/><path d="M747 365a5 5 0 006 7 5 5 0 006-7 5 5 0 00-6-5 5 5 0 00-6 5zM583 367a5 5 0 006 6 6 6 0 100-12 5 5 0 00-6 6zM175 340a5 5 0 006 5 5 5 0 006-5 6 6 0 00-12 0zM49 170a5 5 0 006 6 5 5 0 005-6 5 5 0 00-5-6 6 6 0 00-6 6zM370 310a6 6 0 106-6 6 6 0 00-6 6zM359 88a6 6 0 006 6 6 6 0 006-6 5 5 0 00-7-6 5 5 0 00-5 6zM229 24a6 6 0 006 6 6 6 0 100-12 6 6 0 00-6 6zM125 6a6 6 0 006 6 6 6 0 000-12 6 6 0 00-6 6zM50 6a6 6 0 106-6 6 6 0 00-6 6zM52 34a5 5 0 005 6 5 5 0 006-6 5 5 0 00-6-6 5 5 0 00-5 6zM146 68a5 5 0 004 7 5 5 0 006-6 6 6 0 00-6-6 6 6 0 00-4 5zM255 121a6 6 0 005 6 6 6 0 000-12 6 6 0 00-5 6z"/><circle cx="6" cy="6" r="6" transform="translate(672 135)"/><path d="M606 181a9 9 0 008 8 8 8 0 008-8 8 8 0 00-16 0zM374 144a8 8 0 008 9 8 8 0 009-9 9 9 0 00-9-8 8 8 0 00-8 8zM208 145a9 9 0 009 8 8 8 0 100-16 8 8 0 00-9 8zM693 256a9 9 0 008 9 9 9 0 009-9 9 9 0 00-9-8 8 8 0 00-8 8z"/></g><g transform="translate(-49 155)" opacity=".2"><path d="M203 48h36v-2h-35l-29-30h-65L97 4H42L8 37l2 1L42 6h55l12 12h65zM10 93h60l42-42h42l40 40h137l32-32h46v-2h-47l-32 32H195l-40-40h-44L69 91H10z"/><path d="M326 122h93l17-16h67v-2h-69l-16 16h-91l-56-56h-86l-39-39H43L25 43H8v2h18l18-18h102l38 39h86z"/><path d="M131 254h38l39-40h49l111-110h40v-2h-41L257 212h-50l-39 40h-37zM84 131h56l21-22h122v-4H160l-23 22H86L57 99H8v4h48z"/><path d="M181 172h88v-2h-87l-28-27H59l-17-18H4v2h36l18 18h95z"/><path d="M118 213h39l83-83h54l40 40h131l23 21h31v-4h-30l-22-22H336l-40-40h-57l-84 83h-35l-18-18H5v5h95z"/><path d="M169 202h143l66-66h77v-4h-79l-66 66H170l-30-31H8v4h130z"/><path d="M470 218h49v-3h-48l-32-32h-94v2h93zM40 307h167l47-47h86l33-34h34v-2h-34l-34 34h-86l-47 47H40l-29-30H0v2h10z"/><path d="M67 365h141l15-14h77l99-100h136l20 20 1-1-21-21H399L299 349h-77l-15 14H68l-11-11H2v2h54z"/><path d="M320 273h116v-2H321l-43-42H127l-48-49H4v3h74l48 48h152zM234 47a4 4 0 005 4 4 4 0 004-4 4 4 0 00-4-4 5 5 0 00-5 4z"/><circle cx="4.4" cy="4.4" r="4.4" transform="translate(404 54)"/><path d="M403 104a5 5 0 004 5 4 4 0 000-9 5 5 0 00-4 4zM514 217a4 4 0 104-5 4 4 0 00-4 5zM341 184a4 4 0 004 4 4 4 0 005-4 4 4 0 00-5-5 5 5 0 00-4 5zM402 225a4 4 0 105-5 5 5 0 00-5 5zM394 251a5 5 0 004 4 4 4 0 100-8 5 5 0 00-4 4zM204 213a5 5 0 004 4 4 4 0 100-9 5 5 0 00-4 5zM149 143a5 5 0 005 4 4 4 0 100-9 5 5 0 00-5 5zM326 90a5 5 0 004 5 4 4 0 000-9 5 5 0 00-4 4zM266 171a5 5 0 000 4 4 4 0 004-4 4 4 0 00-4-5 4 4 0 000 5zM249 259a5 5 0 004 4 4 4 0 005-4 4 4 0 00-5-5 4 4 0 00-4 5zM202 305a4 4 0 005 5 5 5 0 004-5 4 4 0 00-4-4 4 4 0 00-5 4zM552 271a4 4 0 104-5 5 5 0 00-4 5zM430 271a4 4 0 104-4 4 4 0 00-4 4zM129 252a5 5 0 005 4 4 4 0 004-4 4 4 0 00-4-5 4 4 0 00-5 5zM36 126a4 4 0 004 4 4 4 0 007-4 4 4 0 00-7-6 5 5 0 00-4 6zM274 230a5 5 0 004 4 4 4 0 004-4 4 4 0 00-4-5 4 4 0 00-4 5zM266 66a4 4 0 004 4 4 4 0 005-4 4 4 0 00-5-5 5 5 0 00-4 5zM170 17a4 4 0 104-4 4 4 0 00-4 4zM93 5a4 4 0 004 6 5 5 0 005-6 4 4 0 00-5-5 4 4 0 00-4 5zM37 5a5 5 0 005 6 4 4 0 005-6 4 4 0 00-5-5 4 4 0 00-5 5zM38 26a5 5 0 005 4 4 4 0 004-4 4 4 0 00-4-5 4 4 0 00-5 5zM107 51a4 4 0 005 4 5 5 0 004-4 4 4 0 00-4-5 4 4 0 00-5 5zM190 90a4 4 0 104-4 5 5 0 00-4 4z"/><circle cx="4.4" cy="4.4" r="4.4" transform="translate(497 101)"/><circle cx="6" cy="6" r="6" transform="translate(448 128)"/><path d="M277 107a6 6 0 106-6 6 6 0 00-6 6zM156 107a6 6 0 107-6 6 6 0 00-7 6zM513 190a6 6 0 007 6 6 6 0 000-12 6 6 0 00-7 6z"/></g><path d="M164 220h32v-2h-31l-25-26H83l-11-11H23l-29 29 1 1 29-28h47l11 11h57zM-4 259h52l36-36h38l34 34h120l28-27h40v-3h-41l-28 29H157l-35-35H84l-37 36H-4z"/><path d="M272 285h81l14-15h59v-2h-60l-14 15h-80l-49-49h-74l-34-34H24L9 215H-6v2h16l15-15h89l34 34h75z"/><path d="M101 399h33l35-34h43l96-96h35v-2h-36l-96 97h-43l-34 34h-33zM60 292h49l19-19h106v-4H127l-20 20H62l-25-25H-6v4h42z"/><path d="M145 328h77v-2h-76l-24-24H38l-15-15H-9v2h32l15 15h83z"/><path d="M90 364h34l73-73h47l35 35h114l20 19h27v-4h-26l-19-19H280l-35-35h-49l-73 73H92l-16-16H-8v4h83z"/><path d="M134 354h126l57-57h67v-4h-68l-58 57H136l-27-26H-6v3h113z"/><path d="M397 368h43v-2h-41l-29-29h-81v3h81zM22 446h146l41-41h75l29-29h30v-3h-31l-29 30h-74l-42 41H23l-27-26h-9v2h9z"/><path d="M46 497h123l13-12h67l87-88h118l17 17 1-1-18-18H335l-87 87h-67l-13 13H47l-10-9h-48v1h47z"/><path d="M267 416h100v-2H267l-36-37H98l-42-42H-9v2h64l42 42h132zM192 220a4 4 0 104-4 4 4 0 00-4 4zM340 229a4 4 0 104-4 4 4 0 00-4 4zM339 269a4 4 0 104-4 4 4 0 00-4 4zM436 367a4 4 0 104-4 4 4 0 00-4 4zM285 338a4 4 0 104-3 4 4 0 00-4 3zM338 374a4 4 0 104-4 4 4 0 00-4 4zM331 397a4 4 0 104-4 4 4 0 00-4 4z"/><path d="M165 364a4 4 0 104-4 4 4 0 00-4 4zM118 302a4 4 0 104-4 4 4 0 00-4 4zM272 256a4 4 0 104-3 4 4 0 00-4 3zM217 330a4 4 0 104-4 4 4 0 00-4 4zM205 404a4 4 0 104-4 4 4 0 00-4 4zM163 444a4 4 0 101-4 4 4 0 00-1 4zM469 414a4 4 0 104-3 4 4 0 00-4 3zM363 415a4 4 0 104-4 4 4 0 00-4 4zM100 398a4 4 0 004 3 4 4 0 100-7 4 4 0 00-4 4zM19 288a4 4 0 004 4 4 4 0 003-4 4 4 0 00-7 0zM226 378a4 4 0 104-3 4 4 0 00-4 3zM217 235a4 4 0 004 4 4 4 0 004-4 4 4 0 00-4-4 4 4 0 00-4 4zM135 193a4 4 0 104-3 4 4 0 00-4 3zM68 182a4 4 0 104-4 4 4 0 00-4 4zM20 182a4 4 0 104-4 4 4 0 00-4 4zM21 200a4 4 0 003 4 4 4 0 100-8 4 4 0 00-3 4zM81 220a4 4 0 103-4 4 4 0 00-3 4zM153 256a4 4 0 104-3 4 4 0 00-4 3zM421 269a4 4 0 104-3 4 4 0 00-4 3zM378 295a5 5 0 106-6 5 5 0 00-6 6zM228 272a5 5 0 006 5 5 5 0 005-5 5 5 0 00-5-6 5 5 0 00-6 6zM122 272a5 5 0 005 5 5 5 0 006-5 6 6 0 00-6-6 5 5 0 00-5 6zM436 343a5 5 0 006 6 5 5 0 005-6 5 5 0 00-5-5 5 5 0 00-6 5z"/></g><g transform="translate(655 325)" clip-path="url(#e)" fill="#07418b" opacity=".8"><g transform="translate(98 91)" opacity=".1"><path d="M484 65h-48v-3h47l39-41h88l16-16h77l44 45-2 1-44-43h-73l-17 17h-88zM745 126h-81l-56-57h-58l-53 54H311l-43-43h-62v-3h63l43 43h183l54-54h60l56 57h80z"/><path d="M318 165H192l-22-22H79v-3h92l22 22h124l75-76h116l53-52h140l23 23h23v3h-24l-24-23H562l-53 52H394z"/><path d="M582 343h-52l-52-53h-68L262 141h-55v-3h56l148 149h68l53 53h50zM645 177h-75l-30-30H375v-6h168l30 30h70l38-38h66v6h-64z"/><path d="M514 233H396v-3h117l37-37h129l24-24h49v3h-48l-24 24H552z"/><path d="M599 287h-53L434 175h-73l-54 54H130l-30 30H57v-6h40l30-30h177l54-54h78l112 112h48l24-24h131v6H623z"/><path d="M531 273H336l-89-89H144v-6h106l89 89h189l42-42h177v6H572z"/><path d="M123 294H57v-3h64l44-44h127v3H167zM705 415H479l-64-64H299l-45-46h-46v-2h47l45 45h116l64 64h224l40-40h14v3h-13z"/><path d="M667 494H477l-20-20H353L218 339H36L9 366l-2-2 27-28h185l136 135h103l20 20h188l15-15h75v3h-74z"/><path d="M326 369H170v-4h154l58-56h205l65-66h100v3h-99l-65 65H383zM442 63a5 5 0 01-6 6 6 6 0 110-12 5 5 0 016 6zM212 79a5 5 0 01-6 6 6 6 0 010-12 5 5 0 016 6zM214 141a6 6 0 11-6-6 6 6 0 016 6zM66 294a6 6 0 11-6-6 6 6 0 016 6zM298 248a6 6 0 11-6-6 6 6 0 016 6zM215 304a6 6 0 11-6-6 6 6 0 016 6zM226 339a6 6 0 11-6-6 6 6 0 016 6z"/><path d="M483 287a6 6 0 11-6-6 6 6 0 016 6zM558 193a6 6 0 11-6-6 6 6 0 016 6zM317 121a6 6 0 11-6-6 6 6 0 016 6zM402 230a5 5 0 01-6 6 5 5 0 01-6-6 6 6 0 016-6 6 6 0 016 6zM422 349a6 6 0 11-6-6 6 6 0 016 6z"/><circle cx="6" cy="6" r="6" transform="translate(473 406)"/><circle cx="6" cy="6" r="6" transform="translate(0 359)"/><path d="M175 367a5 5 0 01-5 6 6 6 0 110-12 5 5 0 015 6zM584 340a6 6 0 11-6-6 6 6 0 016 6zM710 170a5 5 0 01-6 6 5 5 0 01-6-6 5 5 0 016-6 6 6 0 016 6zM388 310a6 6 0 11-6-6 6 6 0 016 6zM399 88a6 6 0 01-6 6 6 6 0 01-6-6 5 5 0 016-6 5 5 0 016 6zM529 24a5 5 0 01-5 6 6 6 0 010-12 5 5 0 015 6zM633 6a6 6 0 11-6-6 6 6 0 016 6zM708 6a6 6 0 11-6-6 6 6 0 016 6z"/><circle cx="6" cy="6" r="6" transform="translate(694 28)"/><path d="M613 68a6 6 0 11-6-6 6 6 0 016 6z"/><circle cx="6" cy="6" r="6" transform="translate(490 115)"/><circle cx="6" cy="6" r="6" transform="translate(74 135)"/><circle cx="8.2" cy="8.2" r="8.2" transform="translate(136 172)"/><path d="M385 144a8 8 0 01-9 9 8 8 0 01-8-9 9 9 0 018-8 8 8 0 019 8zM550 145a8 8 0 01-8 8 9 9 0 01-9-8 8 8 0 019-8 8 8 0 018 8zM66 256a9 9 0 01-9 9 9 9 0 01-8-9 9 9 0 018-8 8 8 0 019 8z"/></g><g transform="translate(197 155)" opacity=".2"><path d="M357 48h-35v-2h35l29-30h65l12-13h56l34 34-2 1-32-32h-55l-13 12h-64zM550 93h-59l-42-42h-42l-40 40H230l-32-32h-46v-3h47l31 33h136l40-40h44l42 42h58z"/><path d="M235 122h-93l-17-16H58v-2h68l17 16h91l56-56h85l40-39h103l17 17h18v2h-18l-18-17H415l-39 39h-85z"/><path d="M430 253h-38l-39-39h-50L193 104h-40v-2h41l110 110h50l39 39h37zM477 131h-56l-22-22H277v-4h124l22 22h52l28-28h50v4h-48z"/><path d="M380 172h-88v-2h87l28-28h95l17-17h37v2h-36l-17 18h-95z"/><path d="M443 212h-39l-83-83h-55l-39 40H96l-23 22H42v-4h30l22-22h131l40-40h57l83 83h35l19-18h96v4h-95z"/><path d="M392 202H248l-65-66h-77v-5h78l67 67h140l30-32h132v5H423z"/><path d="M91 217H42v-2h48l32-33h94v3h-93zM521 307H353l-47-48h-85l-33-33h-35v-2h35l34 33h85l48 48h165l30-30h11v2h-10z"/><path d="M493 365H352l-14-14h-77L161 251H26L6 271l-1-2 20-20h137l100 100h77l14 14h139l11-11h56v2h-55z"/><path d="M241 273H125v-3h115l42-42h152l48-48h74v2h-73l-48 48H283zM327 47a4 4 0 01-5 4 4 4 0 01-4-4 4 4 0 014-5 5 5 0 015 5z"/><circle cx="4.4" cy="4.4" r="4.4" transform="translate(148 54)"/><path d="M158 104a5 5 0 01-4 4 4 4 0 110-8 5 5 0 014 4zM47 216a4 4 0 01-4 5 5 5 0 01-5-5 4 4 0 015-4 4 4 0 014 4zM220 183a4 4 0 01-4 5 4 4 0 01-5-5 4 4 0 015-4 5 5 0 014 4zM159 224a4 4 0 11-5-4 5 5 0 015 4zM167 251a5 5 0 01-4 4 4 4 0 110-9 5 5 0 014 5zM357 212a5 5 0 01-5 5 4 4 0 110-9 5 5 0 015 4zM411 142a5 5 0 01-4 5 4 4 0 110-9 5 5 0 014 4zM235 90a5 5 0 01-5 4 4 4 0 110-9 5 5 0 015 5zM295 170a5 5 0 010 5 4 4 0 01-4-5 4 4 0 014-4 4 4 0 010 4zM312 258a5 5 0 01-4 5 4 4 0 01-5-5 4 4 0 015-4 4 4 0 014 4zM358 305a4 4 0 01-4 4 5 5 0 01-4-4 4 4 0 014-4 4 4 0 014 4zM9 270a4 4 0 11-5-4 5 5 0 015 4zM131 271a4 4 0 11-5-4 4 4 0 015 4zM432 251a5 5 0 01-5 5 4 4 0 01-4-5 4 4 0 014-4 4 4 0 015 4zM525 125a4 4 0 11-5-4 4 4 0 015 4zM287 229a5 5 0 01-4 5 4 4 0 01-4-5 4 4 0 014-4 4 4 0 014 4zM295 65a4 4 0 11-4-4 4 4 0 014 4zM391 17a4 4 0 11-4-4 4 4 0 014 4zM468 5a5 5 0 01-5 4 5 5 0 01-4-4 4 4 0 014-5 4 4 0 015 5zM524 5a5 5 0 01-5 6 4 4 0 01-5-6 4 4 0 014-5 4 4 0 016 5zM523 25a5 5 0 01-5 5 4 4 0 01-4-5 4 4 0 014-4 4 4 0 015 4zM454 50a4 4 0 01-5 5 5 5 0 01-4-5 4 4 0 014-4 4 4 0 015 4zM371 90a4 4 0 11-4-5 5 5 0 014 5zM63 105a4 4 0 11-4-5 4 4 0 014 5zM113 134a6 6 0 11-6-6 6 6 0 016 6zM284 107a6 6 0 11-6-6 6 6 0 016 6zM404 107a6 6 0 11-6-6 6 6 0 016 6zM48 189a6 6 0 01-7 6 6 6 0 110-12 6 6 0 017 6z"/></g><path d="M545 220h-31v-2h30l26-26h56l11-11h49l29 29-1 1-29-28h-47l-11 11h-57zM713 259h-52l-36-36h-37l-35 34H434l-29-27h-39v-3h40l28 29h118l35-35h39l36 36h51z"/><path d="M438 285h-82l-14-15h-59v-2h60l14 15h80l49-49h74l34-34h91l15 15h15v2h-16l-15-15h-89l-33 34h-75z"/><path d="M608 399h-33l-34-34h-43l-97-96h-35v-2h36l96 97h44l34 34h32zM649 292h-49l-19-19H475v-4h108l20 20h44l25-25h43v4h-41z"/><path d="M564 328h-76v-2h76l24-24h83l15-15h33v2h-32l-15 15h-84z"/><path d="M619 364h-34l-73-73h-47l-34 35H316l-19 19h-28v-4h26l20-19h114l35-35h50l73 73h30l16-16h84v4h-82z"/><path d="M575 354H450l-58-57h-67v-4h69l57 57h123l26-26h115v3H602z"/><path d="M312 368h-43v-2h42l28-29h82v3h-81zM687 446H541l-41-41h-74l-30-29h-29v-3h30l29 30h75l41 41h145l26-26h9v2h-8z"/><path d="M663 497H540l-12-12h-67l-88-88H256l-18 17-1-1 18-18h119l87 87h67l13 13h121l10-9h48v1h-47z"/><path d="M443 416H342v-2h100l37-37h132l42-42h66v2h-64l-43 42H480zM518 220a4 4 0 11-4-4 4 4 0 014 4zM369 229a4 4 0 11-3-4 4 4 0 013 4zM371 269a4 4 0 11-4-4 4 4 0 014 4zM273 367a4 4 0 11-4-4 4 4 0 014 4zM425 338a4 4 0 11-4-3 4 4 0 014 3zM371 374a4 4 0 11-4-4 4 4 0 014 4zM378 397a4 4 0 11-4-4 4 4 0 014 4z"/><path d="M547 364a4 4 0 11-4-4 4 4 0 014 4zM592 302a4 4 0 11-4-4 4 4 0 014 4zM437 256a4 4 0 11-3-3 4 4 0 013 3zM492 330a4 4 0 11-4-4 4 4 0 014 4zM505 404a4 4 0 11-4-4 4 4 0 014 4zM547 444a4 4 0 11-4-4 4 4 0 014 4zM240 414a4 4 0 11-3-3 4 4 0 013 3zM347 415a4 4 0 11-4-4 4 4 0 014 4zM610 398a4 4 0 01-4 3 4 4 0 010-7 4 4 0 014 4zM691 288a4 4 0 11-4-4 4 4 0 014 4zM483 378a4 4 0 11-4-3 4 4 0 014 3zM492 235a4 4 0 11-4-4 4 4 0 014 4zM574 193a4 4 0 11-4-3 4 4 0 014 3zM641 182a4 4 0 11-3-4 4 4 0 013 4zM690 182a4 4 0 11-4-4 4 4 0 014 4zM689 200a4 4 0 01-4 4 4 4 0 010-8 4 4 0 014 4zM629 220a4 4 0 11-4-4 4 4 0 014 4zM557 256a4 4 0 11-4-3 4 4 0 014 3zM288 269a4 4 0 11-4-3 4 4 0 014 3zM331 295a5 5 0 11-5-6 5 5 0 015 6zM481 272a5 5 0 01-5 5 5 5 0 01-6-5 5 5 0 016-6 5 5 0 015 6zM588 272a5 5 0 01-6 5 5 5 0 01-5-5 6 6 0 015-6 5 5 0 016 6zM273 343a5 5 0 01-5 6 5 5 0 01-6-6 5 5 0 016-5 5 5 0 015 5z"/></g></svg>