<svg xmlns="http://www.w3.org/2000/svg" viewBox="0 0 48 48"><linearGradient id="a" x1="24" x2="24" y1="-3.6" y2="12.9" gradientUnits="userSpaceOnUse"><stop offset="0" stop-color="#f44f5a"/><stop offset=".4" stop-color="#ee3d4a"/><stop offset="1" stop-color="#e52030"/></linearGradient><path fill="url(#a)" d="M24 4c-4 0-4 2-8 2 0 3 2 2 2 6h12c0-4 2-3 2-6-4 0-4-2-8-2z"/><linearGradient id="b" x1=".9" x2="39.2" y1="5.8" y2="44" gradientUnits="userSpaceOnUse"><stop offset="0" stop-color="#f44f5a"/><stop offset=".4" stop-color="#ee3d4a"/><stop offset="1" stop-color="#e52030"/></linearGradient><path fill="url(#b)" d="M41 31c0 9.4-7.6 10-17 10S7 40.4 7 31s7.6-20 17-20 17 10.6 17 20z"/><path fill="none" stroke="#8f979e" stroke-linecap="round" stroke-linejoin="round" stroke-width="2" d="M18 12h12"/><path d="M26.2 37c-.3 0-.7-.1-1-.3L18.6 31c-.3-.3-.5-.8-.5-1.2v-1.4c0-.8.7-1.5 1.5-1.5h.2c-.9 0-1.5-.7-1.5-1.5v-1c0-.8.6-1.5 1.5-1.5h-.2c-.8 0-1.5-.7-1.5-1.5v-1c0-.8.7-1.5 1.5-1.5h11c.8 0 1.5.7 1.5 1.5v1c0 .8-.7 1.5-1.5 1.5.8 0 1.5.7 1.5 1.5v1c0 .8-.7 1.5-1.5 1.5h-2.3c-.6 1.7-2.1 3-3.9 3.7l4.4 3.6c.5.5.7 1.1.5 1.7-.2.6-.8 1-1.4 1h-1.6z" opacity=".1"/><path d="M26.2 36.5a1 1 0 01-.6-.2l-6.7-5.6a1 1 0 01-.4-.8v-1.4c0-.6.4-1 1-1h2.9c.7 0 1.6-.3 2.2-1h-5a1 1 0 01-1-1v-1c0-.6.5-1 1-1h5c-.6-.7-1.5-1-2.2-1h-2.9a1 1 0 01-1-1v-1c0-.6.4-1 1-1h11c.6 0 1 .4 1 1v1c0 .6-.4 1-1 1h-3l.3 1h2.7c.6 0 1 .4 1 1v1c0 .6-.4 1-1 1h-2.7c-.6 2-2.4 3.5-4.6 4l5.2 4.2c.3.3.5.7.3 1.1a1 1 0 01-1 .7h-1.5z" opacity=".1"/><path fill="#fff" d="M30.5 22c.3 0 .5-.2.5-.5v-1c0-.3-.2-.5-.5-.5h-11c-.3 0-.5.2-.5.5v1c0 .3.2.5.5.5h2.9c1.1 0 2.6.7 3.1 2h-5.8c-.3 0-.5.2-.5.5v1c0 .3.2.5.5.5h5.8c-.5 1.3-2 2-3.1 2h-2.9c-.3 0-.5.2-.5.5v1.4c0 .1 0 .3.2.4l6.7 5.6.3.1h1.6c.4 0 .7-.6.3-.9L22 30h.2c2.3 0 4.7-1.6 5.3-4h3c.3 0 .5-.2.5-.5v-1c0-.3-.2-.5-.5-.5h-3c-.2-.8-.6-1.4-1-2h4z"/></svg>