<svg xmlns="http://www.w3.org/2000/svg" width="907.5" height="637.1"><g transform="translate(-24.6 -34.6)"><path d="M114.7 641.5c-63.9-69.6-96.1-144-72.5-254.8 15.7-73.2 65.7-82 111.6-126 22.7-21.7 8.4-53.3 8-84.7-1-80.3 88.7-142.7 171.2-141.4 89.3 1.4 128 91.2 202.9 96 29.4.5 55.7-16.8 81.8-30.5 77-40.7 199.5-14.7 205.6 83.5 1.6 53.1-39 113.6 21.5 141.5 48.2 22.3 77.2 55.4 86 135 11.3 104-48.9 161.2-127.2 188z" fill="#e3eaff"/><path d="M877.3 507.8s2.4 13.7-14.8 30.7a71.8 71.8 0 00-20.7 32.5l-12.2 4.7s6-22.7 20.7-36c18.5-16.5 27-31.9 27-31.9zM902.9 524s-1.6 10-17.6 19.4c-16.4 9.4-22.2 19.8-22.2 19.8l-10 3.5s10-17.4 23.4-24.4c16.8-8.8 26.4-18.3 26.4-18.3zM849.3 522.5s-10.6 3-24.4 25c-11.3 18-10.4 29.9-17.4 40.9l16.6-8.8c3.8-8.2.3-15.8 9.7-32.6a222 222 0 0115.5-24.5zM747.4 568.2s-7.2 8.4-6.3 34.4c.7 21.3 9.5 27.2 9.9 32.2l7.5-8c-2.6-9.2-8.8-10.4-10.4-29.6a225 225 0 01-.7-29zM824.2 530.5s-11.8 15-17 25.3c-7.3 14.6-4 25-10.5 40.5l-12.1 7.3s-1.7-19.2 8.1-37c16.4-29.7 31.5-36 31.5-36zM792 528.2a109.3 109.3 0 01-9.8 30.2c-14.6 28.8-6.7 57.3-6.7 57.3l-8.5 3.8s-13.9-22.8-1-46.7c13.8-25.1 26-44.6 26-44.6zM822.7 581.5s8 0 36.3 14.3c18.1 9.1 15.1 0 31.1 11.8-14-3.7-22.2 4.6-39.5-2.9a289.7 289.7 0 00-42.9-14.8z" fill="#a9b9eb"/><path d="M873.3 621.1s-16.8 10.6-42.4-.6a157 157 0 00-49.7-12.5l12.6-10.4s13.7-4 39.2 10.1a143.2 143.2 0 0040.3 13.4zM848.8 640.6s-16.8 10.5-42.4-.7a157 157 0 00-49.7-12.5l12.6-10.4s13.7-4 39.2 10.1a142.8 142.8 0 0040.3 13.5zM909 579.6s-11.1 4.6-27-3a87 87 0 00-29.8-8.6l6.5-3.3s8.6-2.5 24.8 6.5c11 6.1 25.5 8.4 25.5 8.4zM842.2 573.6a198.5 198.5 0 0131.8 11.7c11.6 5.2 30.2 3.7 30.2 3.7s-18.4 12.8-35.4 3.8C849.3 582.5 828 578 828 578z" fill="#a9b9eb"/><path d="M856.7 566.3s16.7-13 36-10a103.6 103.6 0 0034.3-.6s-16.1 13.8-33.5 9.1c-16-4.3-30.4 2.2-30.4 2.2z" fill="#a9b9eb"/><path d="M752.3 635.6l-2.3-2.1c13-14.2 63.6-57.4 112.8-70.4l.8 3C815 579 765 621.5 752.3 635.6zM777.1 549.2q-13.2-17.8-3.5-45.8 13.8 26.2 3.5 45.8zM789.3 523.3q-9.4-17.8 3.2-41.7 8.8 25.5-3.2 41.7zM802.7 497.8q-6.4-18.1 8.8-38.9 4.8 25.3-8.8 38.9zM832.9 444.7q-.6 21.7-14.2 30.6-2-16.2 14.2-30.6zM851.9 439.6q-3.7 17.8-16.2 23 .7-13.5 16.2-23z" fill="#a9b9eb"/><path d="M845.2 463.6q5.4-12.5 23.3-15.8-9.8 15.3-23.3 15.8zM822.9 532q-19.5 22.7-41.7 20.2 11.8-19 41.7-20.3zM804.3 507.4q14.4-11.4 37.8-4-21.3 12-37.8 4zM849.2 487.4q-18.6 10.5-32.9 3.5 12.5-9.9 32.9-3.5zM831.6 476.7q12.5-9.8 32.8-3.5-18.5 10.5-32.8 3.5z" fill="#a9b9eb"/><path d="M771.4 578.3c9.1-34.1 10-31.3 18.9-51q3.6-8 7.6-15.2a154.8 154.8 0 0119.8-27q13-14.7 22.4-19.2l.6-.6a.6.6 0 01.6-.4 1 1 0 01.8 0 1.8 1.8 0 01.4.7 1 1 0 010 .8l-.2.5a2.1 2.1 0 01-.7.4v.2l-.6.2q-9 4.6-21.6 18.8a151.8 151.8 0 00-19.4 26.9 162.4 162.4 0 00-7.7 14.8l-.6 1.3q13-15.3 40-12.6-20.4 17.7-40 12.6c-8.6 19.4-9.2 16-18 49.3zM415.8 612.1q-21 7.1-44.8-10.7 29.3-5 44.8 10.7zM395 592.6q-20 3.5-38.9-15.9 27-.5 38.8 15.9zM374.7 572q-19.2.5-34.2-20.3 25.5 3.2 34.2 20.3zM333.4 527q20.5 7.1 24.8 22.8-16-3-24.8-22.8zM334.5 507.3q15.8 9 17 22.5-12.7-4.8-17-22.5z" fill="#a9b9eb"/><path d="M355.2 521q-10.1-9-7.8-27 11.6 14 7.8 27zM413.4 563.3q15.6 25.5 6.5 46-14.4-17.1-6.5-46zM384.3 573.4q-6.3-17.2 7.8-37.2 5 24-7.8 37.2zM379.1 524.6q4.3 20.8-6.8 32.3-5.5-15 6.8-32.3zM363.5 538q-5.5-14.9 6.8-32.3 4.3 20.9-6.8 32.4z" fill="#a9b9eb"/><path d="M441.7 626.6C412 607.4 415 607.4 399 592.9q-6.5-5.9-12.1-11.9a154.8 154.8 0 01-19.6-27.2q-10-16.9-11.4-27.2l-.5-.7a.6.6 0 010-.7 1 1 0 01.2-.7 1.8 1.8 0 01.7-.3 1 1 0 01.8.3l.4.4a2 2 0 01.2.7h.1v.7q1.6 10 11.3 26.4a151.6 151.6 0 0019.6 26.7 162.7 162.7 0 0011.7 11.8l1.1 1q-10.6-17.1.3-41.8 10.6 24.8-.3 41.8c15.8 14.2 12.4 13.7 41.4 32.4zM569.4 502.6s2.8 11.5-10.9 26.7a60.9 60.9 0 00-15.7 28.6l-10 4.7s3.7-19.6 15.5-31.6c14.7-15 21.1-28.4 21.1-28.4zM592 514.8s-1 8.7-14 17.4a51.5 51.5 0 00-17.6 18l-8.3 3.4s7.4-15.2 18.4-21.8a100 100 0 0021.4-17zM546.5 516.5s-8.8 3.1-19.3 22.5c-8.5 15.9-7.1 25.8-12.4 35.5l13.5-8.3c2.7-7.2-.6-13.4 6.4-28.1a189 189 0 0111.8-21.6zM462.8 560.7s-5.6 7.5-3.5 29.5c1.8 17.9 9.6 22.4 10.2 26.6l6-7.2c-2.8-7.6-8.1-8.2-10.5-24.4a190 190 0 01-2.2-24.5zM525.7 524.7s-9.2 13.2-13 22.2c-5.3 12.8-2.1 21.4-6.7 34.9l-9.8 6.8s-2.4-16.1 4.9-31.7c12.2-26 24.6-32.2 24.6-32.2zM498.4 524.4a92.6 92.6 0 01-6.7 26.1c-10.8 25.2-2.6 48.9-2.6 48.9l-6.9 3.6s-13-18.5-3.3-39.4c10.2-22 19.5-39.2 19.5-39.2zM527.3 567.9s6.7-.5 31.4 10c15.8 6.8 12.8-.8 27 8.3-12.1-2.3-18.6 5.2-33.7-.2a245.3 245.3 0 00-37-10.2z" fill="#a9b9eb"/><path d="M572.2 598.6s-13.7 9.8-36 1.7a133 133 0 00-42.6-7.8l10-9.5s11.4-4.2 33.8 6.5c15.3 7.3 34.8 9.1 34.8 9.1zM552.5 616.4s-13.6 9.8-35.9 1.7a132.9 132.9 0 00-42.7-7.8l10.1-9.5s11.3-4.2 33.7 6.4c15.3 7.3 34.8 9.2 34.8 9.2zM600 561.6s-9 4.5-23-1.1a73.6 73.6 0 00-25.6-5.7l5.3-3s7.2-2.7 21.3 4c9.7 4.6 22 5.8 22 5.8zM543.3 560a168.2 168.2 0 0127.5 8.2c10.1 3.9 25.7 1.5 25.7 1.5s-14.8 11.9-29.7 5.2a148.3 148.3 0 00-35.3-10.3z" fill="#a9b9eb"/><path d="M555.2 553.1s13.4-12 29.8-10.4a87.7 87.7 0 0029-2.4s-12.9 12.6-27.8 9.6c-13.8-2.8-25.6 3.5-25.6 3.5z" fill="#a9b9eb"/><path d="M470.7 617.4l-2.1-1.6c10.1-12.8 50.7-52 91.5-65.7l.8 2.5c-40.2 13.5-80.2 52.2-90.2 64.8zM74.7 504.6s-3.8 12 9.4 29.2c13.5 17.5 14.4 31.4 14.4 31.4l10.3 5.7s-2.5-21-14-34.5c-14.4-17-20-31.8-20-31.8zM50 515.8s.2 9.2 13.3 19.5c13.3 10.4 17.2 20.3 17.2 20.3L89 560s-6.7-16.7-17.8-24.6C57.4 525.5 50 515.8 50 515.8zM97.8 521.2s9 4 18.7 25.3c7.8 17.4 5.5 27.8 10.3 38.5l-13.7-9.9c-2.2-7.8 1.8-14-4.5-30.2a200.1 200.1 0 00-10.8-23.7zM182.8 574.5s5.4 8.4 1.4 31.4c-3.3 18.9-12 23-12.9 27.4l-5.6-8c3.4-7.9 9-8.2 12.9-25a201.5 201.5 0 004.2-25.8zM119.2 531.5s8.6 14.7 12 24.5c4.6 14 .5 22.8 4.3 37.4l9.8 8s3.9-16.9-2.6-33.9c-10.9-28.5-23.5-36-23.5-36zM148 533.3a98.2 98.2 0 005.1 28.2 78.2 78.2 0 01-1.1 51.8l7 4.4s15.2-18.5 6.7-41.4c-9.1-24-17.6-43-17.6-43zM114.1 577s-7-1-34 8.2c-17.3 5.9-13.5-2-29.2 6.6 13-1.5 19.2 6.9 35.6 2.3a260.3 260.3 0 0140-7.8z" fill="#a9b9eb"/><path d="M64.2 606s13.7 11.4 37.8 4.6a141 141 0 0145.8-4.9l-10-10.8s-11.6-5.3-36 4.1c-16.9 6.5-37.6 7-37.6 7zM83.6 626.3s13.6 11.4 37.8 4.6a140.9 140.9 0 0145.8-4.9l-10-10.8s-11.6-5.3-36 4.2c-16.9 6.4-37.6 6.9-37.6 6.9zM37.7 564.6s9.2 5.5 24.4.6a78 78 0 0127.5-3.9l-5.3-3.7s-7.4-3.4-22.9 2.6c-10.6 4.1-23.7 4.4-23.7 4.4zM97.8 567.5a178.4 178.4 0 00-29.7 6.4c-11 3.3-27.3-.4-27.3-.4s14.7 13.7 31 7.8c18.6-6.8 38.1-8 38.1-8z" fill="#a9b9eb"/><path d="M85.8 559.2s-13.2-13.7-30.7-13.4a93 93 0 01-30.5-4.8s12.6 14.4 28.6 12.3a45.2 45.2 0 0126.9 5.7z" fill="#a9b9eb"/><path d="M170 633.8l2.4-1.5c-9.8-14.3-49.5-59-91.6-76.7l-1 2.6c41.5 17.5 80.7 61.6 90.2 75.6z" fill="#a9b9eb"/><path d="M305.5 118.8a17.9 17.9 0 0111-3.5c9.4 0 14.3 5 14.3 12.2 0 4.1-2 8.3-6 12.5-5.2 5.4-8.9 8-11.2 8a3.9 3.9 0 01-3.9-3.8c0-2 1.8-3.9 4.9-6.7a3.1 3.1 0 01.5-.5c3.5-3.2 4.6-5 4.6-7.2 0-2.7-1.8-4.2-4.5-4.2a14.7 14.7 0 00-4.4.8 14.3 14.3 0 01-3.7.8 4.3 4.3 0 01-4.1-4.3c0-1.5.8-2.9 2.5-4zm9.4 45.7a6.8 6.8 0 01-7-7 6.7 6.7 0 017-6.4 6.6 6.6 0 016.4 6.4c0 3.8-2.7 7-6.4 7zM774 301a14 14 0 018.6-2.8c7.3 0 11.2 4 11.2 9.6 0 3.2-1.6 6.5-4.7 9.8-4 4.2-7 6.3-8.8 6.3a3 3 0 01-3-3c0-1.6 1.3-3 3.8-5.3a2.2 2.2 0 01.4-.3c2.7-2.6 3.6-4 3.6-5.7 0-2.1-1.5-3.3-3.6-3.3a11.6 11.6 0 00-3.4.6 11 11 0 01-3 .7 3.4 3.4 0 01-3.1-3.5 4 4 0 012-3.1zm7.3 35.8a5.3 5.3 0 01-5.5-5.5 5.3 5.3 0 015.5-5 5.1 5.1 0 015 5 5.2 5.2 0 01-5 5.5z" fill="#fff"/><path d="M657.1 341h-112a3.6 3.6 0 01-3.5-3.5V241a3.6 3.6 0 017.1 0v92.8h108.4a3.6 3.6 0 010 7.2z" fill="#cdd8fa"/><path d="M553.6 317.5a3.6 3.6 0 01-2.6-6l36.2-37.5a3.6 3.6 0 014.5-.5l17.2 11 18-20.9a3.6 3.6 0 015.4 4.7l-20 23.3a3.6 3.6 0 01-4.7.7L590.3 281l-34.1 35.3a3.6 3.6 0 01-2.6 1.1z" fill="#f5a3b7"/><path d="M632.4 279l-5-10.4-11-3.5 24.4-12.1z" fill="#f5a3b7"/><path d="M228.8 169.8a19.8 19.8 0 1119.8-19.7 19.8 19.8 0 01-19.8 19.7zm0-34a14.3 14.3 0 1014.3 14.3 14.3 14.3 0 00-14.3-14.3zM874.8 408.4a17 17 0 1117-17 17 17 0 01-17 17zm0-29.4a12.4 12.4 0 1012.4 12.4 12.4 12.4 0 00-12.4-12.4zM71.8 406.4a13 13 0 1113-13 13 13 0 01-13 13zm0-22.4z" fill="#fff"/><path d="M843 305.7a9 9 0 119-9 9 9 0 01-9 9zm0-15.5a6.5 6.5 0 106.5 6.5 6.5 6.5 0 00-6.5-6.5z" fill="#e3eaff"/><circle cx="13.9" cy="13.9" r="13.9" transform="rotate(-22.5 650.5 -175.5)" fill="#e3eaff"/><path d="M580.2 101.3a13.9 13.9 0 11-13.9-13.9 13.9 13.9 0 0114 14z" fill="#e3eaff"/><path d="M693.9 246.5a9 9 0 11-9-9 9 9 0 019 9zM903.7 431.5a9 9 0 11-9-9 9 9 0 019 9z" fill="#fff"/><path d="M845.7 269.3a13.9 13.9 0 11-13.9-14 13.9 13.9 0 0114 14z" fill="#e3eaff"/><path d="M273 118.6a11.3 11.3 0 11-11.2-11.2 11.3 11.3 0 0111.3 11.2zM371.8 364a11.3 11.3 0 11-11.3-11.3 11.3 11.3 0 0111.3 11.2z" fill="#fff"/><ellipse cx="379.4" cy="31.2" rx="379.4" ry="31.2" transform="translate(105.1 609.3)" fill="#95a6db"/><path d="M287.3 643.3H274l34.7-155.7 12.6 2.6zM607 643.3h13.2l-34.7-155.7-12.6 2.6z" fill="#617ac9"/><path d="M526.7 618.1a4.6 4.6 0 01-4.7-4.6v-83.3h9.3v83.3a4.6 4.6 0 01-4.6 4.6zM414.8 618.1a4.6 4.6 0 01-4.6-4.6v-83.3h9.3v83.3a4.6 4.6 0 01-4.7 4.6z" fill="#0e6a41"/><rect width="139.2" height="16.4" rx="8.2" transform="translate(400.2 514)" fill="#3f964f"/><path d="M511.7 376.8c8.5 2.5 41.2 37.5 49 63.4-4.2 23.4-41.2 35.5-41.2 35.5l-.6-18.1s12.1-8 17.7-17.4c-8.9-6.3-26.3-27.8-26.3-27.8zM430.2 376.8c-8.5 2.5-29.5 36.2-38.1 66.6a352.8 352.8 0 00-40.3 30.8l21 1.4s27.5-6.8 42-22.6c6.1-12.4 17-40.6 17-40.6z" fill="#201d40"/><path d="M484.8 370.3l-28.6 1.3-2.9 28 3.2 79.7 30-.4 8-89.3z" fill="#95a6db"/><path d="M450.8 328c4-4.5 7.1 0 12.8-5.7s10.2-9.7 15-3.8 7.4 6.8 11 6.5 3.5 14.2 3.5 14.2a13.3 13.3 0 009.3-12c.8-11.4-4.5-9.7-7.3-18.8s-14-14.2-19-12c-5.3 2.3-8.1 4.8-15.9 3s-14.4.3-14.4 10.4-11.8 7-8 19.6c1.4 4.9 5.5 9.4 7.5 9 2.5-.5 3-7.4 5.5-10.3z" fill="#2c2858"/><path d="M490.9 337.8c-2 3.7-1.4 8.2 1.2 10.2s6.2.5 8.1-3.2 1.4-8.2-1.2-10.1-6.2-.6-8.1 3.1z" fill="#f37a50"/><path d="M494.3 346.1a.5.5 0 00.2 0 1 1 0 00.6-1c-.4-2.4-.2-4.2.6-5.1a3.1 3.1 0 012.8-.9.8.8 0 00.9-.7.9.9 0 00-.5-1 4.3 4.3 0 00-4.2 1.4c-1.2 1.4-1.5 3.6-1 6.7a.7.7 0 00.6.6zM460.9 377.3l10 8 10-8 1.4-19.2h-22.7z" fill="#de623c"/><path d="M430 376.8l.4 102.5c9.8 8 28.8 10.1 28.8 10.1l-3.4-116zM512.6 376.8l-.5 102.5c-9.7 8-28 10.3-28 10.3l2.7-116.2z" fill="#2c2858"/><path d="M441.8 389.9l16.4 70.8-2.5-88.5zM501.6 385l-16.8 76.5 2-88z" fill="#494c7f"/><path d="M470.5 308.9c-29.3-.7-22.6 38.7-20.5 45 1.2 3.3 8.7 16.3 20.6 16.5 12-.2 19.2-13.2 20.4-16.6 2.1-6.2 9.8-44.5-20.5-45z" fill="#f37a50"/><path d="M465.4 337a1.3 1.3 0 00.6-.8 1.4 1.4 0 00-.8-1.7 11.7 11.7 0 00-10 1.6 1.4 1.4 0 101.6 2.2 9 9 0 017.5-1.2 1.3 1.3 0 001-.1zM478.3 337a1.3 1.3 0 01-.6-.8 1.4 1.4 0 01.9-1.7 11.7 11.7 0 019.9 1.6 1.4 1.4 0 01-1.6 2.2 9 9 0 00-7.5-1.2 1.3 1.3 0 01-1-.1z" fill="#2c2858"/><path d="M483.8 341.3a2.4 2.4 0 11-2.4-2.4 2.4 2.4 0 012.4 2.4zM463.8 341a2.4 2.4 0 11-2.4-2.4 2.4 2.4 0 012.4 2.4z"/><path d="M472 342.8l3.4 7.3a5.5 5.5 0 01-5.8 2.5c1.9-.5 3.8-1.4 3.4-4l-1-5.8z" fill="#de623c"/><path d="M473.4 392.5l5 67.3-7.5 8.9-7.5-8.9 5.2-67z" fill="#201d40"/><path d="M476.2 385.3l-5-1.3-5.1 1.5 2.5 7.3h4.9z" fill="#201d40"/><path d="M471 384a25 25 0 01-9.2 7.6l-9.9-15 4.3-5zM471 384s4.7 5.6 9.4 7.3l8.9-16.2-4.2-4.8z" fill="#fff"/><path d="M447.3 335.2c3.3 1.1 4.4-17 17.3-8.4 9 6 25.9 5 22.5-3.1a76 76 0 016.7 6l-6-19.8s-24.5-7.7-33.3.1-7.2 25.2-7.2 25.2z" fill="#2c2858"/><path d="M452.4 338.5c2 3.8.9 8.3-2.5 10s-7.6 0-9.6-3.8-.8-8.3 2.6-10 7.6 0 9.5 3.8z" fill="#f37a50"/><path d="M447.4 346.5a1 1 0 01-.3 0 .9.9 0 01-.6-1.1c.7-2.3.7-4.1-.2-5.1-1-1.4-3.3-1.1-3.4-1.1a.9.9 0 01-.2-1.8c.2 0 3.3-.3 5 1.8 1.2 1.5 1.4 3.7.5 6.7a.9.9 0 01-.8.6zM471.8 360.4a15.2 15.2 0 01-8-2.5 1 1 0 011.5-1.7c.3.2 7.6 4.7 12.4-.6a1 1 0 011.6 1.5 9.7 9.7 0 01-7.1 3.3z" fill="#de623c"/><path d="M526.7 496.4l-20.4-18.8h-67.1l-24.4 18.6 27.5 20h61z" fill="#201d40"/><path d="M432.3 604.9c-6.2 13.5-28.7 11.2-24.8 26.2s45.2-9 45.2-9a117.8 117.8 0 00-4.5-15.4zM510 604.2c6.6 14 30.1 11.7 26 27.3s-47.2-9.3-47.2-9.3a124.8 124.8 0 014.7-16.1z"/><path d="M451.3 523.2c-.1-21.5-18.3-45.4-36.5-29.4-19 16.8 11.7 112.4 11.7 112.4 11.4 6.8 16.8 6.5 28.5 0 0 0-3.5-62.2-3.7-83zM494.2 523.2c.2-21.5 18.1-36.4 32.5-26.8 15.5 10.3-10 112-10 112a47.5 47.5 0 01-26 1s3.4-65.4 3.5-86.2z" fill="#2c2858"/><path d="M656.2 643.4a4.6 4.6 0 01-4.6-4.7v-82.2h9.3v82.2a4.6 4.6 0 01-4.7 4.7zM688.8 643.4a4.6 4.6 0 01-4.6-4.7v-82.2h9.2v82.2a4.6 4.6 0 01-4.6 4.7zM731.5 643.4a4.6 4.6 0 01-4.6-4.7v-82.2h9.3v82.2a4.6 4.6 0 01-4.7 4.7zM764.1 643.4a4.6 4.6 0 01-4.6-4.7v-82.2h9.2v82.2a4.6 4.6 0 01-4.6 4.7z" fill="#0e6a41"/><path d="M712.8 434.5v97.8a2 2 0 01-2 2H650a11 11 0 00-11.1 11 11 11 0 0011 11.2h73.8a11 11 0 0011.1-11.1v-111a11 11 0 00-11-11 11 11 0 00-11.2 11z" fill="#3f964f"/><path fill="#3f964f" d="M723.8 423.4h48V536h-48z"/><path d="M760.7 434.5v97.8a2 2 0 01-2 2h-60.6a11 11 0 00-11.1 11 11 11 0 0011 11.2h73.8a11 11 0 0011.1-11.1v-111a11 11 0 00-11-11 11 11 0 00-11.2 11z" fill="#0e6a41"/><path d="M664.5 456.4c4.7 2.6 4.7 18.6 3.1 19.5-53.1 3.7-66.5 1.8-66.5 1.8l.6-9s30.7-9.7 62.8-12.3z" fill="#f37a50"/><path d="M714.6 427.2c-8.2 13-42.1 48.4-47.6 48.9l-6.3-19.3s31.8-42 37.5-48.6c9.7-11.2 29.7-2.3 16.4 19zM592 467.3a68.8 68.8 0 0110.3 1l3 1.7-.3 5.2c-4.4 6-17.6 7-18.9 7-3.1 0-4.6.3-4.8-.2s-.7-3.3 3.9-3.4c5.7-.2 2.3-5.1-9.6-1.8-3 .9-8.3-1-6.2-3 2.4-2.1 9.1-6.8 22.6-6.5z" fill="#f37a50"/><path d="M695 357.5c-1-13.4 3-25.2 13.6-31.2 10.8-6 24.3-.1 24.3-.1s11.5-4 21.8 7.4 2.6 21.4 6.8 29.8c2.5 5 15.3 6 12 22-1 4.7-6.5 7.8-11.2 8.1-8.3.5-16-2.7-19.4.5-11.1 10.6-35.7 6.8-39.1-2.9-1.1-3-23.2 2.8-21-17.6 1.1-10.4 13.1-4 12.2-16z" fill="#0d0c1a"/><path d="M715.3 400.7l17.6-3.3 6.5 8.8-14 28.7-20.5-17.5z" fill="#f37a50"/><path d="M692.6 469.8c.3-5.4-8.5-27.8-4-39.1 3.5-9 9.1-24.3 16-26.9 3.3-1.2 6.7-2 10.7-3.1 0 0-2.3 11.4 2.5 11.8 9.2.7 15-15 15-15 5-.5 27.8 7 27.8 8.8 0 14.6-12 36-15.9 51.8-1.5 17 4.5 37.5 4.5 39.5 0 0-36.6 10.3-58.3-1.7-.5-1.6 1.3-18.6 1.7-26z" fill="#e62552"/><path d="M743.7 480s8 20.4 10 33.2-9.1 21.1-9.1 21.1H652s-9.9-16-7-27.1 9.4-12.9 9.4-12.9z" fill="#e62552"/><path d="M650.9 493.8c11.8-1.7 46 11.6 60.7 40.5h-41z" fill="#de623c"/><path d="M663.8 504.4a32.7 32.7 0 01-4.1-5.9 10.2 10.2 0 00-16.5-1.9c-17 18.8-53.3 61.6-61.4 67a49.2 49.2 0 01-28.4 7.6s-6.2 2.4-2 7.4c2.1 2.6 34.4 5.2 34.4 5.2l2.5-9.5c18.7-13.9 42.1-12.9 62-38.3 10.9-14 13.5-31.6 13.5-31.6z" fill="#de623c"/><path d="M579.2 589.3l-13 8.4-1.7-2.1 10.5-9.9c-6-4.7-19.8-.7-19.8-.7-4.6-3-13.4-12.5-14.3-17.6 2.9-3.6 12.5 3.9 12.5 3.9-.3 1.6 2.7 7.2 5.2 8.1a45.3 45.3 0 0029.7-5s7.2 10.8-9 14.9z" fill="#201d40"/><path d="M664 507a6.1 6.1 0 014.5 5c1 6.5 5.7 19.8-.8 33.7-15.8 34.2-25.2 56.7-26.8 65.5 4 7.7-12.4 29-12.7 30.3l-11.9-3.7s6.9-10.2 9.3-14.1c5.9-9.5 6.8-21.1 7.8-30.1 4-38.4-3-62.7 24.9-85.2a6.5 6.5 0 015.7-1.4z" fill="#f37a50"/><path d="M646.8 627.4l-1.2 15.5-2.8.1-1.4-14.3c-7.4 1.9-12.6 15.3-12.6 15.3-5.1 1.8-18 3-22.6.7-1.2-4.5 10.6-7.7 10.6-7.7 1.1 1.3 7.4 2.2 9.6.9a46 46 0 0014.5-26.7s12.5.9 5.9 16.2z" fill="#201d40"/><path d="M719.7 386.4l14.3-2.2-1.1 13.2s-2.8 6-6 6.4l-11.6-3.1z" fill="#f37a50"/><path d="M747.2 367.2c-3.7 15.4-16.5 25.5-28.5 22.6s-18.9-17.7-15.2-33 16.4-25.5 28.5-22.6 18.9 17.7 15.2 33z" fill="#f37a50"/><path d="M709.1 360.8a2.2 2.2 0 11-1-2.9 2.2 2.2 0 011 2.9zM726 365a2.3 2.3 0 11-1-3.1 2.3 2.3 0 011 3z"/><path d="M728.7 363a.8.8 0 01-.4-.3c-1.2-2.6-4.3-3-4.4-3a.8.8 0 01.3-1.7c.1 0 4 .6 5.6 4a.8.8 0 01-1.1 1zM704.4 357.7a.8.8 0 01-.2-.2.8.8 0 010-1.1 5.7 5.7 0 015.7-1.4.8.8 0 01-.5 1.5 4 4 0 00-4 1 .8.8 0 01-1 .2z" fill="#0d0c1a"/><path d="M710.5 365.5a21.8 21.8 0 01-3.3 3.2.9.9 0 00-.3 1.1c1 1.6 3.6 3 5.2 3.7a.2.2 0 00.3-.4 11 11 0 01-2.7-3.1 1 1 0 010-1l1.5-3.1a.4.4 0 00-.7-.4z" fill="#de623c"/><path d="M741.4 367.3c-3 2.3-3.8 6.1-2 8.5s5.8 2.5 8.7.2 3.8-6 2-8.5-5.8-2.5-8.7-.2z" fill="#f37a50"/><path d="M743 375.1a.8.8 0 01-.2-.2 3.7 3.7 0 01-.3-4.5 4 4 0 014.3-1.5.8.8 0 01-.5 1.5 2.3 2.3 0 00-2.5 1 2 2 0 00.3 2.5.8.8 0 01-1 1.2z" fill="#de623c"/><path d="M723.9 377.7a.6.6 0 00-.6-1 46 46 0 01-12.2 0 .6.6 0 00-.6 1 8 8 0 0013.4 0z" fill="#fff"/><path d="M747.5 365.9c-14.4-2-34.6-16.6-36.2-24.2 2.8-9 17.6-13.5 26-9.4s16.3 22.2 10.2 33.6z" fill="#0d0c1a"/><path d="M819.5 379.6c-7.9-3.7-6.2-11-6.2-11-3.4.4-11.1 31.6-12.6 50.2-17-8.2-45.2-17.4-51.5-16.2 0 0-8.9.6-8.3 11.4.5 9.6 12.8 12.2 12.8 12.2s54 15.2 59.4 10.2c8.4-7.8 4.5-47.2 6.4-56.8z" fill="#f37a50"/><path d="M828.2 375.7c-3.5 1.5-8.4 1.3-8.7 5l-8.1-1-2-4c2.7-11.7 16.2-19.6 17.6-20.2 3.7-1.7 5.3-2.7 5.7-2.3s2.6 3.4-2.6 6c-6.5 3.2 0 7 12-3 3-2.6 10-3.2 8.6.2-1.6 3.7-6.8 12.7-22.5 19.3z" fill="#f37a50"/><path d="M265.9 644.4h-.4a5.4 5.4 0 01-5.4-5.4v-93h11.2v93a5.4 5.4 0 01-5.4 5.4zM226.4 644.4h-.4a5.4 5.4 0 01-5.4-5.4v-93h11.3v93a5.4 5.4 0 01-5.5 5.4zM168.8 639.1a5.5 5.5 0 005.7 5.3 5.4 5.4 0 005.6-5.3V546h-11.3zM135.2 644.4h-.4a5.4 5.4 0 01-5.4-5.4v-93h11.2v93a5.4 5.4 0 01-5.4 5.4z" fill="#0e6a41"/><path d="M197.2 398.2v118.5a2.4 2.4 0 002.5 2.4h73.5a13.4 13.4 0 0113.4 13.5 13.4 13.4 0 01-13.4 13.4h-89.4a13.4 13.4 0 01-13.5-13.4V398.2a13.4 13.4 0 0113.5-13.5 13.4 13.4 0 0113.4 13.5z" fill="#3f964f"/><path fill="#3f964f" d="M183.8 521.3h-58.1V384.7h58z"/><path d="M139.1 398.2v118.5a2.4 2.4 0 002.4 2.4H215a13.4 13.4 0 0113.5 13.5A13.4 13.4 0 01215 546h-89.3a13.4 13.4 0 01-13.5-13.4V398.2a13.4 13.4 0 0113.5-13.5 13.4 13.4 0 0113.4 13.5z" fill="#0e6a41"/><path d="M297.6 398.9c-3.7-3.8-8-5.4-8-12.3 0-2.6.2-5.2.4-8.2.2-4.7 1.1-8.7 2.1-8.9 2.3-.4 3 .8 3.3 3.6.3 2.1-1 5 .6 6.2 1.4 1.1 3.3 1.8 8-3.7 6-7 6.9-10.4 9.4-8.7 1.6 1.1-1.1 4.8-6.6 11.5 4.1-2.3 9.1-13 12.2-10.2 2.2 2-7.5 12-10.5 14 6.2-2.5 10.5-11.5 12.2-10.5 3.5 2-3.9 10.7-9.3 13.2 5.8-1 7.8-6.4 9.3-5.3 2.8 2-5.7 11-12 14z" fill="#f37a50"/><path d="M299.3 382.2c.6 1.7 1.2 4-.3 6.3-1.4 2.2-4.5 2.6-4.5 2.6a5 5 0 005.5-1.9 5.8 5.8 0 00-.7-7z" fill="#de623c"/><path d="M256.9 419.8a273.7 273.7 0 0030.6-30.6c7.2 3.1 11 11 11 11-8.7 31.3-35.5 57.1-47.7 59-11.2 1.7-39.4-52.1-25.7-78.2l5.7-1.3c15.6 7.7 26 40.1 26 40.1z" fill="#c4204a"/><path d="M317.4 628.3l13.4 3.4 5.4-11.9c-.6-.4-1.4-8.3-2-14.3l-21.5 3a162.6 162.6 0 004.7 19.8z" fill="#f37a50"/><path d="M341 635.3s4.6-7.7 10.4-8.2c0 0 11 .6 15 5.3 1.1 1.4.7 4.5.2 6.5-.3 1.2-1.4 2.6-4.6 3.6a39.6 39.6 0 01-23.3-.6c-14.4-3.8-16.6-2.2-22-4-5.5-1.7-3.7-8.4-2.2-15 0 0 4 8 26.5 12.4z" fill="#201d40"/><path d="M336.6 618.7a55.8 55.8 0 0014.7 5.8c4.7 1 17.2 3.5 15.2 11.8-.3 1.2-1.3 2.6-4.6 3.6a39.6 39.6 0 01-23.3-.7c-14.3-3.7-16.6-2.1-22-3.9-5.4-1.7-2.9-9.4-1.4-15.9.2 1.7 1 6 10.9 10 3 1.1.5-12 10.5-10.7z" fill="#2c2858"/><path d="M334.7 628.7a1.1 1.1 0 001-.9c1-4 5.3-4.3 5.4-4.3a1.1 1.1 0 000-2.3 8.2 8.2 0 00-7.6 6 1.1 1.1 0 00.9 1.5 1 1 0 00.3 0zM340 630.8a1.1 1.1 0 001-.9c1-4 5.2-4.3 5.4-4.3a1.1 1.1 0 00-.1-2.3 8.2 8.2 0 00-7.5 6.1 1.1 1.1 0 00.8 1.4 1.2 1.2 0 00.4 0z" fill="#494c7f"/><path d="M265.3 633.3l13 4.4 6.4-11.5c-.6-.5-2.5-8.8-2.6-14.8l-20 1.8a158 158 0 003.2 20.1z" fill="#f37a50"/><path d="M243.6 484.6c29.8 5.4 72.1 24.7 76.3 29.1 8.6 9 12.8 40.3 17 95.8l-26.2 1.8c-9.6-43.4-18.6-62.4-20.1-80 0 0-22.9 1.6-57.3-11.7-17-6.5-34.6-14.2-29.5-29.5 4-12.1 11.4-10.7 39.8-5.5z" fill="#201d40"/><path d="M210.3 487.2c24.8 2.5 57.8 30.9 62 35.2 8.6 9.1 9.7 40 13.7 95.6l-26 2.4c-4.1-28.7-16.4-61.7-16.4-82.9l-59.2-13C164.8 520 159 517 155.1 504c-1.3-4.4-3-14.5-1-16.7 8.6-10 32.8-2.6 56.2-.2z" fill="#2c2858"/><path d="M288.3 642s5.1-7.4 11-7.5c0 0 11 1.4 14.5 6.3 1.1 1.5.4 4.6-.2 6.5-.4 1.3-1.5 2.5-4.9 3.3-4.9 1.2-11.4 1.7-23.1-2.3-14-4.7-16.5-3.3-21.6-5.4-5.4-2.2-3.2-8.7-1.2-15.2 0 0 3.4 8.3 25.5 14.3z" fill="#201d40"/><path d="M285 625a55.9 55.9 0 0014.4 6.9c4.6 1.4 17 4.7 14.3 12.8-.4 1.3-1.5 2.5-4.8 3.3-5 1.2-11.5 1.7-23.2-2.3-14-4.7-16.4-3.3-21.6-5.4-5.4-2.2-2.3-9.6-.4-16 0 1.7.5 6 10.2 10.7 2.9 1.3 1.4-12 11.2-10z" fill="#2c2858"/><path d="M280.3 635.4a1.1 1.1 0 001-.9c1-4 5.3-4.3 5.5-4.4a1.1 1.1 0 10-.1-2.2 8.2 8.2 0 00-7.5 6 1.1 1.1 0 00.8 1.4 1.2 1.2 0 00.3 0zM285.6 637.5a1.1 1.1 0 001-.9c1-4 5.3-4.3 5.4-4.4a1.1 1.1 0 100-2.2 8.2 8.2 0 00-7.6 6 1.1 1.1 0 00.9 1.4 1.2 1.2 0 00.3 0z" fill="#494c7f"/><path d="M194 354.8h9.8l2.3 23.3-11.6 6.1-12.3-6 2-23.4z" fill="#de623c"/><path d="M192.7 352C184 355 177 345 177 345c-5.6.3-5.9-5.2-5.9-5.2a7 7 0 01-6.7-7.3c0-4.3 4-5 3.5-10-.4-4-5.3-12.7 6.8-16.2a10 10 0 015.7-10.7c8.7-4 12.1.9 16.3 1 4.7 0 13.3-6.2 16.9 3.8 0 0 6.4-1.2 10.3 2.7a11 11 0 012 12s5.4.6 7.7 5.1a9.2 9.2 0 01-1.6 10.3 9.6 9.6 0 01-3.7 2.3c-2 .8-.9 6.4-2.4 7.9a42.9 42.9 0 01-8.5 6z" fill="#2c2858"/><path d="M175.6 339.4c1.6 16.2 15.3 29.5 28.1 28.2s19.8-16.6 18.2-32.9-13.3-28.4-26-27.1-22 15.5-20.3 31.8z" fill="#f37a50"/><path d="M215.3 340.6a2.2 2.2 0 101.4-2.8 2.2 2.2 0 00-1.4 2.8zM198 341a2.4 2.4 0 10.2-1.9 2.4 2.4 0 00-.2 1.9z"/><path d="M208.3 341l5 7s-1 3.5-5.5 3.9c1.9-1 3.7-2.4 2.7-4.9l-2.2-6z" fill="#de623c"/><path d="M195 338.2a1 1 0 01-.2-.1 1.1 1.1 0 01-.4-1.6c.8-1.4 3.2-4 6.5-3a1.1 1.1 0 11-.6 2.1c-2.4-.7-4 2-4 2a1.1 1.1 0 01-1.3.6zM215.1 336.2a1 1 0 01-.4-1.6 4.6 4.6 0 013.4-1.2 4.8 4.8 0 013.3 2.3 1 1 0 01-1.5 1 3 3 0 00-2-1.4 2.7 2.7 0 00-1.9.6 1 1 0 01-.9.3z" fill="#2c2858"/><path d="M224.9 318.2L196.3 302l-27 22.1 8.5 21.2c-1.5-10.3 5.5-8.4 8-12s3-8.8 11.6-6.3c0 0 5.3-5.6 9.8-.3 3.5 4.1 6.6 2.5 10 2 4-.6 4 3.5 6.3 2.8z" fill="#2c2858"/><path d="M179.1 337.8c2.7 2.8 3.1 6.8.9 9s-6.3 1.8-9-1-3-6.7-.8-9 6.2-1.7 9 1z" fill="#f37a50"/><path d="M176.4 345.6a.8.8 0 00.3-.2 3.8 3.8 0 00.9-4.6 4 4 0 00-4.2-2 .8.8 0 10.3 1.6 2.4 2.4 0 012.4 1.2 2.2 2.2 0 01-.6 2.6.8.8 0 00.9 1.4z" fill="#de623c"/><path d="M213.5 357a.7.7 0 00-.6-1.2 52.6 52.6 0 01-14-.7.7.7 0 00-.7 1.1 9.2 9.2 0 0015.3.8z" fill="#fff"/><path d="M154 487.8s20.7 2.1 40 2.3c19.5-.2 40.1-4 40.1-4s-2.6-35.5-2.3-49.2c.4-15.6-1-36.4-1-57.2 0 0-13.8-2.2-21.5-3.1l-3.2-.4s-4.4 9.3-23.7 0a24.6 24.6 0 00-3.6 0c-8.1.5-21.1 3.6-21.1 3.6 0 20.6-.9 40.9-.6 56.6l-3 51.4z" fill="#e62552"/><path d="M207.7 436.3c-1.6-4.7-4.5-7.9-1.7-13.8 1-2.2 2.3-4.3 3.7-7 2-3.9 4.5-6.9 5.4-6.6 2.1.5 2.3 1.9 1.4 4.4-.6 2-2.9 3.9-2 5.6.6 1.5 2 2.9 8.3.1 8-3.5 10.2-6 11.6-3.6 1 1.6-2.9 3.7-10.4 7.2 4.5-.3 13.2-7.4 14.7-3.7 1 2.6-11.4 7-14.7 7.6 6.3.5 13.7-5.5 14.8-4 2.1 3.3-7.8 7.6-13.5 7.5 5.4 1.6 9.3-2.3 10.1-.7 1.6 3-9.4 7-16.1 7z" fill="#f37a50"/><path d="M161.6 431.6c15.7-1 42.4-8.8 42.4-8.8 4.3 6.5 3.1 15.3 3.1 15.3-24.3 21.3-61 28.2-72.2 23-10.2-4.6-3-67 22.8-81.4l.9.1c8.8 15 3 51.8 3 51.8zM178.8 376.2a13.7 13.7 0 005.9 5.3 28.8 28.8 0 0013.5 2.7 15.6 15.6 0 007.9-3 9.2 9.2 0 003.2-4.7l-3.4-.4s-4.2 9.4-23.5.1a24.6 24.6 0 00-3.6 0z" fill="#c4204a"/><path d="M232.3 475.8h89.5l17.7-56.2a4 4 0 00-3.8-5.2h-81.1a4 4 0 00-3.9 2.8z" fill="#7f95db"/><path d="M239 475.8h89.6l17.7-56.2a4 4 0 00-3.8-5.2h-81.1a4 4 0 00-3.9 2.8z" fill="#95a6db"/><path d="M291.8 446.2c-1 3.5.8 7 4 8s6.4-1.3 7.4-4.7-.8-7-4-8a6.2 6.2 0 00-7.4 4.7z" fill="#b4c2f0"/><path d="M181.4 470h57.7v5.7h-63.4a5.7 5.7 0 015.7-5.8zM655.4 475.8h-87.1L551 421.1a4 4 0 013.7-5h79a4 4 0 013.6 2.7z" fill="#7f95db"/><path d="M648.8 475.8h-87.1l-17.2-54.7a4 4 0 013.7-5h79a4 4 0 013.7 2.7z" fill="#95a6db"/><path d="M597.5 447c1 3.4-.8 6.8-3.8 7.7s-6.4-1.2-7.3-4.5.7-6.9 3.8-7.7 6.3 1.1 7.3 4.5z" fill="#b4c2f0"/><path d="M704.9 470.1h-56.1v5.6h61.7a5.6 5.6 0 00-5.6-5.6z" fill="#7f95db"/><path d="M739.5 490.8h-592c-6.2 0-11.3-3.4-11.3-7.6 0-4.2 5-7.7 11.4-7.7h591.9c6.2 0 11.3 3.5 11.3 7.7s-5 7.6-11.3 7.6z" fill="#617ac9"/><path d="M518 472.4h-99.4l-3.8-57.3a6.6 6.6 0 016.6-7h93.7a6.6 6.6 0 016.6 7z" fill="#b4c2f0"/><path d="M518 475.5h-99.4l-3.8-57.2a6.6 6.6 0 016.6-7h93.7a6.6 6.6 0 016.6 7z" fill="#95a6db"/><path d="M472.6 446.2a6 6 0 11-6-6 6 6 0 016 6z" fill="#b4c2f0"/><path d="M514.8 471.9a2.8 2.8 0 01.6-.6l-.1-.1c-2.4-1.8-3.4-4.6-2.1-6.3a2.8 2.8 0 01.7-.7c-1-1.6-1.3-3.4-.4-4.6a3 3 0 011.5-1 4 4 0 01-.5-4.9c1.3-1.7 4-2 6-.4s2.8 4 1.5 5.8a3.4 3.4 0 01-1.2 1c2 1.8 2.6 4.3 1.5 5.8a2.9 2.9 0 01-.8.8c1.1 1.5 1.3 3.3.4 4.5a3 3 0 01-1.3 1 3.4 3.4 0 01.5 4.3c-1 1.4-3.3 1.6-5 .3s-2.4-3.5-1.3-5zM366 478.9a2.7 2.7 0 01-.7-.7v.2c-2 2.3-4.8 3-6.4 1.7a2.8 2.8 0 01-.7-.7c-1.6 1-3.4 1-4.6.1a3 3 0 01-1-1.5 4 4 0 01-4.8.2c-1.7-1.3-1.7-4-.1-6s4.2-2.5 5.9-1.2a3.3 3.3 0 011 1.3c1.8-1.9 4.2-2.4 5.8-1.2a2.9 2.9 0 01.6.8c1.7-1 3.5-1.1 4.6-.2a3 3 0 011 1.4 3.4 3.4 0 014.2-.3c1.4 1.1 1.5 3.4.1 5.1s-3.6 2.1-5 1z" fill="#f37a50"/><path d="M162 643.3h-13.2l34.6-155.7 12.7 2.6zM709.1 643.3h13.2l-34.7-155.7-12.6 2.6z" fill="#617ac9"/><path d="M664 134.6l7.8 51a3.6 3.6 0 01-3 4L580.4 203a3.5 3.5 0 01-4-3l-7.9-50.9a3.5 3.5 0 013-4l88.5-13.6a3.5 3.5 0 014 3z" fill="#f3bc3d"/><path d="M664 134.6l.5 2.8-36 35.2a11.3 11.3 0 01-13.2 2l-46.5-23.8-.3-1.6a3.6 3.6 0 013-4l88.5-13.6a3.6 3.6 0 014 3z" fill="#f3cd75"/><rect width="117.5" height="65.1" rx="32.6" transform="rotate(180 162.2 136)" fill="#fff"/><path d="M223.6 269.3v24.2a1.8 1.8 0 003.5.8l12.7-25z" fill="#fff"/><path d="M222.3 227.4H308a6 6 0 006-6 6 6 0 00-6-6h-85.7a6 6 0 00-6 6 6 6 0 006 6zM222.3 246.4H308a6 6 0 006-6 6 6 0 00-6-6h-85.7a6 6 0 00-6 6 6 6 0 006 6z" fill="#e3eaff"/><rect width="65.2" height="11.9" rx="6" transform="rotate(180 140.8 132.6)" fill="#e3eaff"/><rect width="127.2" height="82.7" rx="41" transform="translate(317 224.7)" fill="#cdd8fa"/><path d="M426 304.2v26.3a2 2 0 01-3.7.9l-13.8-27.2zM762 242l-108.8-42.6a13.4 13.4 0 01-7.6-17.4l49.8-127.4a13.4 13.4 0 0117.4-7.6l108.8 42.5a13.4 13.4 0 017.6 17.4l-49.8 127.4A13.4 13.4 0 01762 242z" fill="#cdd8fa"/><path fill="#fff" d="M722.1 92.7l10.7 4.2-37.2 95-10.7-4.2zM738.1 99l10.7 4.1-37.2 95L701 194zM754.1 105.2l10.7 4.2-37.1 95-10.7-4.2zM770.1 111.5l10.7 4.1-37.1 95.1-10.8-4.2zM786.1 117.7l10.7 4.2-37.1 95-10.7-4.1zM725.4 84.2l10.7 4.2-2 5-10.7-4.2zM706.3 86.5l10.7 4.2-2 5-10.7-4.2zM700 102.4l10.8 4.1-2 5-10.7-4.1zM693.9 118.2l10.7 4.2-2 5-10.7-4.2zM687.7 134l10.7 4.2-2 5-10.7-4.1z"/><path fill="#fff" d="M687.7 134l10.7 4.2-2 5-10.7-4.1zM681.5 150l10.7 4.1-2 5-10.7-4.2zM675.3 165.8L686 170l-2 5-10.7-4.2zM741.4 90.5l10.7 4.1-2 5-10.6-4.1zM757.4 96.7l10.7 4.2-2 5-10.6-4.2zM773.4 103l10.8 4.1-2 5-10.7-4.1zM789.4 109.2l10.7 4.2-2 5-10.6-4.2zM804 104.4l-83.5-32.6a6.3 6.3 0 01-3.5-8.2A6.3 6.3 0 01725 60l83.4 32.6a6.3 6.3 0 013.6 8.2 6.3 6.3 0 01-8.2 3.6z"/><path d="M400.5 286.7a9.6 9.6 0 01-.6 3.2c-1.7 5-7.6 8.8-14.6 8.8s-13-3.7-14.7-8.8a9.5 9.5 0 01-.5-3.2z" fill="#95a6db"/><path d="M400.5 286.7a9.6 9.6 0 01-.6 3.2h-29.3a9.5 9.5 0 01-.5-3.2z" fill="#7f95db"/><path d="M417.1 235.4a31.9 31.9 0 10-57 19.5 39.9 39.9 0 018.4 24.5v.1H402v-.1a40 40 0 018.5-24.5 31.7 31.7 0 006.6-19.5z" fill="#f3bc3d"/><path d="M390 276a.7.7 0 01-.2-.1.8.8 0 01-.5-1c0-.2 3.8-11 6.5-22 4.9-19.6 2.4-22.7 1-23.2-3.7-1.3-6.8.6-8.6 2.6a17 17 0 00-1.6 1.8 31 31 0 012.2 4.6c1.6 4.6 2 8.8 1.2 11.3a4 4 0 01-4.4 2.8 4.6 4.6 0 01-4.1-3.3c-.9-2.2-.8-5.6.3-9.2a24.5 24.5 0 012.9-6.2 15.7 15.7 0 00-3.9-4.4c-2-1.5-4-1.6-5.8-.2-3.7 3-3.9 11.6-.4 25.1a179.2 179.2 0 006.5 20.2.8.8 0 01-1.5.6A180.3 180.3 0 01373 255c-3.7-14.4-3.3-23.4 1-26.8 2.3-1.8 5.1-1.7 7.8.2a17 17 0 013.8 4.3 17.3 17.3 0 011.4-1.6c3-3.2 6.8-4.2 10.4-3 2.2.9 3.2 3.9 2.8 9.3a95.7 95.7 0 01-2.8 15.9c-2.8 11-6.5 22-6.6 22a.8.8 0 01-.7.6zm-4.4-40.3a23 23 0 00-2.2 5.1 14 14 0 00-.4 8.2 3 3 0 002.7 2.2 2.4 2.4 0 002.7-1.8c1.1-2.9-.2-8.9-2.8-13.7z" fill="#fff"/><rect width="39.8" height="12.3" rx="6.1" transform="translate(365.4 275.5)" fill="#95a6db"/><path d="M439.4 236.7H429a2.7 2.7 0 01-2.7-2.7 2.7 2.7 0 012.7-2.7h10.4a2.7 2.7 0 012.7 2.7 2.7 2.7 0 01-2.7 2.7zM341.5 236.7h-10.4a2.7 2.7 0 01-2.6-2.7 2.7 2.7 0 012.6-2.7h10.5a2.7 2.7 0 012.6 2.7 2.7 2.7 0 01-2.6 2.7zM348.2 214.7l-8.3-6.3a2.7 2.7 0 01-.5-3.8 2.7 2.7 0 013.8-.5l8.2 6.3a2.7 2.7 0 01.6 3.8 2.7 2.7 0 01-3.8.5zM421.8 214.7l8.3-6.3a2.7 2.7 0 00.5-3.8 2.7 2.7 0 00-3.7-.5l-8.3 6.3a2.7 2.7 0 00-.5 3.8 2.7 2.7 0 003.7.5zM348.2 256.7l-8.3 6.3a2.7 2.7 0 00-.5 3.8 2.7 2.7 0 003.8.5l8.2-6.3a2.7 2.7 0 00.6-3.8 2.7 2.7 0 00-3.8-.5zM421.8 256.7l8.3 6.3a2.7 2.7 0 01.5 3.8 2.7 2.7 0 01-3.7.5l-8.3-6.3a2.7 2.7 0 01-.5-3.8 2.7 2.7 0 013.7-.5z" fill="#f3bc3d"/><rect width="116.7" height="80.9" rx="14.2" transform="translate(354.1 84.2)" fill="#cdd8fa"/><rect width="93" height="12.2" rx="6.1" transform="translate(360.5 99.4)" fill="#fff"/><rect width="56.1" height="6.1" rx="3.1" transform="translate(360.5 121.5)" fill="#fff"/><rect width="40" height="6.1" rx="3.1" transform="translate(360.5 146.1)" fill="#fff"/><rect width="67.9" height="6.1" rx="3.1" transform="translate(360.5 133)" fill="#fff"/><path d="M459.1 168.5l2.8 9.8h-2.2c-26.4.7-35.6-35.9-22.8-35.4a5 5 0 014.4 5.3 18.4 18.4 0 0016.4 20.2l1.4.1z" fill="#c4204a"/><path d="M487.7 153a25.4 25.4 0 01-1 5l-9.8-1.8c3.3-9.9-1.4-22.5-15.4-24.4a18.3 18.3 0 00-10.5 2c-5.8 3-10.2-5.5-4.6-8.6 19.1-10.8 44.1 6 41.3 27.8z" fill="#f5a3b7"/><path d="M486.8 158a28.7 28.7 0 01-24.9 20.3l-2.8-9.8c9.4.1 15.5-5.4 17.8-12.3z" fill="#e62552"/><path d="M468.5 150.1a8.9 8.9 0 11-8.9-8.9 8.9 8.9 0 019 9z" fill="#c4204a"/></g></svg>