<svg xmlns="http://www.w3.org/2000/svg" xmlns:xlink="http://www.w3.org/1999/xlink" viewBox="0 0 24 24" fill="#FFFFFF">
  <path d="M13.172,2H6C4.9,2,4,2.9,4,4v16c0,1.1,0.9,2,2,2h12c1.1,0,2-0.9,2-2V8.828c0-0.53-0.211-1.039-0.586-1.414l-4.828-4.828 C14.211,2.211,13.702,2,13.172,2z M15.923,17.698c-0.241,0.568-0.722,0.811-1.283,0.649c-0.481-0.162-1.043-0.568-1.604-1.216 c-0.561,0.081-1.123,0.243-1.684,0.405c-0.642,1.135-1.283,2.108-1.925,2.351C9.266,19.968,9.106,20,8.945,20 c-0.321,0-0.561-0.113-0.722-0.356c-0.16-0.243-0.481-0.73,0.16-1.459c0.401-0.487,1.363-0.973,2.406-1.297 c0.321-0.649,0.561-1.297,0.802-2.027c-0.561-1.054-0.882-2.189-0.802-2.838C10.87,11.373,11.282,11,11.832,11 s0.882,0.373,1.043,0.941c0.16,0.649,0,1.703-0.401,2.919c0.241,0.487,0.561,0.973,0.882,1.459 c0.962-0.081,1.764-0.081,2.246,0.243C16.003,16.806,16.083,17.211,15.923,17.698z M13,9V3.5L18.5,9H13z" fill="#FF0000" />
</svg>