<svg xmlns="http://www.w3.org/2000/svg" xmlns:xlink="http://www.w3.org/1999/xlink" viewBox="0 0 50 50" fill="#FFFFFF">
  <path d="M39.03125 47C39.015625 47 39 47 38.984375 47C31.46875 46.753906 22.664063 39.46875 16.597656 33.398438C10.523438 27.328125 3.238281 18.519531 3.003906 11.039063C2.917969 8.414063 9.359375 3.746094 9.425781 3.699219C11.097656 2.535156 12.953125 2.949219 13.714844 4.003906C14.230469 4.71875 19.113281 12.117188 19.644531 12.957031C20.195313 13.828125 20.113281 15.125 19.425781 16.425781C19.046875 17.148438 17.789063 19.359375 17.199219 20.390625C17.835938 21.296875 19.519531 23.519531 22.996094 26.996094C26.476563 30.472656 28.695313 32.160156 29.605469 32.796875C30.636719 32.207031 32.847656 30.949219 33.570313 30.570313C34.851563 29.890625 36.140625 29.804688 37.019531 30.34375C37.917969 30.894531 45.296875 35.800781 45.976563 36.273438C46.546875 36.675781 46.914063 37.363281 46.988281 38.164063C47.058594 38.972656 46.808594 39.828125 46.289063 40.574219C46.246094 40.636719 41.632813 47 39.03125 47Z" fill="#FFFFFF" />
</svg>