<svg xmlns="http://www.w3.org/2000/svg" viewBox="0 0 48 48"><linearGradient id="a" x1="10.7" x2="24.7" y1="7" y2="45.7" gradientUnits="userSpaceOnUse"><stop offset="0" stop-color="#33bef0"/><stop offset="1" stop-color="#0a85d9"/></linearGradient><path fill="url(#a)" d="M22.7 36c-2.1 0-4.5 1.4-4.5 4s2.3 4 4.5 4 4.4-1.2 4.4-4-2.3-4-4.4-4z"/><linearGradient id="b" x1="20.2" x2="34.2" y1="3.6" y2="42.3" gradientUnits="userSpaceOnUse"><stop offset="0" stop-color="#33bef0"/><stop offset="1" stop-color="#0a85d9"/></linearGradient><path fill="url(#b)" d="M23 4c-4.4 0-7.7 1.4-9.5 2.4a1 1 0 00-.5 1v5.9c0 .6.7 1 1.2.6 1.7-1.3 4.4-2.9 7.8-2.9.6 0 4.2.1 4.2 3.7 0 5.7-8 6-8 13.7 0 1 .4 2.4.5 3.1.1.3.3.5.6.5H25c.5 0 .8-.5.6-1-.2-.5-.4-1.2-.4-1.9 0-5.8 9.9-6.6 9.9-15.1 0-1.7-.7-10-12-10z"/></svg>