<svg xmlns="http://www.w3.org/2000/svg" viewBox="0 0 30 30"><path fill="#4e7ab5" d="M21 8l3-3 2 2-3 3zM12 3h5v3h-5z"/><path fill="#f2faff" d="M14.5 27.5c-5.5 0-10-4.5-10-10s4.5-10 10-10 10 4.5 10 10-4.5 10-10 10z"/><path fill="#4e7ab5" d="M14.5 8c5.2 0 9.5 4.3 9.5 9.5S19.7 27 14.5 27 5 22.7 5 17.5 9.3 8 14.5 8m0-1a10.5 10.5 0 100 21 10.5 10.5 0 000-21z"/><path fill="#66798f" d="M14.5 18l-.4-.1-4-4c-.2-.2-.2-.5 0-.7s.5-.2.7 0l4 4c.2.2.2.5 0 .7l-.3.1z"/><path fill="#66798f" d="M14.5 16a1.5 1.5 0 100 3 1.5 1.5 0 100-3z"/><path fill="#8bb7f0" d="M12 3.5c-.3 0-.5-.2-.5-.5V1c0-.3.2-.5.5-.5h5c.3 0 .5.2.5.5v2c0 .3-.2.5-.5.5h-5z"/><path fill="#4e7ab5" d="M17 1v2h-5V1h5m0-1h-5c-.6 0-1 .4-1 1v2c0 .6.4 1 1 1h5c.6 0 1-.4 1-1V1c0-.6-.4-1-1-1z"/><path fill="#8bb7f0" d="M25.1 8.5l-.2-.1-2.3-2.3a.3.3 0 010-.4l1.1-1.1.2-.1.2.1 2.3 2.3c.1.1.1.3 0 .4l-1.1 1.1-.2.1z"/><path fill="#4e7ab5" d="M23.9 5.1l2 2-.9.9-2-2 .9-.9m0-1.1l-.6.2-1.1 1.1c-.3.3-.3.8 0 1.1l2.3 2.3.6.3.6-.2 1.1-1.1c.3-.3.3-.8 0-1.1l-2.3-2.3-.6-.3z"/><path fill="#66798f" d="M14 8h1v2h-1zm0 17h1v2h-1zM9.3 9.5L10 9l1 1.7-.8.5zM17.8 24.3l.9-.5 1 1.7-1 .5zM6 13.2l.5-.8 1.8 1-.5.8zM20.8 21.7l.5-.9 1.7 1-.5.9zM5 17h2v1H5zm17 0h2v1h-2zM6 21.9l1.7-1 .5.8-1.7 1zM20.8 13.3l1.7-1 .5 1-1.7 1zM9.4 25.5l1-1.8.8.5-1 1.8zM17.8 10.7l1-1.7.9.5-1 1.7z"/><path fill="#8bb7f0" d="M14.5 29.5c-6.6 0-12-5.4-12-12s5.4-12 12-12 12 5.4 12 12-5.4 12-12 12zm0-22c-5.5 0-10 4.5-10 10s4.5 10 10 10 10-4.5 10-10-4.5-10-10-10z"/><path fill="#4e7ab5" d="M14.5 6C20.8 6 26 11.2 26 17.5S20.8 29 14.5 29 3 23.8 3 17.5 8.2 6 14.5 6m0 22a10.5 10.5 0 100-21 10.5 10.5 0 000 21m0-23a12.5 12.5 0 100 25 12.5 12.5 0 000-25zm0 22C9.3 27 5 22.7 5 17.5S9.3 8 14.5 8s9.5 4.3 9.5 9.5-4.3 9.5-9.5 9.5z"/></svg>