<svg xmlns="http://www.w3.org/2000/svg" xmlns:xlink="http://www.w3.org/1999/xlink" width="638.9" height="418"><defs><linearGradient id="a" x1="-1.7" y1=".6" x2="-.7" y2=".6" gradientUnits="objectBoundingBox"><stop offset="0" stop-color="#b37cff"/><stop offset="1" stop-color="#f895e7"/></linearGradient><linearGradient id="i" x1="-1.6" y1=".5" x2="-.6" y2=".5" xlink:href="#a"/><linearGradient id="b" x1=".6" y1="1.1" x2="-.3" y2="2.3" gradientUnits="objectBoundingBox"><stop offset="0" stop-color="#2b3582"/><stop offset="1" stop-color="#150e42"/></linearGradient><linearGradient id="e" x1="0" y1="1.1" x2="1.1" y2="2.4" gradientUnits="objectBoundingBox"><stop offset="0" stop-color="#fdf53f"/><stop offset="1" stop-color="#d93c65"/></linearGradient><linearGradient id="j" x1="-9.2" y1="69" x2="-12.1" y2="72.8" xlink:href="#b"/><linearGradient id="k" x1="-3" y1="83.2" x2="-4" y2="87.8" xlink:href="#b"/><linearGradient id="l" x1="-1.7" y1="58.7" x2="-2.1" y2="61.8" xlink:href="#b"/><linearGradient id="d" x1="14" y1="58.8" x2="9.1" y2="64.1" gradientUnits="objectBoundingBox"><stop offset="0" stop-color="#a737d5"/><stop offset="1" stop-color="#ef497a"/></linearGradient><linearGradient id="c" x1="-.1" y1="-.7" x2=".9" y2="-.7" gradientUnits="objectBoundingBox"><stop offset="0" stop-color="#53d8ff"/><stop offset="1" stop-color="#3840f7"/></linearGradient><linearGradient id="m" x1="-.1" y1="-3" x2=".2" y2="-1.3" xlink:href="#c"/><linearGradient id="n" x1="-18.5" y1=".7" x2="-18.8" y2=".3" xlink:href="#a"/><linearGradient id="o" x1="65.8" y1="0" x2="64.6" y2="1" xlink:href="#b"/><linearGradient id="p" x1="23.5" y1="0" x2="22.1" y2="1.7" xlink:href="#d"/><linearGradient id="q" x1="67.8" y1="0" x2="67.1" y2="1" xlink:href="#b"/><linearGradient id="r" x1="6.8" y1=".9" x2="3.2" y2="2.5" xlink:href="#e"/><linearGradient id="s" x1="4.4" y1="1.4" x2="2.5" y2="1.5" xlink:href="#c"/><linearGradient id="t" x1="4.4" y1="1.4" x2="2.6" y2="1.5" xlink:href="#c"/><linearGradient id="u" x1="1.2" y1=".4" x2=".1" y2=".6" xlink:href="#e"/><linearGradient id="v" x1="1.4" y1=".5" x2="-7.1" y2=".9" xlink:href="#e"/><linearGradient id="f" x1="5.8" y1=".7" x2="2.3" y2="2.3" gradientUnits="objectBoundingBox"><stop offset="0" stop-color="#cb236d"/><stop offset="1" stop-color="#4c246d"/></linearGradient><linearGradient id="w" x1="3.8" y1="1.2" x2="2" y2="1.3" xlink:href="#c"/><linearGradient id="x" x1="3.7" y1="1.2" x2="2" y2="1.3" xlink:href="#c"/><linearGradient id="y" x1="1.2" y1=".4" x2=".1" y2=".6" xlink:href="#f"/><linearGradient id="z" x1="1.4" y1=".5" x2="-7.2" y2=".9" xlink:href="#f"/><linearGradient id="A" x1="0" y1=".5" x2="1" y2=".5" xlink:href="#d"/><linearGradient id="B" x1="0" y1=".5" x2="1" y2=".5" xlink:href="#d"/><linearGradient id="C" x1=".5" y1="1.5" x2=".5" y2=".2" xlink:href="#b"/><linearGradient id="D" x1="0" y1=".5" x2="1" y2=".5" xlink:href="#b"/><linearGradient id="E" x1=".1" y1="-.2" x2="1.2" y2="1.7" xlink:href="#c"/><linearGradient id="F" x1=".5" y1=".3" x2=".2" y2="5.1" xlink:href="#b"/><linearGradient id="G" x1="0" y1=".5" x2="1" y2=".5" xlink:href="#d"/><linearGradient id="H" x1="0" y1=".5" x2="1" y2=".5" xlink:href="#d"/><linearGradient id="I" x1="0" y1=".5" x2="1" y2=".5" xlink:href="#d"/><linearGradient id="J" x1="0" y1=".5" x2="1" y2=".5" xlink:href="#d"/><linearGradient id="K" x1="0" y1=".5" x2="1" y2=".5" xlink:href="#c"/><linearGradient id="L" x1="0" y1=".5" x2="1" y2=".5" xlink:href="#c"/><linearGradient id="M" x1="0" y1=".5" x2="1" y2=".5" xlink:href="#c"/><linearGradient id="N" x1="-3.3" y1="4.4" x2="7.8" y2="-7.1" xlink:href="#c"/><linearGradient id="O" x1="-46" y1="-.3" x2="-45.6" y2=".3" xlink:href="#b"/><linearGradient id="g" x1="-81" y1="-8.3" x2="-80.4" y2="-7.2" gradientUnits="objectBoundingBox"><stop offset="0" stop-color="#c4421b"/><stop offset="1" stop-color="#5c0e16"/></linearGradient><linearGradient id="P" x1="-313.6" y1=".5" x2="-312.6" y2=".5" xlink:href="#d"/><linearGradient id="Q" x1="-225.2" y1="1.6" x2="-224.2" y2="-1.2" xlink:href="#g"/><linearGradient id="R" x1="-195.1" y1=".5" x2="-194.1" y2=".5" xlink:href="#d"/><linearGradient id="S" x1="-100.6" y1="1.7" x2="-100.2" y2="-1.2" xlink:href="#g"/><linearGradient id="T" x1="-100.8" y1=".4" x2="-100.5" y2="2" gradientUnits="objectBoundingBox"><stop offset="0" stop-color="#fdf53f"/><stop offset=".7" stop-color="#e57a58"/><stop offset="1" stop-color="#d93c65"/></linearGradient><linearGradient id="U" x1="-46.2" y1="1.7" x2="-44.6" y2=".4" xlink:href="#c"/><linearGradient id="V" x1="-295" y1="1.9" x2="-294.8" y2=".8" xlink:href="#g"/><linearGradient id="W" x1="-208.4" y1="-18.2" x2="-206.9" y2="-20.4" xlink:href="#g"/><linearGradient id="X" x1="-172" y1="-12.3" x2="-171.4" y2="-10.9" xlink:href="#b"/><linearGradient id="Y" x1="-787.3" y1="-58.3" x2="-781.5" y2="-65.5" xlink:href="#g"/><linearGradient id="Z" x1="-232.9" y1="-22.3" x2="-231.4" y2="-19.3" xlink:href="#g"/><linearGradient id="h" x1="-88.1" y1=".5" x2="-87.1" y2=".5" gradientUnits="objectBoundingBox"><stop offset="0" stop-color="#f9b776"/><stop offset="1" stop-color="#f47960"/></linearGradient><linearGradient id="aa" x1="9.7" y1=".5" x2="10.8" y2=".5" xlink:href="#g"/><linearGradient id="ab" x1="387.4" y1="-240.2" x2="381.3" y2="-243.1" xlink:href="#c"/><linearGradient id="ac" x1="49.7" y1="-75.2" x2="48.8" y2="-75.7" xlink:href="#c"/><linearGradient id="ad" x1="59.7" y1="-242.2" x2="58.8" y2="-245" xlink:href="#c"/><linearGradient id="ae" x1="-804.9" y1="-415.6" x2="-801.7" y2="-416.7" xlink:href="#c"/><linearGradient id="af" x1="72.4" y1=".5" x2="73.4" y2=".5" xlink:href="#c"/><linearGradient id="ag" x1="74.5" y1=".5" x2="75.5" y2=".5" xlink:href="#b"/><linearGradient id="ah" x1="256.9" y1=".5" x2="257.9" y2=".5" xlink:href="#h"/><linearGradient id="ai" x1="189.3" y1=".5" x2="190.3" y2=".5" xlink:href="#c"/><linearGradient id="aj" x1="128.6" y1=".5" x2="129.6" y2=".5" xlink:href="#b"/><linearGradient id="ak" x1="215.4" y1=".5" x2="216.4" y2=".5" xlink:href="#h"/><linearGradient id="al" x1=".1" y1="1" x2="1.9" y2="-.6" xlink:href="#c"/><linearGradient id="am" x1="1.1" y1="-.1" x2="-1.4" y2="1.9" xlink:href="#f"/><linearGradient id="an" x1="158.7" y1="5" x2="159" y2="4.2" xlink:href="#f"/><linearGradient id="ao" x1="145.7" y1=".1" x2="143.3" y2="1.1" xlink:href="#h"/><linearGradient id="ap" x1="2.2" y1="-.5" x2="-3.4" y2="3" xlink:href="#f"/><linearGradient id="aq" x1="1.9" y1="-.2" x2="-5.6" y2="4" xlink:href="#f"/><linearGradient id="ar" x1="76.7" y1=".5" x2="77.7" y2=".5" xlink:href="#h"/><linearGradient id="as" x1="103.9" y1="0" x2="103.8" y2="1.9" xlink:href="#h"/><linearGradient id="at" x1="14.6" y1=".5" x2="15.6" y2=".5" xlink:href="#b"/><linearGradient id="au" x1="14.3" y1=".5" x2="15.3" y2=".5" xlink:href="#b"/><linearGradient id="av" x1="103.3" y1="-1.2" x2="101.7" y2="3.8" xlink:href="#h"/><linearGradient id="aw" x1="214" y1=".5" x2="215" y2=".5" xlink:href="#h"/><linearGradient id="ax" x1=".8" y1=".3" x2="-.3" y2="1.1" xlink:href="#h"/><linearGradient id="ay" x1=".3" y1=".2" x2="1" y2="1.1" xlink:href="#b"/><linearGradient id="az" x1="2.7" y1="-.7" x2="-1.8" y2="1.8" xlink:href="#h"/></defs><path d="M66.3 225.8c11.5-22.4 11.7-41.2 4.2-64.7-8.2-26-16.5-59.4-.5-84a107 107 0 0161.8-44.4c31.7-8.3 59 1.8 85.4 19.5 36.3 24.3 98 42.8 140.9 29.5 37.4-11.6 64-46 103.6-54.1 27.4-5.6 68.7-.3 78.9 30.4 2.6 8 3 17 7 24.3 9.5 17.2 31.4 14.6 48 15.5 25.6 1.4 66 20.4 73.5 47s-23.8 36.5-43 43.6c-25.1 9.2-15.7 41.3-9 60 9.2 26.3 24.2 53.6 11.9 81.7-13.4 30.4-51.2 50.3-79.6 64.2-18.1 9-38.6 17-58.6 20.6-25 4.5-48.9-15.2-74-15.3-26 0-55.7 2.5-81.6 5.4-38.6 4.3-69.7 4.3-106.1-10.6-11.5-4.6-23.2-10.4-35.7-11.8-11.6-1.4-23 2-34.5 3-10.3 1.1-20.7.4-31-.8a92.3 92.3 0 01-75-52.5c-16.8-37.4-4.4-72 13.4-106.5z" transform="translate(-31.3 -25.6)" opacity=".6" fill="url(#a)"/><path d="M48.9 232.3c15-9 35.6-8.2 42.6-28.7 12.8-37.5 2.6-78.4 24.7-114 28.7-46.2 95.8-58 145-48.3 51.1 10.1 95.1 43 147.1 50 21.4 3 44.1 1 63.7-8.6 26.2-12.8 47.2-32.2 77.9-31 49.6 1.8 88.3 18.3 99.3 71.2 7.7 36.7-4.2 59.6-21.6 90.7-12.3 21.8-13.2 40.6-7 64.4 7 26.4 13.8 60-2.9 84a105.1 105.1 0 01-62.7 41.6c-31.5 7-57.9-4.3-83.2-23.1-34.6-25.8-94.6-46.9-137.3-35.5-37.4 10-65 43.3-104.3 49.7-27.1 4.5-67.6-2.6-76.3-33.7-2.3-8.2-2.2-17-6-24.6-8.5-17.6-30.2-16-46.5-17.5a96 96 0 01-49.7-21.6c-15.2-12.7-24.9-37.2-13.3-55.2a31 31 0 0110.5-9.8z" transform="translate(-33.3 -23.5)" opacity=".4" fill="url(#i)"/><path d="M61 109.5l185-29.1a19.4 19.4 0 0122 15.1l56 266.1a14.3 14.3 0 01-11.5 17L101 416a13.6 13.6 0 01-15.8-11.2l-42.5-270A22 22 0 0161 109.5z" transform="translate(-31.8 -16.5)" fill="url(#b)"/><path d="M73.6 393.7A15 15 0 0159 381l-5.7-35.8a.6.6 0 111.2-.2l5.7 35.9a13.7 13.7 0 0015.4 11.3l23.8-3.4a.6.6 0 11.1 1.2l-23.8 3.4a14.8 14.8 0 01-2 .2zM52.2 334.7a.6.6 0 01-.6-.5l-1-5.8a.6.6 0 011.3-.2l.9 5.8a.6.6 0 01-.5.7z" fill="#fff"/><path d="M59.5 106.3c25.8-.5 114.3-3.6 185.3-20.5a6 6 0 017.1 4.6l56.8 267.1a6.8 6.8 0 01-5.2 8.1c-30 6.6-153.3 33-198.3 35.4a5.4 5.4 0 01-5.6-4.5L53.3 113.8a6.4 6.4 0 016.1-7.5z" transform="translate(-30 -15.5)" fill="url(#e)"/><path d="M39 103.5c24.1-.5 106.7-3.4 172.9-19a5.5 5.5 0 016.6 4l53 249.2a6.4 6.4 0 01-4.9 7.6c-27.9 6-142.9 30.8-185 33a5 5 0 01-5.2-4.2L33.3 110.4a6 6 0 015.8-6.9z" fill="#fff" opacity=".6"/><path d="M145.6 60.3a19 19 0 00-17.1-.7A8.3 8.3 0 00124 69l4.8 19 21.3-1.4s10-19.3-4.5-26.3zm-6.8 17a5.3 5.3 0 113.5-2.1 5.3 5.3 0 01-3.5 2z" transform="translate(-18.1 -20.2)" fill="url(#j)"/><path d="M111.3 60a1 1 0 01-.9-.9l-.7-3a1 1 0 112-.5l.8 3a1 1 0 01-.8 1.3 1 1 0 01-.4 0zm-1.5-6a1 1 0 01-.8-.8l-.6-2.3a8.4 8.4 0 014.5-9.6 16.4 16.4 0 017.9-1.6 1 1 0 011 1 1 1 0 01-1.1 1 14.4 14.4 0 00-7 1.5 6.3 6.3 0 00-3.3 7.2l.6 2.3a1 1 0 01-.7 1.3 1 1 0 01-.5 0z" fill="#fff"/><path d="M105.5 101.8L104 92a6 6 0 015.1-6.9l67.2-8.2a5.8 5.8 0 016.3 4.5l2 9.2z" transform="translate(-21.5 -17)" fill="url(#k)"/><path d="M104 69.5a.6.6 0 110-1.2l2.9-.5a.6.6 0 01.2 1.2l-3 .5zM86.9 81.7a1 1 0 01-.8-.9l-.6-3.9a6 6 0 015-7l10.6-1.6a1 1 0 01.3 2L91 72a4 4 0 00-3.4 4.6l.6 3.9a1 1 0 01-.8 1.2 1.1 1.1 0 01-.4 0z" fill="#fff"/><path d="M87.6 100.7l116.8-18.4A8.7 8.7 0 01214 88l.2.5a7.5 7.5 0 01-6 9.9L88.6 117.3a4.9 4.9 0 01-5.6-4.3l-.6-5.3a6.4 6.4 0 015.3-7z" transform="translate(-25 -16.1)" fill="url(#l)"/><g opacity=".9"><path d="M228 184.5l-11.6-57a1.1 1.1 0 00-1.3-.8L48.7 152.9a1.1 1.1 0 00-.8.5 1.1 1.1 0 00-.1.9l13.7 58.4a1 1 0 001.2.8l164.4-27.7a1 1 0 001-1.2.8.8 0 000-.1zM214.4 129l2.4 11.6-163.8 26-2.8-11.8zm-151 82L53.5 169l163.7-26 8.4 41z" fill="#fff"/><path d="M67.6 181.6l74.2-12.5a2.5 2.5 0 002-3v-.3a3 3 0 00-3.4-2.2l-74 12.5a2.6 2.6 0 00-2 3v.3a2.8 2.8 0 003.2 2.2zM144 178l-74.7 12.6a2.6 2.6 0 00-2 3.1v.3a2.8 2.8 0 003.1 2.2l75-12.5a2.5 2.5 0 002-3.1l-.1-.3a3 3 0 00-3.3-2.2zM203.5 158.8a2.5 2.5 0 002-3.3 3.3 3.3 0 00-3.5-2.3l-32.6 5.5a2.6 2.6 0 00-2.1 3.3 3.2 3.2 0 003.5 2.3zM209.7 170a3.3 3.3 0 00-3.7-2.3l-32.9 5.5a2.6 2.6 0 00-2 3.3 3.2 3.2 0 003.5 2.3l33-5.5a2.5 2.5 0 002-3.3zM203.6 97a3 3 0 01-2.3 3.5L49.5 128.2a3.1 3.1 0 01-3.6-2.5v-.3a3.1 3.1 0 012.4-3.6l151.9-27.5a2.9 2.9 0 013.3 2.4zM205.8 109.8a3 3 0 01-2.3 3.5L52 141.6a3.1 3.1 0 01-3.7-2.5v-.3a3.1 3.1 0 012.5-3.6l151.6-28a2.9 2.9 0 013.3 2.3zM100 256.2h-.1l-21.7 4a6 6 0 01-7-3.9L66 238.5a4 4 0 01.4-3.1 4.9 4.9 0 013-2.3l7-2c6-1.6 12.6-3.5 16.6-4.3h.1a6.2 6.2 0 016.8 3.1c2 4 3.4 11.9 4.7 20.3a5.5 5.5 0 01-4.6 6zm-30.2-21.4a3 3 0 00-2 1.4 2.3 2.3 0 00-.2 1.8l5.4 17.8a4.2 4.2 0 005 2.6l21.6-3.9a3.7 3.7 0 003.2-4c-1.3-8.3-2.7-16-4.5-19.8a4.4 4.4 0 00-5-2.1 297.5 297.5 0 00-23.5 6.2z" fill="#fff"/><path d="M72.4 236.2c4.5-1.2 14.2-4 18.9-5a4.3 4.3 0 014.7 2c1.6 3.3 2.7 10 3.7 16.1a3.7 3.7 0 01-3.2 4l-17.3 3.1a4 4 0 01-4.7-2.5l-4.3-14.2a2.9 2.9 0 012.2-3.5zM115.9 233.7a1.7 1.7 0 00-1.3 2.6l2.8 6a3.3 3.3 0 003.4 1.6l107.7-20.5a2.3 2.3 0 001.8-2.8l-.7-3.3a2.5 2.5 0 00-2.8-2z" fill="#fff" opacity=".6"/><path d="M96.8 233a3.4 3.4 0 014.8.4l5.7 6.8a1 1 0 001.9-.4l6-25.6a1.2 1.2 0 012.4 0 47.3 47.3 0 01-7.3 35s-6.8-1.3-14-11.5a3.5 3.5 0 01.5-4.7z" transform="translate(-22.9 5.9)" fill="url(#d)"/><path d="M108.3 304.3l-21.7 4a6 6 0 01-7-4l-5.3-17.7a4 4 0 01.4-3.2 4.9 4.9 0 013-2.3l7-1.9c6-1.6 12.6-3.5 16.6-4.3h.1a6.2 6.2 0 016.8 3c2 4 3.4 12 4.7 20.4a5.5 5.5 0 01-4.6 6zM78.2 283a3.1 3.1 0 00-2 1.4 2.3 2.3 0 00-.2 1.8l5.4 17.8a4.2 4.2 0 005 2.6l21.6-4a3.7 3.7 0 003.2-4c-1.4-8.2-2.7-16-4.6-19.7a4.4 4.4 0 00-4.9-2.2c-4 .8-10.9 2.8-16.5 4.4l-7 2z" fill="#fff"/><path d="M80.8 284.3c4.5-1.2 14.2-4 18.9-5a4.3 4.3 0 014.7 2c1.6 3.2 2.7 10 3.7 16a3.7 3.7 0 01-3.2 4l-17.3 3.2A4 4 0 0183 302l-4.3-14.2a2.8 2.8 0 012.2-3.4zM124.3 281.8a1.7 1.7 0 00-1.3 2.5l2.8 6a3.3 3.3 0 003.4 1.7l107.7-20.5a2.3 2.3 0 001.8-2.8l-.7-3.4a2.5 2.5 0 00-2.8-1.9z" fill="#fff" opacity=".6"/><path d="M116.7 352.4l-21.7 4a6 6 0 01-7-4l-5.3-17.7a4 4 0 01.4-3.2 4.9 4.9 0 013-2.3l7-2c6-1.6 12.6-3.5 16.6-4.3h.1a6.2 6.2 0 016.8 3.2c2 4 3.4 11.8 4.8 20.3a5.5 5.5 0 01-4.7 6zM86.6 331a3 3 0 00-2 1.4 2.3 2.3 0 00-.2 1.8l5.4 17.8a4.2 4.2 0 005 2.6l21.6-4a3.7 3.7 0 003.2-4c-1.4-8.2-2.7-16-4.6-19.7a4.4 4.4 0 00-4.9-2.2c-4 .8-10.9 2.8-16.5 4.3l-7 2z" fill="#fff"/><path d="M89.3 332.3c4.4-1.2 14.1-4 18.8-5a4.3 4.3 0 014.7 2.1c1.6 3.2 2.7 9.9 3.7 16a3.7 3.7 0 01-3.2 4L96 352.7a4 4 0 01-4.7-2.6L87 335.8a2.9 2.9 0 012.3-3.5zM132.7 329.9a1.7 1.7 0 00-1.3 2.5l2.8 6a3.3 3.3 0 003.4 1.7l107.7-20.6a2.3 2.3 0 001.8-2.7l-.7-3.4a2.5 2.5 0 00-2.8-2z" fill="#fff" opacity=".6"/></g><path d="M21.8 122.6a.6.6 0 01-.6-.5l-.6-2.3a.6.6 0 111.2-.3l.6 2.3a.6.6 0 01-.4.8.7.7 0 01-.2 0zM20 112.6a.6.6 0 01-.6-.5l-.4-4.8a.6.6 0 111.2 0c0 1.5.2 3.1.4 4.7a.6.6 0 01-.6.6zm-.2-12.5a.6.6 0 01-.6-.6v-.8l.6-4a.6.6 0 011.2.2l-.5 4v.7a.6.6 0 01-.7.5zM22 87.8a.8.8 0 01-.2 0 .6.6 0 01-.4-.7c.4-1.6 1-3.1 1.5-4.6a.6.6 0 011 .4c-.4 1.4-1 3-1.3 4.5a.6.6 0 01-.6.4zM26.4 76a.6.6 0 01-.5-.9l2.3-4.2a.6.6 0 111 .6L27 75.8a.6.6 0 01-.6.3zM33 65.5a.6.6 0 01-.5-1l3.1-3.7a.6.6 0 11.9.8 58 58 0 00-3 3.6.6.6 0 01-.5.2zm8.5-9.2a.6.6 0 01-.4-1c1.2-1.2 2.4-2.2 3.7-3.2a.6.6 0 01.7 1L42 56a.6.6 0 01-.4.2zm10-7.5a.6.6 0 01-.3-1.1l4.2-2.4a.6.6 0 01.6 1.1l-4.2 2.3a.6.6 0 01-.2.1zm64.5-2.2a.6.6 0 01-.2 0c-1.4-.8-2.8-1.5-4.3-2a.6.6 0 11.5-1.2l4.4 2a.6.6 0 01-.3 1.2zm-53.2-3.2a.6.6 0 01-.2-1.2c1.5-.6 3-1 4.6-1.5a.6.6 0 11.3 1.1L63 43.3a.6.6 0 01-.2 0zm41.6-1.4a.6.6 0 01-.1 0c-1.5-.5-3-.9-4.6-1.2a.6.6 0 01.2-1.2c1.6.3 3.2.7 4.7 1.2a.6.6 0 11-.2 1.2zM75 40.2a.6.6 0 11-.1-1.2l4.8-.6a.6.6 0 110 1.2l-4.6.6zm17.2-.6h-.3l-4.4-.3a.6.6 0 110-1.2l4.5.3h.3a.6.6 0 110 1.2zM124.8 52a.6.6 0 01-.4-.1l-2-1.4a.6.6 0 11.7-1l2 1.4a.6.6 0 01-.3 1zM151.3 96.1a.6.6 0 01-.6-.5 65 65 0 00-.4-2.3.6.6 0 111.2-.3l.4 2.4a.6.6 0 01-.5.7zM88 171.6a.6.6 0 110-1.2c1.6 0 3.2-.2 4.7-.3a.6.6 0 11.1 1.1 65 65 0 01-4.7.4zm-7.5-.2h-.9l-3.9-.6a.6.6 0 11.2-1.1l3.8.4.8.1a.6.6 0 010 1.2zm19.8-1.4a.6.6 0 11-.2-1.2c1.6-.3 3-.7 4.5-1.2a.6.6 0 11.4 1.2l-4.6 1.2zm-32-.7a.5.5 0 01-.2 0l-4.5-1.4a.6.6 0 11.4-1.2c1.5.6 3 1 4.5 1.4a.6.6 0 01-.2 1.2zm43.7-3.1a.6.6 0 01-.3-1.1c1.5-.6 2.9-1.3 4.2-2a.6.6 0 01.6 1l-4.3 2a.7.7 0 01-.2.1zm-55.2-1.3a.6.6 0 01-.3 0l-4.2-2.2a.6.6 0 01.6-1l4.1 2.1a.6.6 0 01-.2 1.1zm66-4.6a.6.6 0 01-.4-1.1 71 71 0 003.8-2.8.6.6 0 01.7 1l-3.8 2.8a.6.6 0 01-.3 0zm9.5-7.8a.6.6 0 01-.4-1 68 68 0 003.2-3.4.6.6 0 01.9.7l-3.3 3.5a.6.6 0 01-.4.2zm8-9.5a.6.6 0 01-.6-1 64 64 0 002.5-3.8.6.6 0 111 .6l-2.5 4a.6.6 0 01-.5.2zm6-10.7a.7.7 0 01-.3 0 .6.6 0 01-.3-.9l1.7-4.3a.6.6 0 111.2.4l-1.8 4.4a.6.6 0 01-.5.4zm3.9-11.7a.5.5 0 01-.2 0 .6.6 0 01-.4-.7c.3-1.5.7-3 .9-4.6a.6.6 0 011.2.2l-1 4.6a.6.6 0 01-.5.5zm1.7-12.2a.6.6 0 01-.6-.6V103a.6.6 0 111.2 0v4.7a.6.6 0 01-.6.6zM46.2 158.5a.6.6 0 01-.3-.1l-2-1.5a.6.6 0 01.8-1l1.9 1.5a.6.6 0 01-.4 1.1z" fill="#fff"/><path d="M77.5 158.1a.8.8 0 001 .3l9-3.1a42 42 0 0012 6.8l2 9.4a.8.8 0 00.6.6l11.5 1.4a.8.8 0 00.8-.4l4.3-8.7a42 42 0 0013.1-3.6l8.1 5.3a.8.8 0 001 0l9-7.2a.8.8 0 00.3-.9l-3-9.1a42.2 42.2 0 006.7-11.9l9.4-2a.8.8 0 00.6-.6l1.5-11.5a.8.8 0 00-.5-.8l-8.6-4.3a42.2 42.2 0 00-3.7-13.1l5.3-8.1a.8.8 0 000-1l-7.1-9.1a.8.8 0 00-1-.3l-9 3.1a42 42 0 00-12-6.7l-2-9.5a.8.8 0 00-.6-.6l-11.5-1.4a.8.8 0 00-.8.4l-4.3 8.7a42 42 0 00-13.1 3.6l-8.1-5.2a.8.8 0 00-1 0l-9 7.1a.8.8 0 00-.3.9l3 9.1a42.2 42.2 0 00-6.7 11.9l-9.4 2a.8.8 0 00-.6.7l-1.5 11.5a.8.8 0 00.4.8l8.7 4.2a42 42 0 003.6 13.2l-5.2 8a.8.8 0 000 1z" transform="translate(-28.3 -18)" fill="url(#c)"/><path d="M85.8 115.5a11.2 11.2 0 111.4 0 10.8 10.8 0 01-1.4 0zm1.3-1zM85.8 95a9.4 9.4 0 101.2 18.7A9.4 9.4 0 0085.8 95z" fill="#fff"/><path d="M86 133a28.1 28.1 0 01-3.6-.2 29 29 0 01-6-1.4l.7-1.7a28 28 0 005.6 1.3l.9.1a27 27 0 0029.2-23l.1-.6a27 27 0 10-51.7 7.6l-1.6.7a28.9 28.9 0 1155.3-11.7 29.9 29.9 0 01-.3 3.6A29 29 0 0186 133z" fill="#fff"/><path d="M153.2 97.2l5-2.2a23.4 23.4 0 006.9 3.3l1.5 5.1a.4.4 0 00.4.4l6.5.3a.4.4 0 00.4-.3l2-5a23.7 23.7 0 007.2-2.7l4.8 2.6a.5.5 0 00.5 0l4.8-4.4a.4.4 0 000-.5l-2-5a23.5 23.5 0 003.2-7l5.2-1.5a.4.4 0 00.3-.4l.3-6.4a.4.4 0 00-.3-.5l-5-2a23.6 23.6 0 00-2.7-7.1l2.6-4.8a.4.4 0 000-.5l-4.4-4.8a.4.4 0 00-.5-.1l-5 2.1a23.6 23.6 0 00-6.9-3.2l-1.5-5.2a.4.4 0 00-.4-.3l-6.5-.3a.4.4 0 00-.5.3l-2 5a23.5 23.5 0 00-7.1 2.6l-4.8-2.6a.4.4 0 00-.5 0l-4.8 4.5a.4.4 0 00-.1.5l2.2 5a23.6 23.6 0 00-3.3 6.9l-5.2 1.5a.4.4 0 00-.3.4l-.3 6.5a.5.5 0 00.3.4l5 2a23.5 23.5 0 002.6 7.2l-2.6 4.8a.5.5 0 00.1.5l4.4 4.7a.5.5 0 00.5.2z" transform="translate(-15 -22)" fill="url(#m)"/><path d="M156.6 60a6.7 6.7 0 111.4-.1 6.5 6.5 0 01-1.4.1zm0-11.5a5 5 0 00-1 0 4.9 4.9 0 002 9.6 4.9 4.9 0 00-1-9.6zM127 72.4a.6.6 0 01-.4-.3 26 26 0 01-1.2-2.1.6.6 0 011-.6l1.2 2a.6.6 0 01-.5 1zM123 63.3a.6.6 0 01-.5-.5l-.6-2.3a21.2 21.2 0 01-.4-2.3.6.6 0 111.2-.2 32.6 32.6 0 001 4.5.6.6 0 01-.5.7.5.5 0 01-.1 0zM122 51h-.1a.6.6 0 01-.6-.6 35.5 35.5 0 01.7-4.7.6.6 0 111.2.3 33.1 33.1 0 00-.7 4.5.6.6 0 01-.6.5zm3-11.7a.5.5 0 01-.2 0 .6.6 0 01-.3-.9 35 35 0 012.2-4.2.6.6 0 011 .7 34.9 34.9 0 00-2.1 4 .6.6 0 01-.6.4zm7-10a.6.6 0 01-.5-1 35.3 35.3 0 013.6-3.2.6.6 0 01.7 1 34.3 34.3 0 00-3.4 3 .6.6 0 01-.5.2zm9.9-7a.6.6 0 01-.3-1.1 35.4 35.4 0 014.4-1.8.6.6 0 11.4 1.2 34.8 34.8 0 00-4.3 1.6.6.6 0 01-.2 0zm11.7-3.1a.6.6 0 010-1.2 34.8 34.8 0 014.7-.1.6.6 0 010 1.2 34.4 34.4 0 00-4.6 0zM168.1 21a.6.6 0 01-.2 0l-2.2-.7a.6.6 0 11.3-1.1l2.3.7a.6.6 0 01-.2 1.2zM188.7 40.3a.6.6 0 01-.6-.4l-1-2.1a.6.6 0 011-.6c.5.7.8 1.5 1.1 2.2a.6.6 0 01-.3.8.7.7 0 01-.2 0zM156.6 88.8a35 35 0 01-3.4-.2.6.6 0 010-1.2 33.2 33.2 0 004.6.2.6.6 0 010 1.1h-1.2zm8.6-1.1a.6.6 0 01-.2-1.2 34.7 34.7 0 004.3-1.4.6.6 0 01.4 1.2 35.9 35.9 0 01-4.4 1.4.6.6 0 01-.1 0zm10.9-4.9a.6.6 0 01-.3-1 34.5 34.5 0 003.5-2.8.6.6 0 11.8.9 36.1 36.1 0 01-3.7 2.8.6.6 0 01-.3.1zm8.6-8.3a.6.6 0 01-.5-1 35.5 35.5 0 002.5-3.7.6.6 0 111 .6 36.4 36.4 0 01-2.5 4 .6.6 0 01-.5.1zm5.3-10.7a.5.5 0 01-.1 0 .6.6 0 01-.4-.8 34.5 34.5 0 001-4.3.6.6 0 111.2.1 35 35 0 01-1 4.6.6.6 0 01-.7.4zm1.4-11.9a.6.6 0 01-.6-.6 35.2 35.2 0 00-.6-4.4.6.6 0 011.2-.3 35.7 35.7 0 01.6 4.7.6.6 0 01-.5.6zM146 87a.5.5 0 01-.3 0c-.7-.2-1.5-.4-2.3-.8a.6.6 0 11.5-1l2.2.7a.6.6 0 01-.2 1.2z" fill="#fff"/><path d="M156.7 69.8h-.7a16.8 16.8 0 01-3.3-.5h-.2l.5-1.7a14.8 14.8 0 0018.5-13.4V53.2a14.8 14.8 0 10-29.6-.7v.7a14.8 14.8 0 001.8 7l-1.6.8a16.5 16.5 0 01-2-7.8v-.8a16.6 16.6 0 1133.2.8v.7a16.6 16.6 0 01-16.6 15.8z" fill="#fff"/><path d="M473.7 347.5c19.2 3.8 43.8-17.1 51.7-40 8.1-23.6-6.8-33.5-6.7-66.2.2-37.2 19.5-42.8 32.3-92.9 2.9-11.3 19.6-76.7-1.1-89-19.1-11.3-72.9 21.3-82.3 62.9-6.7 29.7 14 42.2 6 76.7-6.9 30.4-25.2 30.8-32.2 60-8.5 35.7 7 83.4 32.3 88.5z" transform="translate(34.8 -20.3)" fill="url(#n)"/><path d="M470.1 347.3c-5.2-40 5-101.9 14.3-146.6 10.2-48.5 21.8-88 21.9-88.4l1.6.5c-.1.3-11.7 39.8-21.8 88.3-9.4 44.6-19.5 106.2-14.4 146z" transform="translate(39.7 -11)" fill="url(#o)"/><path d="M496.8 290.7c-21-11-28.2-48.5-16.3-60.7 8-8.3 19.6.4 30.8-8.1 14.3-11 3.8-31.5 15-58.2 9.5-22.7 32.4-44.2 45.7-39.8 14 4.6 21.4 38.8 9.5 59.5-7.8 13.4-19.7 14-22.3 26.5-3 14.4 11.5 21 11.6 35 .1 25.2-46.2 60.3-74 45.8z" transform="translate(40.8 -9.2)" fill="url(#p)"/><path d="M503.4 293a.8.8 0 01-.3 0 .9.9 0 01-.4-1.1c27.8-57.4 36-124 36-124.7a.9.9 0 011.8.2c-.1.7-8.3 67.6-36.3 125.2a.9.9 0 01-.8.5z" transform="translate(45.4 -2)" fill="url(#q)"/><path d="M606 182.5a.4.4 0 01-.3 0 .4.4 0 010-.7c8.7-11.3 18.5-28.2 15-44.9a29.2 29.2 0 00-8-15.2.4.4 0 11.5-.6c.2.3 6.1 5.5 8.3 15.7 2 9.3 1 24.9-15.2 45.5a.4.4 0 01-.3.2zM535.6 276.5a.4.4 0 01-.3-.2c-13.5-19.7-18.1-35-13.7-45.3 4-9.2 13.9-10.9 14-10.9a.4.4 0 01.4.3.4.4 0 01-.3.5c-.1 0-9.6 1.7-13.4 10.4-4.3 10.1.3 25 13.7 44.5a.4.4 0 01-.4.7z" fill="#f0f0f0"/><path d="M554.5 222.7l7.4.3a6.9 6.9 0 016.6 7l-.6 152.6a7.2 7.2 0 01-7.3 7.2l-51-.5z" transform="translate(46.6 7.4)" fill="url(#r)"/><path d="M471.8 224.5l94-5.7a3.3 3.3 0 013.6 3.4l-3.7 158a7 7 0 01-7.1 7l-66.2-2z" transform="translate(40.3 6.8)" fill="url(#s)"/><path d="M476.2 228.6l82.6-11.6a3.5 3.5 0 014 3.5l-1.9 159.6a4.8 4.8 0 01-4.7 4.8l-60.8 2.5z" transform="translate(41 6.5)" fill="url(#t)"/><path d="M458.7 220.3l90.6-6.7a7.9 7.9 0 018.5 7.7l2.1 163.4a6.9 6.9 0 01-6.7 7l-83.7 1a7.4 7.4 0 01-7.5-7L450.3 230a9.1 9.1 0 018.4-9.6z" transform="translate(36.6 6)" fill="url(#u)"/><rect width="14.1" height="55.8" rx="4.9" transform="rotate(-.7 20583.7 -50120.8)" fill="url(#v)"/><path d="M508.6 185.3l9.4.5a8.7 8.7 0 018.2 8.7l-.7 192.5a9.1 9.1 0 01-9.2 9l-64.2-.5z" transform="translate(37 1.2)" fill="url(#f)"/><path d="M404.4 187.6l118.6-7a4.2 4.2 0 014.4 4.2l-4.6 199.3a8.8 8.8 0 01-9 8.6l-83.5-2.4z" transform="translate(29 .4)" fill="url(#w)"/><path d="M409.9 192.8L514 178.2a4.4 4.4 0 015 4.5l-2.3 201.2a6.1 6.1 0 01-5.9 6l-76.7 3.1z" transform="translate(29.9)" fill="url(#x)"/><path d="M387.8 182.3L502 174a9.9 9.9 0 0110.6 9.8l2.8 206a8.7 8.7 0 01-8.6 8.8l-105.4 1.2a9.4 9.4 0 01-9.5-8.8l-14.8-196.4a11.5 11.5 0 0110.6-12.2z" transform="translate(24.4 -.8)" fill="url(#y)"/><rect width="17.8" height="70.3" rx="4.9" transform="rotate(-.7 16988.2 -45087.5)" fill="url(#z)"/><g opacity=".7"><path d="M416 82.2c-2.3-10.8-8-7.1-17.5-10.4s-6.7-15.3-12.6-19c-7.9-4.8-15-.3-20 6.1-8.1 10.7-13.7 2-23.4 6.3-5.6 2.5-3.2 6-10.8 7.4-5.2 1-11-1.3-16 0-4 1.1-6.7 3-7.6 6.6l3.4 1.4c14.5 5.3 34.3 3.5 49 4.3 5 .3 57.1 5 55.5-2.7z" transform="translate(12.8 -21.4)" fill="url(#A)"/><path d="M446.8 32.7a9.6 9.6 0 00-9.8-3.4c-4 1-6.3 4.8-10 6.3-6.4 2.6-15.3-2.6-20.3 4.2-6 8.4-10.6 2.1-10.6 7.8s41.4 1.5 61.9 1.8c3 0 15.8-.2 10.3-6.3-1.8-2-4.2-2.2-6.5-2.7-3-.6-10-.9-12.2-3.2-1.1-1.2-1.6-3-2.6-4.4z" transform="translate(27.6 -25)" fill="url(#B)"/></g><path d="M241.2 255.9l-9.4 83.9h108.5l-14.1-83.9z" transform="translate(38.9 43)" fill="url(#C)"/><path d="M117 107.6v192.1a29.1 29.1 0 0028.4 29.2c70.2 1.8 315.6 6.2 382.4 5.2a21.5 21.5 0 0021-20.8c1.3-44.7 3.5-152-4.3-201.8a22.1 22.1 0 00-21-18.7c-58.9-1.9-319-7.8-385.8-6.4a21.2 21.2 0 00-20.7 21.2z" transform="translate(-19.3 -15.5)" fill="url(#D)"/><path d="M127.3 105.6v182.5a16.9 16.9 0 0016.6 17l372.5 4.5a16.4 16.4 0 0016.7-16.4l.6-180.8a12 12 0 00-11.7-12l-381.3-7.8a13 13 0 00-13.4 13z" transform="translate(-17.5 -14.4)" fill="url(#E)"/><path d="M518.4 302.8l-408.6-7a.6.6 0 110-1.1l408.6 7a.6.6 0 110 1.1zM318.1 311.3a4.8 4.8 0 114.9-4.8 4.8 4.8 0 01-4.9 4.8zm0-8.5a3.7 3.7 0 103.7 3.7 3.7 3.7 0 00-3.7-3.7z" fill="#fff" opacity=".7"/><path d="M401.8 371.4H243c-4.3 0-7.5-3-6.7-6.3l2-8c.6-2.5 3.3-4.3 6.5-4.4l153-4.8c3.4 0 6.3 1.7 7 4.2l3.7 12.8c1 3.4-2.3 6.5-6.7 6.5z" transform="translate(.7 28.4)" fill="url(#F)"/><path d="M329.2 383.4a.6.6 0 110-1.2h6.6a.6.6 0 010 1.1zM242.9 395.5h-.1a.6.6 0 01-.5-.7l1-5.8a6.6 6.6 0 016.4-5.6l69.6-1a.6.6 0 010 1.2l-69.6 1a5.4 5.4 0 00-5.3 4.5l-1 5.9a.6.6 0 01-.5.5z" fill="#fff"/><path d="M121.6 276.6c.8-16.7 5-165 3.1-177.8-3-22 20.3-14.8 52.7-15.5s304.6 4 311.5 4.6c22.5 2.3 18.7 16 16 64.4l-6.7 124a15.7 15.7 0 01-16.3 14.4c-65.5-1.2-316.6-6-333.3-5.8-19.3.1-27.3-1.7-27-8.3z" fill="#fff" opacity=".3"/><path d="M492.8 122.2l-.5 7.6-8.8 136.8a17 17 0 01-17.3 15.9l-308.8-6.2a17 17 0 01-16.5-16.2l-6.1-134.6-.6-12.4a17 17 0 0117.4-17.7l324.7 8.8a17 17 0 0116.5 18z" fill="#fff" opacity=".4"/><path d="M506.8 134l-.5 7.7-357.5-4.3-.6-12.4a17 17 0 0117.4-17.7l324.8 8.8a17 17 0 0116.4 18z" transform="translate(-14 -12)" opacity=".5" fill="url(#G)"/><path d="M226.2 146.6a7.4 7.4 0 00-7.1-7.2l-58.5-2.4a7.4 7.4 0 00-7.7 8l10.4 125.6a7.4 7.4 0 007.4 6.8h52a7.5 7.5 0 007.5-7.7z" transform="translate(-13.2 -7)" opacity=".5" fill="url(#H)"/><g opacity=".5"><path d="M485.3 147.7a7.5 7.5 0 00-5.4-2.5l-250-4a7.4 7.4 0 00-7.6 7.8l2 45a7.4 7.4 0 007.3 7.2l242.6 5.1a7.4 7.4 0 007.5-6.5l5.4-46.3a7.4 7.4 0 00-1.8-5.8z" transform="translate(-1.6 -6.2)" fill="url(#I)"/><path d="M471.5 205.8l-238.3-5.2a7.4 7.4 0 00-7.5 7.7l1.8 49.3a7.4 7.4 0 007.2 7.1l232.9 5.3a7.4 7.4 0 007.5-6.9l3.7-49.3a7.4 7.4 0 00-7.3-8z" transform="translate(-1 3.7)" fill="url(#J)"/></g><path d="M203.6 145a3 3 0 01-3 3H151a3 3 0 01-3-3 3 3 0 013-3h49.6a3 3 0 013 3zM205.4 197a3 3 0 01-3 3h-49.6a3 3 0 01-3-3 3 3 0 013-3h49.6a3 3 0 013 3zM205.4 210.2a3 3 0 01-3 3h-49.6a3 3 0 01-3-3 3 3 0 013-3h49.6a3 3 0 013 3zM207.8 224a3 3 0 01-3 2.9h-49.6a3 3 0 01-3-3 3 3 0 013-3h49.6a3 3 0 013 3z" fill="#fff" opacity=".8"/><path d="M158.5 159.7h-5a1.4 1.4 0 01-1.4-1.2l-.5-4.2a1 1 0 01.2-.7 1 1 0 01.8-.4l1.6-.2 4-.2a1.4 1.4 0 011.4 1 21.3 21.3 0 01.2 4.7 1.2 1.2 0 01-1.3 1.2zm-5.9-6.1a.7.7 0 00-.5.2.5.5 0 00-.1.4l.4 4.2a1 1 0 001 .8h5a.9.9 0 001-.7 21 21 0 00-.2-4.6 1 1 0 00-1-.7l-4 .2-1.6.2z" fill="#fff"/><path d="M153.2 154l4.4-.3a1 1 0 011 .7 17.3 17.3 0 01.1 3.7.8.8 0 01-.9.8h-4a1 1 0 01-1-.8l-.3-3.4a.7.7 0 01.7-.7z" fill="#fff" opacity=".6"/><path d="M203.6 156.4a3 3 0 01-3 3H166a3 3 0 01-3-3 3 3 0 013-3h34.6a3 3 0 013 3z" fill="#fff" opacity=".8"/><path d="M159 170.4h-5a1.4 1.4 0 01-1.3-1.2l-.5-4.2a1 1 0 01.2-.7 1 1 0 01.8-.4l1.7-.1 3.9-.3a1.4 1.4 0 011.4 1 21.3 21.3 0 01.2 4.8 1.2 1.2 0 01-1.3 1.1zm-5.8-6a.7.7 0 00-.5.2.5.5 0 00-.1.4l.4 4.2a1 1 0 001 .8h5a.9.9 0 001-.7 21 21 0 00-.2-4.7 1 1 0 00-1-.7l-4 .3-1.6.1z" fill="#fff"/><path d="M153.8 164.8l4.4-.3a1 1 0 011 .6 17.3 17.3 0 01.1 3.8.8.8 0 01-.9.8h-4a1 1 0 01-1-.9l-.3-3.3a.7.7 0 01.7-.7z" fill="#fff" opacity=".6"/><path d="M204.2 167.2a3 3 0 01-3 3h-34.6a3 3 0 01-3-3 3 3 0 013-3h34.6a3 3 0 013 3z" fill="#fff" opacity=".8"/><g opacity=".8" fill="#fff"><path d="M159.7 181.2h-5a1.4 1.4 0 01-1.5-1.2l-.4-4.2a1 1 0 01.2-.7 1 1 0 01.8-.4l1.6-.2 4-.2a1.4 1.4 0 011.4 1 21.3 21.3 0 01.2 4.7 1.2 1.2 0 01-1.3 1.2zm-5.9-6.1a.7.7 0 00-.5.2.5.5 0 00-.1.4l.4 4.2a1 1 0 001 .8h5a.9.9 0 001-.7 21 21 0 00-.2-4.6 1 1 0 00-1-.7l-4 .2-1.6.2z"/><path d="M154.4 175.5l4.4-.3a1 1 0 011 .7 17.3 17.3 0 01.1 3.7.8.8 0 01-.9.8h-4a1 1 0 01-1-.8l-.3-3.4a.7.7 0 01.7-.7z" opacity=".6"/><path d="M204.8 178a3 3 0 01-3 3h-34.6a3 3 0 01-3-3 3 3 0 013-3h34.6a3 3 0 013 3z" opacity=".8"/></g><path d="M165 240.3h-5a1.4 1.4 0 01-1.4-1.2l-.4-4.2a1 1 0 01.2-.7 1 1 0 01.8-.4l1.6-.1 4-.3a1.4 1.4 0 011.3 1 21.3 21.3 0 01.2 4.8 1.2 1.2 0 01-1.3 1.1zm-5.8-6.1a.7.7 0 00-.5.2.5.5 0 00-.1.4l.4 4.3a1 1 0 001 .8h5a.9.9 0 001-.7 21 21 0 00-.2-4.7 1 1 0 00-1-.7l-4 .3-1.6.1z" fill="#fff"/><path d="M159.7 234.7l4.5-.4a1 1 0 011 .7 17.3 17.3 0 010 3.8.8.8 0 01-.8.7h-4a1 1 0 01-1-.8l-.3-3.4a.7.7 0 01.6-.6z" fill="#fff" opacity=".6"/><path d="M210.2 237a3 3 0 01-3 3h-34.7a3 3 0 01-3-3 3 3 0 013-3h34.7a3 3 0 013 3z" fill="#fff" opacity=".8"/><path d="M165.6 251h-5a1.4 1.4 0 01-1.4-1.1l-.4-4.3a1 1 0 01.2-.7 1 1 0 01.8-.3l1.6-.2 4-.2a1.4 1.4 0 011.3 1 21.3 21.3 0 01.2 4.7 1.2 1.2 0 01-1.3 1.2zm-5.8-6a.7.7 0 00-.5.2.5.5 0 00-.1.4l.4 4.2a1 1 0 001 .8h5a.9.9 0 001-.7 21 21 0 00-.2-4.6 1 1 0 00-1-.7l-4 .2-1.6.2z" fill="#fff"/><path d="M160.3 245.4l4.5-.3a1 1 0 011 .7 17.3 17.3 0 010 3.7.8.8 0 01-.8.8h-4a1 1 0 01-1-.8l-.3-3.4a.7.7 0 01.6-.7z" fill="#fff" opacity=".6"/><path d="M210.8 247.8a3 3 0 01-3 3H173a3 3 0 01-3-3 3 3 0 013-3h34.7a3 3 0 013 3z" fill="#fff" opacity=".8"/><path d="M166.2 261.8h-5a1.4 1.4 0 01-1.4-1.2l-.4-4.2a1 1 0 01.2-.7 1 1 0 01.8-.4l1.6-.1 4-.3a1.4 1.4 0 011.3 1 21.3 21.3 0 01.2 4.8 1.2 1.2 0 01-1.3 1.1zm-5.8-6.1a.7.7 0 00-.5.2.5.5 0 00-.1.4l.4 4.3a1 1 0 001 .8h5a.9.9 0 001-.7 21 21 0 00-.2-4.7 1 1 0 00-1-.7l-4 .3-1.6.1z" fill="#fff"/><path d="M161 256.2l4.4-.4a1 1 0 011 .7 17.3 17.3 0 010 3.8.8.8 0 01-.8.7h-4a1 1 0 01-1-.8l-.3-3.3a.7.7 0 01.6-.7z" fill="#fff" opacity=".6"/><path d="M211.4 258.6a3 3 0 01-3 3h-34.7a3 3 0 01-3-3 3 3 0 013-3h34.7a3 3 0 013 3z" fill="#fff" opacity=".8"/><path d="M432.7 123.5a6.9 6.9 0 117-6.8 6.9 6.9 0 01-7 6.8zm0-12.5a5.7 5.7 0 105.7 5.7 5.7 5.7 0 00-5.7-5.7zM453 123.5a6.9 6.9 0 117-6.8 6.9 6.9 0 01-7 6.8zm0-12.5a5.7 5.7 0 105.7 5.7 5.7 5.7 0 00-5.6-5.7zM473.4 123.5a6.9 6.9 0 116.8-6.8 6.9 6.9 0 01-6.8 6.8zm0-12.5a5.7 5.7 0 105.6 5.7 5.7 5.7 0 00-5.6-5.7z" fill="#fff"/><path d="M463.6 220.6a4.6 4.6 0 00-3.4-1.6l-219-5.7a4.6 4.6 0 00-4.6 5l4.6 38.8a4.6 4.6 0 004.4 4l209.3 6.2a4.6 4.6 0 004.7-4l5-39.2a4.6 4.6 0 00-1-3.5z" fill="#fff" opacity=".8"/><g opacity=".8"><path d="M432.6 225.3a2.1 2.1 0 002.3-2.1 2.5 2.5 0 00-2.5-2.2L260 216.3c-1.3 0-1.7.8-1 1.9l1.5 2a5.5 5.5 0 003.8 1.9z" transform="translate(4.5 6.4)" fill="url(#K)" opacity=".6"/><path d="M259.8 226.4c-1.3 0-1.7.8-1 1.9l1.5 1.9a5.5 5.5 0 003.8 2l168.3 3.1a2.1 2.1 0 002.3-2 2.5 2.5 0 00-2.5-2.2z" transform="translate(4.5 8)" fill="url(#L)" opacity=".6"/><path d="M259.6 236.6c-1.3 0-1.7.8-1 1.9l1.5 1.9a5.5 5.5 0 003.8 2l168.3 3.2a2.1 2.1 0 002.3-2.1 2.5 2.5 0 00-2.4-2.2z" transform="translate(4.4 9.8)" fill="url(#M)" opacity=".6"/></g><path d="M236.5 151.5h-5a1.4 1.4 0 01-1.4-1.2l-.4-4.3a1 1 0 01.2-.6 1 1 0 01.8-.4l1.6-.2 4-.2a1.4 1.4 0 011.4 1 21.3 21.3 0 01.1 4.7 1.2 1.2 0 01-1.3 1.2zm-5.8-6.1a.7.7 0 00-.5.2.6.6 0 00-.1.4l.4 4.2a1 1 0 001 .8h5a.9.9 0 001-.7 21.4 21.4 0 00-.2-4.6 1 1 0 00-1-.7l-4 .2-1.6.2z" fill="#fff"/><path d="M231.2 145.8l4.5-.3a1 1 0 011 .6 17.2 17.2 0 01.1 3.8.8.8 0 01-.9.8h-4a1 1 0 01-1-.8l-.3-3.4a.7.7 0 01.6-.7z" fill="#fff" opacity=".6"/><path d="M278 150.2v.1l-1.3 36.9a4.4 4.4 0 01-4.5 4.3l-25.8-.4a4.8 4.8 0 01-3.4-1.5 5.2 5.2 0 01-1.4-3.5l-.8-38.9a4.4 4.4 0 014.5-4.5l24.6.3z" fill="#fff"/><path d="M272.7 155.4c-1 .3-6.3 1.9-7.7-.5-1.5-2.6-.5-6.8-.5-6.8l8.1 7.2z" transform="translate(5.4 -5)" fill="url(#N)"/><g transform="translate(244.6 156.2)"><circle cx="15" cy="15" r="15" fill="#894b9d"/><circle cx="11.9" cy="11.9" r="11.9" transform="translate(3.1 3.1)" fill="#b49aca"/><path d="M24.7 8A18 18 0 008 24.8 12 12 0 1124.7 8z" fill="#c3aed5"/><path d="M15 0a15 15 0 1010.7 4.4A15 15 0 0015 0zm0 28a13 13 0 1113-13 13 13 0 01-13 13z" fill="#955ba5"/><circle cx="2.6" cy="2.6" r="2.6" transform="translate(12.4 4.7)" fill="#894b9d"/><path d="M22.3 11.4l-5.4.5h-3.1a4 4 0 01-.6 0l-5.4-.5a1 1 0 00-1 1.5 1 1 0 00.8.6l4.4.4a1 1 0 011 1v1.2a2.5 2.5 0 01-.2 1l-2.5 6.3a1 1 0 101.8.9l2.4-5.8a.5.5 0 01.5-.4.5.5 0 01.5.4l2.4 5.8a1 1 0 001.9-.9L17.3 17a2.5 2.5 0 01-.2-.9v-1.2a1 1 0 011-1l4.3-.4a1 1 0 10-.1-2z" fill="#894b9d"/></g><path d="M296.9 151.5h-5a1.4 1.4 0 01-1.4-1.2l-.5-4.3a1 1 0 01.2-.6 1 1 0 01.8-.4l1.7-.2 3.9-.2a1.4 1.4 0 011.4 1 21.3 21.3 0 01.2 4.7 1.2 1.2 0 01-1.3 1.2zm-5.9-6.1a.7.7 0 00-.5.2.6.6 0 00-.1.4l.4 4.2a1 1 0 001 .8h5a.9.9 0 001-.7 21.4 21.4 0 00-.2-4.6 1 1 0 00-1-.7l-4 .2-1.6.2z" fill="#fff"/><path d="M291.6 145.8l4.4-.3a1 1 0 011 .6 17.2 17.2 0 01.1 3.8.8.8 0 01-.9.8h-4a1 1 0 01-1-.8l-.3-3.4a.7.7 0 01.7-.7z" fill="#fff" opacity=".6"/><path d="M338.4 150.2v.1l-1.3 36.9a4.5 4.5 0 01-4.6 4.3l-25.8-.4a4.8 4.8 0 01-3.4-1.5 5.2 5.2 0 01-1.4-3.5l-.8-38.9a4.4 4.4 0 014.5-4.5l24.6.3z" fill="#fff"/><path d="M324.4 155.4h-.1c-.9.3-6.3 1.9-7.7-.5-1.5-2.6-.5-6.8-.5-6.8l8.2 7.2z" transform="translate(14 -5)" fill="url(#N)"/><path d="M357.2 151.5h-5a1.4 1.4 0 01-1.4-1.2l-.5-4.3a1 1 0 01.2-.6 1 1 0 01.8-.4l1.7-.2 3.9-.2a1.4 1.4 0 011.4 1 21.3 21.3 0 01.2 4.7 1.2 1.2 0 01-1.3 1.2zm-5.9-6.1a.7.7 0 00-.5.2.6.6 0 000 .4l.4 4.2a1 1 0 001 .8h5a.9.9 0 00.9-.7 21.4 21.4 0 00-.2-4.6 1 1 0 00-1-.7l-4 .2-1.6.2z" fill="#fff"/><path d="M351.9 145.8l4.4-.3a1 1 0 011 .6 17.2 17.2 0 01.1 3.8.8.8 0 01-.8.8h-4a1 1 0 01-1-.8l-.4-3.4a.7.7 0 01.7-.7z" fill="#fff" opacity=".6"/><path d="M398.7 150.2v.1l-1.3 36.9a4.4 4.4 0 01-4.6 4.3l-25.8-.4a4.8 4.8 0 01-3.3-1.5 5.2 5.2 0 01-1.5-3.5l-.7-38.9a4.4 4.4 0 014.4-4.5l24.6.3z" fill="#fff"/><path d="M376 155.4c-1 .3-6.3 1.9-7.7-.5-1.5-2.6-.5-6.8-.5-6.8l8.1 7.2z" transform="translate(22.8 -5)" fill="url(#N)"/><path d="M417.5 151.5h-5a1.4 1.4 0 01-1.4-1.2l-.4-4.3a1 1 0 01.2-.6 1 1 0 01.7-.4l1.7-.2 4-.2a1.4 1.4 0 011.3 1 21.3 21.3 0 01.2 4.7 1.2 1.2 0 01-1.3 1.2zm-5.8-6.1a.7.7 0 00-.5.2.6.6 0 00-.2.4l.5 4.2a1 1 0 001 .8h5a.9.9 0 00.9-.7 21.4 21.4 0 00-.2-4.6 1 1 0 00-1-.7l-3.9.2-1.7.2z" fill="#fff"/><path d="M412.2 145.8l4.4-.3a1 1 0 011 .6 17.2 17.2 0 01.2 3.8.8.8 0 01-1 .8h-4a1 1 0 01-.9-.8l-.3-3.4a.7.7 0 01.6-.7z" fill="#fff" opacity=".6"/><path d="M459 150.2v.1l-1.3 36.9a4.4 4.4 0 01-4.6 4.3l-25.8-.4a4.8 4.8 0 01-3.3-1.5 5.2 5.2 0 01-1.5-3.5l-.7-38.9a4.4 4.4 0 014.4-4.5l24.7.3z" fill="#fff"/><path d="M427.7 155.4h-.1c-.9.3-6.3 1.9-7.6-.5-1.6-2.6-.6-6.8-.6-6.8l8.2 7.2z" transform="translate(31.4 -5)" fill="url(#N)"/><path d="M422.4 174.5V185a2 2 0 002 2h5a1 1 0 001.1-1v-.4a1 1 0 01.5-.9 1 1 0 011 0l1.6.8a2 2 0 003-1.8v-1.8l1-1a1 1 0 00-.4-1.6l-1.3-.6a1 1 0 01.6-1.8h1a1 1 0 001-1v-1a1 1 0 011-1h1.3a1 1 0 00.9-.5 1 1 0 000-1l-1.6-2.7a5.9 5.9 0 01-.6-4 7.8 7.8 0 000-1.4c0-5.8-6.2-10.5-14-10.5h-1a2 2 0 00-2 2z" fill="#fdd7ad"/><path d="M448.4 189.4a1 1 0 01-.7-1.7 10 10 0 000-14.2 1 1 0 011.4-1.4 12 12 0 010 17 1 1 0 01-.7.3z" fill="#ff5364"/><path d="M445.6 186.6a1 1 0 01-.8-1.7 6 6 0 000-8.6 1 1 0 01-.2-1 1 1 0 01.7-.7 1 1 0 011 .3 8 8 0 010 11.4 1 1 0 01-.7.3z" fill="#ff5364"/><path d="M442.7 183.7a1 1 0 01-.7-1.7 2 2 0 000-2.8 1 1 0 111.4-1.4 4 4 0 010 5.7 1 1 0 01-.7.2z" fill="#ff5364"/><path d="M498.6 248.1s7.5 3.7 8.9 7.8c1 3.4 9.3 3.8 10.1 10.4a7.6 7.6 0 006.3 6.6c8.5 1.3 21.5 5.7 23.5 20.3 1.6 11.2-4 15.4-10 17a8.5 8.5 0 00-6.5 9.7c.9 4.2-.4 9.1-7.7 13-16.5 8.7-33-20.6-33-20.6l-3.4-51.2z" transform="translate(42.8 11.7)" fill="url(#O)"/><path d="M459 242.7s15.6 24.7 34.3 29.5c0 0-3.7 10.4-6.5 11.5 0 0-22.9-19-28.8-37.5z" transform="translate(38 10.8)" fill="url(#g)"/><path d="M523 378.6l.5 4.2a1.7 1.7 0 001.5 1.5 26.6 26.6 0 005.6.1 1.5 1.5 0 001.3-2 15.2 15.2 0 00-2.8-5.4h-4.7a1.4 1.4 0 00-1.4 1.6z" transform="translate(48.9 33.3)" fill="url(#P)"/><path d="M492.5 336.5l-.8 4.6s2.6 26.5 3 37.1a8.3 8.3 0 01-1.2 4.8l-4.5 7.4 11.5-6.9.3-1.4-2-2.6 2.6-29.7a9.1 9.1 0 00-1-5l-2.5-4.5z" transform="translate(43.1 26.5)" fill="url(#Q)"/><path d="M488.4 385.1h3.8a2.2 2.2 0 001.7-.9c1.2-1.5 3.6-4.4 4.7-4.5 1.5 0 1.3 5.4 1.3 5.4h.9l1-6.8a4 4 0 00-2-4.1 5.7 5.7 0 01-2.3 3.7l-7.7 5.3a5.2 5.2 0 00-1.5 0 1 1 0 00.1 1.9z" transform="translate(43 32.8)" fill="url(#R)"/><path d="M505.5 338.7s15.4 29 17.8 35.7a64 64 0 013.3 12.7c0 .8 1 1.6 3.9 1.6a2.7 2.7 0 002.5-1.1 1.6 1.6 0 000-1.6l-4.7-10.2c-1.3-3-4-17.2-5.4-22s-3.1-10.3-9.5-15.2c0 0-4.4-4.2-7.9 0z" transform="translate(46 26.6)" fill="url(#S)"/><path d="M500.3 302.6c-4-16.8 6-26.2 6-26.2-6.2-6.1-17.8-8.9-17.8-8.9s-11 8-9.6 14.4c.7 3.6 7.7 22 7.7 22a15.3 15.3 0 0013.7-1.3z" transform="translate(41.4 15)" fill="url(#T)"/><path d="M508 305.9c-1.5-4.9-8.7-8.3-8.7-8.3a15.3 15.3 0 01-13.7 1.3 27.5 27.5 0 00-.5 10.7l7.3 38c9.8 2 25-2 25-2-6.3-11.1-7.7-34.9-9.3-39.7z" transform="translate(42.4 20)" fill="url(#U)"/><path d="M494.2 258.3l3.2 14.4c.3 1.3-.8 1-2.1.8-2.1-.4-4.9-1.2-5.8-2.8a1.6 1.6 0 01-.1-.6l-1.4-10a1.8 1.8 0 011-1.9l2.7-1.2a1.8 1.8 0 012.5 1.3z" transform="translate(43 13.2)" fill="url(#V)"/><path d="M488.8 246.8s-3.4 2.4-5 8.3 1 8 3.5 7.9a11.4 11.4 0 009-5.2c3.2-4.2-3-13.8-7.5-11z" transform="translate(42.2 11.4)" fill="url(#W)"/><path d="M493 256.2s1.3-8.5-5.7-7.2l-1.4 1.5s-3.5-3.9.3-6.8 9.1-2.2 12 3.1 4 9.1 1.6 12.4-4.3.5-4.3.5 1.1-2.9.2-4.1-2.2.7-2.2.7z" transform="translate(42.4 10.7)" fill="url(#X)"/><path d="M492.7 255.2s.6-4.3 2.8-3-.8 4-2 5z" transform="translate(43.8 12.3)" fill="url(#Y)"/><path d="M460.3 249c0 .6 1.9 1 2.5-1.2-.2-1-.5-5.1-1.2-5.8a76.7 76.7 0 00-10.8-7.2 1.4 1.4 0 00.3 2l3.4 2.2a14 14 0 00-1 3.6 4 4 0 001 2.8l2.5 2.6a4 4 0 003.3 1z" transform="translate(36.7 9.5)" fill="url(#Z)"/><path d="M457.7 246.6a29.4 29.4 0 00-2.4-4.8 1.7 1.7 0 01-.6-1.3 1.2 1.2 0 01.6-.9l.1-.1 3.3 1.7 1.3 2.1-.5.3-1.3-1.9-2.7-1.5a.6.6 0 00-.2.4 1.2 1.2 0 00.4.8 28 28 0 012.6 5z" transform="translate(37.4 10.3)" fill="url(#h)"/><path d="M503.5 275.1s17.8 36.6 24.2 39.8a72.7 72.7 0 0110.6 1.9 1 1 0 010 2c-2.9.8-7.5 1.4-11.7-1 0 0 2.3 3.5 1 4.8 0 0-3.1-3.6-4.3-4.7a319 319 0 01-26.8-32.9c-.6-1-.2-3.8.2-4.9 1-2.4 3.2-6.4 6.8-5z" transform="translate(44.3 16.2)" fill="url(#aa)"/><path d="M561.6 252l.8-1.5a.4.4 0 10-.7-.4l-.7 1.5a.4.4 0 10.6.4zM564 246.8l.6-1.7a.4.4 0 00-.8-.2l-.5 1.6a.4.4 0 00.7.2zM565.4 241.2l.2-1.8a.4.4 0 00-.4-.4.4.4 0 00-.4.4c0 .5 0 1.1-.2 1.7a.4.4 0 00.8 0zM565.5 235.4l-.3-1.7a.4.4 0 00-.5-.4.4.4 0 00-.3.5l.3 1.7a.4.4 0 10.8-.1zM564 229.8l-.7-1.6a.4.4 0 10-.7.3l.7 1.6a.4.4 0 00.5.2.4.4 0 00.2-.5zM561.3 224.7l-1-1.4a.4.4 0 10-.7.5l1 1.3a.4.4 0 00.6.1.4.4 0 000-.5zM557.5 220.3l-1.2-1.2a.4.4 0 00-.6.6l1.3 1.1a.4.4 0 00.5-.6zM553.1 216.6l-1.4-1a.4.4 0 00-.5.7l1.4 1a.4.4 0 00.6-.2.4.4 0 000-.5zM548.3 213.5l-1.5-.8a.4.4 0 00-.4.7l1.4.8a.4.4 0 00.6-.2.4.4 0 00-.1-.5zM543.1 211l-1.6-.7a.4.4 0 00-.5.2.4.4 0 00.2.5l1.6.7a.4.4 0 00.5-.2.4.4 0 00-.2-.6zM537.8 208.8l-1.6-.5a.4.4 0 00-.3.8l1.6.5a.4.4 0 10.3-.8zM532.3 207.1l-1.7-.4a.4.4 0 10-.2.8l1.7.5a.4.4 0 00.5-.3.4.4 0 00-.3-.5zM526.7 205.8l-1.7-.3a.4.4 0 00-.2.8l1.7.4a.4.4 0 00.2-.9zM521 204.8l-1.6-.2a.4.4 0 00-.1.9l1.6.2a.4.4 0 00.2-.9zM515.4 204.2l-1.7-.1a.4.4 0 00-.5.4.4.4 0 00.4.4l1.7.2a.4.4 0 100-.9zM509.7 203.8H508a.4.4 0 00-.5.4.4.4 0 00.4.4h1.7a.4.4 0 100-.8zM504 203.7h-1.8a.5.5 0 00-.4.5.4.4 0 00.4.4h1.7a.4.4 0 100-.9zM498.2 204h-1.7a.5.5 0 000 1l1.8-.2a.4.4 0 00.4-.5.4.4 0 00-.5-.4zM492.5 204.4l-1.7.2a.5.5 0 00-.4.5.5.5 0 00.5.4l1.7-.2a.5.5 0 10-.1-1zM486.8 205l-1.7.3a.5.5 0 00-.4.5.5.5 0 00.6.4l1.6-.3a.5.5 0 100-.9zM481.2 205.8l-1.7.3a.5.5 0 00-.4.5.4.4 0 00.5.4l1.7-.3a.5.5 0 00-.1-.9zM475.5 206.7l-1.7.3a.5.5 0 10.2 1l1.7-.4a.5.5 0 10-.2-.9zM469.9 207.8l-1.7.3a.5.5 0 10.2 1l1.7-.4a.5.5 0 00-.2-1zM464.3 209l-1.7.4a.5.5 0 00-.3.5.5.5 0 00.5.4l1.7-.4a.5.5 0 00-.2-1zM458.7 210.3l-1.6.4a.5.5 0 00.2 1l1.7-.5a.5.5 0 10-.3-.9zM453.2 211.8l-1.6.4a.5.5 0 00-.3.6.5.5 0 00.6.3l1.6-.4a.5.5 0 00-.2-1zM447.7 213.3l-1.6.5a.5.5 0 00.2.9l1.7-.5a.5.5 0 00.3-.6.5.5 0 00-.6-.3zM442.2 215l-1.6.5a.5.5 0 00-.3.6.5.5 0 00.6.3l1.6-.5a.5.5 0 10-.3-1zM436.8 216.7l-1.6.5a.5.5 0 00.3 1l1.6-.6a.5.5 0 10-.3-1zM431.4 218.5l-1.6.6a.5.5 0 10.3 1l1.6-.6a.5.5 0 10-.3-1zM426 220.4l-1.6.6a.5.5 0 00-.3.6.5.5 0 00.6.3l1.6-.6a.5.5 0 00.3-.6.5.5 0 00-.6-.3zM420.6 222.4l-1.6.6a.5.5 0 00.4 1l1.6-.7a.5.5 0 00-.4-.9zM415.3 224.5l-1.6.6a.5.5 0 00.4 1l1.6-.7a.5.5 0 00.2-.6.5.5 0 00-.6-.3zM410 226.6l-1.6.6a.5.5 0 10.4 1l1.6-.7a.5.5 0 10-.4-1zM404.7 228.7l-1.6.7a.5.5 0 10.4 1l1.6-.7a.5.5 0 10-.4-1zM399.5 231l-1.6.7a.5.5 0 00.4.9l1.5-.7a.5.5 0 10-.3-.9zM394.2 233.2l-1.6.7a.5.5 0 00-.2.7.5.5 0 00.6.2l1.6-.6a.5.5 0 00.3-.7.5.5 0 00-.7-.3zM389 235.5l-1.6.7a.5.5 0 00.4 1l1.6-.7a.5.5 0 00-.4-1zM383.8 237.9l-1.6.7a.5.5 0 00-.2.7.5.5 0 00.6.2l1.6-.7a.5.5 0 00-.4-1zM378.6 240.2l-1.6.8a.5.5 0 00-.2.6.5.5 0 00.7.3l1.5-.7a.5.5 0 00-.4-1zM373.4 242.6l-1.6.7a.5.5 0 10.5 1l1.5-.7a.5.5 0 10-.4-1zM368.2 245l-1.5.7a.5.5 0 00.4 1l1.5-.7a.5.5 0 10-.4-1zM363 247.4l-1.5.7a.5.5 0 00.4 1l1.6-.7a.5.5 0 00.2-.7.5.5 0 00-.7-.3zM357.8 249.8l-1.5.7a.5.5 0 00-.3.7.5.5 0 00.7.3l1.6-.8a.5.5 0 00-.5-.9zM352.7 252.2l-1.6.7a.5.5 0 10.5 1l1.5-.8a.5.5 0 00.3-.7.5.5 0 00-.7-.2zM347.5 254.5l-1.6.7a.5.5 0 00.4 1l1.6-.7a.5.5 0 00.3-.7.5.5 0 00-.7-.3zM342.3 256.9l-1.6.7a.5.5 0 00-.3.7.5.5 0 00.7.2l1.6-.7a.5.5 0 10-.4-1zM337 259.2l-1.5.7a.5.5 0 10.4 1l1.6-.7a.5.5 0 10-.4-1zM331.8 261.5l-1.5.6a.5.5 0 10.4 1l1.6-.7a.5.5 0 10-.5-1zM326.6 263.7l-1.6.7a.5.5 0 00.4 1l1.6-.7a.5.5 0 00.3-.7.5.5 0 00-.7-.3zM321.3 265.9l-1.6.6a.5.5 0 10.4 1l1.6-.6a.5.5 0 10-.4-1zM316 268l-1.6.7a.5.5 0 00.4 1l1.6-.7a.6.6 0 00.3-.7.5.5 0 00-.7-.3zM310.7 270.1l-1.6.6a.5.5 0 10.4 1l1.6-.6a.6.6 0 00-.4-1zM305.4 272.1l-1.6.6a.5.5 0 00-.4.7.5.5 0 00.7.3l1.7-.6a.6.6 0 10-.4-1zM300 274l-1.6.6a.6.6 0 10.4 1l1.6-.5a.6.6 0 10-.4-1zM294.6 275.9l-1.6.5a.6.6 0 10.4 1l1.6-.5a.6.6 0 00.3-.7.6.6 0 00-.7-.3zM289.2 277.7l-1.6.5a.6.6 0 00-.4.7.6.6 0 00.7.3l1.7-.5a.6.6 0 00.3-.7.6.6 0 00-.7-.4zM283.8 279.3l-1.7.5a.6.6 0 00-.4.7.6.6 0 00.7.4l1.7-.5a.6.6 0 10-.3-1.1zM278.3 280.9l-1.7.4a.6.6 0 10.3 1.1l1.7-.5a.6.6 0 00.4-.6.6.6 0 00-.7-.4zM272.8 282.3l-1.7.4a.6.6 0 00.3 1.1l1.7-.4a.6.6 0 00-.3-1zM267.2 283.6l-1.6.4a.6.6 0 10.2 1.1l1.7-.3a.6.6 0 00-.3-1.2zM261.7 284.9l-1.7.3a.6.6 0 00.2 1.1l1.7-.3a.6.6 0 00-.2-1.1zM256 286l-1.6.3a.6.6 0 00.2 1.1l1.7-.3a.6.6 0 00-.2-1.1zM250.5 287l-1.7.2a.6.6 0 00.2 1.1l1.7-.2a.6.6 0 00-.2-1.2zM244.9 287.7l-1.7.2a.6.6 0 100 1.2l1.8-.2a.6.6 0 10-.1-1.2zM239.2 288.4l-1.7.1a.6.6 0 00.1 1.2l1.7-.1a.6.6 0 10-.1-1.2zM233.5 288.9h-1.7a.6.6 0 10.1 1.2h1.7a.6.6 0 100-1.3zM227.8 289.2h-1.7a.6.6 0 000 1.2h1.8a.6.6 0 000-1.2zM222.2 289.3h-1.8a.6.6 0 000 1.2h1.8a.6.6 0 000-1.2zM216.5 289.3h-1.7a.6.6 0 000 1.2h1.7a.6.6 0 000-1.2zM210.8 289.2l-1.7-.1a.6.6 0 100 1.2h1.6a.6.6 0 000-1.1zM205.1 288.8l-1.7-.1a.6.6 0 100 1.2l1.6.1a.6.6 0 10.1-1.2zM199.4 288.3l-1.7-.2a.6.6 0 10-.1 1.2l1.7.2a.6.6 0 00.1-1.2zM193.8 287.6l-1.7-.2a.6.6 0 10-.2 1.2l1.7.2a.6.6 0 10.2-1.2zM188.2 286.7l-1.7-.3a.6.6 0 00-.2 1.2l1.7.3a.6.6 0 00.2-1.2zM182.6 285.6l-1.7-.3a.6.6 0 10-.2 1.2l1.6.3a.6.6 0 10.3-1.2zM177 284.4l-1.6-.5a.6.6 0 10-.3 1.2l1.7.5a.6.6 0 00.3-1.2zM171.6 282.9l-1.7-.5a.6.6 0 10-.3 1.2l1.6.5a.6.6 0 00.4-1.2zM166.2 281.1l-1.6-.5a.6.6 0 00-.5 1.2l1.7.5a.6.6 0 10.4-1.2zM160.8 279.2l-1.6-.7a.6.6 0 10-.4 1.2l1.6.7a.6.6 0 10.4-1.2zM155.6 277l-1.6-.7a.6.6 0 10-.5 1.1l1.6.7a.6.6 0 00.5-1.1zM150.5 274.5l-1.5-.7a.6.6 0 00-.9.2.6.6 0 00.3.9l1.5.8a.6.6 0 10.6-1.2zM145.5 271.8l-1.5-.8a.6.6 0 00-.6 1l1.5 1a.6.6 0 10.6-1.2zM140.7 268.8l-1.4-1a.6.6 0 10-.8 1.2l1.5 1a.6.6 0 00.9-.3.6.6 0 00-.2-.8zM136 265.6l-1.3-1a.6.6 0 00-.8 1l1.4 1a.6.6 0 00.8-1zM131.6 262l-1.3-1a.6.6 0 10-.8 1l1.3 1a.6.6 0 00.8-1zM127.4 258.2l-1.2-1.2a.6.6 0 00-.9 1l1.2 1.2a.6.6 0 101-1zM123.5 254.1l-1-1.3a.7.7 0 10-1 .9l1 1.3a.7.7 0 001-.9zM120 249.8l-1.1-1.4a.7.7 0 10-1 .8l1 1.4a.7.7 0 101-.8zM116.6 245.2l-1-1.4a.7.7 0 00-1 .7l1 1.4a.7.7 0 001-.7zM113.6 240.4l-.9-1.5a.7.7 0 00-1.1.7l.8 1.5a.7.7 0 001.2-.7zM110.9 235.4l-.8-1.5a.7.7 0 00-1.2.6l.8 1.5a.7.7 0 001.2-.6zM108.5 230.2l-.6-1.5a.7.7 0 10-1.3.5l.7 1.6a.7.7 0 001.2-.5zM106.5 225l-.6-1.6a.7.7 0 00-1.2.4l.5 1.6a.7.7 0 101.3-.4zM104.8 219.6l-.5-1.7a.7.7 0 00-.8-.4.7.7 0 00-.5.8l.5 1.6a.7.7 0 101.3-.3zM103.4 214l-.4-1.6a.7.7 0 00-.8-.5.7.7 0 00-.5.8l.4 1.7a.7.7 0 001.3-.3zM102.3 208.5l-.3-1.7a.7.7 0 00-1.4.2l.3 1.7a.7.7 0 101.4-.2zM101.5 202.9l-.2-1.7a.7.7 0 10-1.4.1l.2 1.8a.7.7 0 001.4-.2zM101 197.2l-.1-1.7a.7.7 0 00-1.4.1l.1 1.7a.7.7 0 001.4 0zM100.8 191.6v-1.7a.7.7 0 10-1.4 0v1.7a.7.7 0 001.4 0zM100.9 186v-1.8a.7.7 0 00-1.3 0l-.1 1.7a.7.7 0 001.4 0zM101.2 180.2l.2-1.6a.7.7 0 00-1.4-.2l-.2 1.7a.7.7 0 001.4.2zM101.8 174.6l.3-1.7a.7.7 0 00-1.4-.2l-.3 1.7a.7.7 0 001.4.2zM102.7 169l.3-1.7a.7.7 0 10-1.4-.2l-.3 1.7a.7.7 0 101.4.2zM103.9 163.4l.3-1.6a.7.7 0 00-1.3-.3l-.4 1.6a.7.7 0 00.5.9.7.7 0 00.9-.5zM105.2 158l.5-1.7a.7.7 0 00-1.4-.4l-.4 1.7a.7.7 0 001.3.3zM106.8 152.5l.6-1.6a.7.7 0 10-1.4-.5l-.5 1.7a.7.7 0 00.4.9.7.7 0 001-.5zM108.7 147.1l.6-1.5a.7.7 0 00-1.3-.6l-.6 1.7a.7.7 0 101.3.5zM110.8 141.9l.7-1.6a.7.7 0 00-1.3-.6l-.7 1.6a.7.7 0 001.3.6zM113.2 136.7l.7-1.5a.7.7 0 00-.3-1 .7.7 0 00-1 .4l-.7 1.5a.7.7 0 101.3.6zM115.7 131.6l.8-1.5a.7.7 0 00-.3-1 .7.7 0 00-1 .4l-.8 1.5a.7.7 0 101.3.7zM118.5 126.7l.8-1.5a.7.7 0 10-1.2-.7l-.9 1.5a.7.7 0 101.3.7zM121.4 121.8l1-1.4a.7.7 0 00-1.3-.8l-1 1.4a.7.7 0 001.3.8zM124.6 117l1-1.3a.7.7 0 00-1.3-.9l-1 1.4a.7.7 0 001.3.9zM127.9 112.5l1-1.4a.7.7 0 00-1.2-.9l-1 1.4a.7.7 0 001.1.9zM131.4 108l1-1.3a.7.7 0 10-1-1l-1.2 1.4a.7.7 0 101.2 1zM135 103.7l1.2-1.3a.7.7 0 10-1.1-1l-1.1 1.3a.7.7 0 101 1zM138.9 99.5l1.2-1.2a.7.7 0 00-1-1l-1.3 1.2a.7.7 0 101.1 1zM142.9 95.4l1.2-1.2a.8.8 0 000-1 .7.7 0 00-1 0l-1.3 1.2a.7.7 0 101 1zM147 91.6l1.3-1.2a.7.7 0 10-1-1.1l-1.3 1.2a.7.7 0 101 1zM151.3 87.8l1.3-1a.7.7 0 10-1-1.2l-1.3 1a.7.7 0 001 1.2zM155.7 84.2l1.3-1a.8.8 0 00-.9-1.2l-1.3 1a.8.8 0 00-.2 1 .7.7 0 001.1.2zM160.2 80.8l1.4-1a.8.8 0 10-.9-1.2l-1.4 1a.8.8 0 001 1.2zM164.9 77.5l1.4-1a.8.8 0 10-.9-1.2l-1.4 1a.8.8 0 10.8 1.2zM169.6 74.4l1.4-1a.8.8 0 00.3-1 .8.8 0 00-1-.2l-1.5.9a.8.8 0 00.8 1.3zM174.4 71.4l1.5-.9a.8.8 0 00-.8-1.3l-1.5.9a.8.8 0 00.8 1.3zM179.4 68.5l1.4-.8a.8.8 0 10-.7-1.3l-1.5.8a.8.8 0 00.7 1.3zM184.4 65.8l1.5-.7a.8.8 0 10-.7-1.4l-1.5.7a.8.8 0 00.7 1.4zM189.4 63.3l1.6-.7a.8.8 0 00-.7-1.4l-1.5.7a.8.8 0 10.6 1.4zM194.6 60.9l1.6-.7a.8.8 0 10-.7-1.4l-1.5.7a.8.8 0 10.6 1.4zM199.8 58.6l1.6-.6a.8.8 0 10-.6-1.4l-1.6.6a.8.8 0 00.6 1.4zM205.1 56.5l1.6-.6a.8.8 0 00-.6-1.4l-1.6.6a.8.8 0 00.6 1.4zM210.4 54.6l1.7-.6a.8.8 0 10-.6-1.4l-1.6.5a.8.8 0 10.5 1.5zM215.8 52.8l1.7-.5a.8.8 0 00-.5-1.5l-1.7.5a.8.8 0 00.5 1.5zM221.3 51.1l1.6-.4a.8.8 0 10-.4-1.6l-1.7.5a.8.8 0 00.4 1.5zM226.7 49.6l1.7-.4a.8.8 0 00.6-1 .8.8 0 00-1-.6l-1.6.4a.8.8 0 00.4 1.6zM232.3 48.2l1.6-.3a.8.8 0 10-.3-1.6l-1.7.4a.8.8 0 10.3 1.6zM237.8 47l1.7-.3a.8.8 0 00-.3-1.6l-1.7.4a.8.8 0 00.3 1.5zM243.4 46l1.7-.3a.8.8 0 10-.3-1.6l-1.7.3a.8.8 0 00-.6 1 .8.8 0 00.9.6zM249 45l1.7-.2a.8.8 0 10-.2-1.6l-1.7.3a.8.8 0 00-.7.9.8.8 0 00.9.7zM254.7 44.3l1.5-.2a.8.8 0 00-.2-1.6l-1.5.2a.8.8 0 10.1 1.6z" fill="#fff"/><path d="M228 29.6l-.5 10 7.7-3.8z" transform="translate(38.1 5)" fill="url(#ab)"/><path d="M312.8 54.7l-31.3 21.7a3 3 0 01-2.2.4 3 3 0 01-1.9-1L253.7 46a1 1 0 010-1.2 1.2 1.2 0 011.1-.4z" transform="translate(3.6 -22.5)" fill="url(#ac)"/><path d="M228 29.9l50.2-2.3-46.5 7.1-.2 2.8z" transform="translate(38.2 4.6)" fill="url(#ad)"/><path d="M234.1 36.5l-6.6 2.4 4.3-5.2z" transform="translate(38.1 5.7)" fill="url(#ae)"/><path d="M153 374c-3.3.4-9 .8-13.6 1a13 13 0 01-5.2-.5v.3a1 1 0 001 .9 160.6 160.6 0 0017.7 0 .7.7 0 00.5-1 5.9 5.9 0 00-.4-.6z" transform="translate(-16.4 32.8)" fill="url(#af)"/><path d="M139.4 376c4.5-.2 10.3-.7 13.6-1-3.3-4-13.6-6.6-13.6-6.6h-2.9a12.2 12.2 0 00-2.3 7 12.7 12.7 0 005.2.6z" transform="translate(-16.4 31.9)" fill="url(#ag)"/><path d="M135.8 364.3l.2 5.4a1.2 1.2 0 001 1.2 4.8 4.8 0 002.3-.2 1.5 1.5 0 001-1.1l.9-5.3z" transform="translate(-16.1 31.2)" fill="url(#ah)"/><path d="M103.8 375.1a2.6 2.6 0 01-2.4-1.7 1.9 1.9 0 001.3 2.1 8.4 8.4 0 003.4.6 3.5 3.5 0 002.6-1.2c-1 .5-2.5.5-5 .2z" transform="translate(-21.9 32.7)" fill="url(#ai)"/><path d="M110.5 364.3h-2.4c-3.6 0-6 7.6-6.7 10.6a2.6 2.6 0 002.4 1.7c2.4.4 3.9.3 5-.2 2-2.6 2.9-6.4 3.4-8.6a3 3 0 00-1.7-3.5z" transform="translate(-21.9 31.2)" fill="url(#aj)"/><path d="M107.6 360l-1.3 5.3a1.4 1.4 0 00.7 1.6 5.1 5.1 0 002.8.7 1.2 1.2 0 001-.8l1.9-5.6z" transform="translate(-21 30.5)" fill="url(#ak)"/><path d="M106 372.1c1.7 1.5 7.1 1.7 7.1 1.7 19.4-46.6 27.3-53.2 27.3-53.2-2.8 17.6-.4 56.5-.4 56.5 3.2 1.4 7.3 0 7.3 0a299.9 299.9 0 0110-73.7c-13.2-.3-20.2-4.8-22.4-6.5-11 17.6-28.9 75.2-28.9 75.2z" transform="translate(-21 19.9)" fill="url(#al)"/><path d="M134.2 251a221.5 221.5 0 00-1 44.7c.2 2.8-1.8 6.8-3.4 9.4a.8.8 0 00.3 1.2 58.5 58.5 0 0022.4 6.2 1.5 1.5 0 001.5-1c7.8-29.3 16.9-48 16.9-48-10-16-36.7-12.5-36.7-12.5z" transform="translate(-17.1 12.1)" fill="url(#am)"/><path d="M136.7 317.3a.6.6 0 01-.5-.9 19.5 19.5 0 017.7-6.7.6.6 0 01.5 1.1 18.6 18.6 0 00-7.1 6.2.6.6 0 01-.6.3z" transform="translate(-16 22)" fill="url(#an)"/><path d="M120.2 281.5c.8 5.8 3.2 12.1 8 18.8l1.7-1.5a55.4 55.4 0 01-.9-17.9 21.4 21.4 0 00-8.8.6z" transform="translate(-18.7 17.2)" fill="url(#ao)"/><path d="M138.6 266.3L136 251s-18.6 14.1-15.6 35.5a21.8 21.8 0 018.8-.6 30 30 0 019.5-19.6z" transform="translate(-18.8 12.2)" fill="url(#ap)"/><path d="M166 261.7l-7.2 15.4c1.2 9.3 6.2 13.3 11.6 14.9a32.8 32.8 0 012.3-10c-6.8-7.2-6.7-20.3-6.7-20.3z" transform="translate(-12.2 14)" fill="url(#aq)"/><path d="M171.1 279a32.8 32.8 0 00-2.4 10c14.4 5.6 18.2-5.2 18.2-5.2l-2.7-.4a15 15 0 01-13-4.4z" transform="translate(-10.6 16.9)" fill="url(#ar)"/><path d="M161.2 246l-3.4 12.6a2.5 2.5 0 01-3.3 1.6 50.2 50.2 0 01-5-2.2 3.3 3.3 0 01-1.2-4.8l7.2-10.7z" transform="translate(-14 10.8)" fill="url(#as)"/><path d="M203.3 275.9L114.8 308a6.8 6.8 0 00-3.9 9.1l.3.6a6.3 6.3 0 008.4 3.1l85.9-39.7z" transform="translate(-20.4 16.4)" fill="url(#at)"/><ellipse cx="43.7" cy="42.9" rx="43.7" ry="42.9" transform="translate(179.9 230)" fill="#fff" opacity=".5"/><path d="M231.7 218.4c-26.8 0-48.6 21.4-48.6 47.7s21.8 47.7 48.6 47.7 48.6-21.3 48.6-47.7-21.7-47.7-48.6-47.7zm0 88.4c-22.9 0-41.4-18.2-41.4-40.7s18.5-40.7 41.4-40.7 41.5 18.2 41.5 40.7-18.6 40.7-41.5 40.7z" transform="translate(-8.2 6.7)" fill="url(#au)"/><path d="M178.7 278.7a.3.3 0 01-.3-.2 44 44 0 01-.3-3.4.3.3 0 01.2-.4.3.3 0 01.4.3c0 1.2.1 2.3.3 3.4a.3.3 0 01-.3.3zm.3-13.3a.3.3 0 01-.3-.4 43.5 43.5 0 012.6-9 45.4 45.4 0 0142.3-28 46 46 0 0124.4 7 .3.3 0 01.1.5.3.3 0 01-.4.1 45.4 45.4 0 00-24.1-6.9 44.8 44.8 0 00-41.7 27.6 43.5 43.5 0 00-2.6 8.8.3.3 0 01-.3.3z" fill="#fff"/><path d="M128.1 296l8.4-.6 3.6 3.4s-.9 1.1-3.6.5a38.3 38.3 0 00-6.3-.9s-3.7 1.7-3.7-1.4z" transform="translate(-17.7 19.6)" fill="url(#av)"/><path d="M183.5 285.7c.7.6 3.2-.6 4.7-1.4a1.7 1.7 0 00.9-2c-.4-1.2-1-2.7-1.8-2.9-1.2-.3-6.8 4-3.8 6.3z" transform="translate(-8.2 17)" fill="url(#aw)"/><path d="M96.2 336a.3.3 0 01-.1 0c-3.5-1.2-4.3-3.2-4.4-4.7a5.2 5.2 0 013.5-5l10.6-4.2a.3.3 0 11.2.6l-10.6 4.1a4.6 4.6 0 00-3 4.5c0 1.9 1.3 3.3 3.9 4.2a.3.3 0 01.1.3.3.3 0 01-.2.2zM109.2 321.4a.3.3 0 01-.1-.6l1.3-.5a.3.3 0 11.3.5l-1.4.6a.2.2 0 01-.1 0z" fill="#fff"/><path d="M161.6 234.8s2.9 6.5 3 10 1 5.7-3 6.3a8.5 8.5 0 01-9.2-4.7s-2.8-5.3-2.2-7.4 11.4-4.2 11.4-4.2z" transform="translate(-13.7 9.5)" fill="url(#ax)"/><path d="M154.5 245h.5s-2-4.3-.2-5 9-2.2 10.6-4.8a4.7 4.7 0 00-1.8-6.6.3.3 0 00-.4.2l-.2.3a.3.3 0 01-.5 0 .3.3 0 00-.4-.2c-.5.8-1.8 2-5.3 2.7-4.9.9-8.1 2.9-8.2 6.3a.3.3 0 01-.4.2c-.4-.2-1-.3-1.8.3-1.3 1.2-.8 4.1 2.2 6.5a.3.3 0 010 .5c-.5.3-1.3 1.2.7 2.3s3.4 1 3.9.8a.3.3 0 00.2-.2l-.2-3a.3.3 0 01.3-.3z" transform="translate(-14.4 8.4)" fill="url(#ay)"/><path d="M153.9 243.6s-1-4.2-3-3 1 4.7 2.5 4.9z" transform="translate(-13.7 10.4)" fill="url(#az)"/><path d="M329.7 161.3H312a1.2 1.2 0 00-1.1 1.1v4.8h19.8v-4.8a1.2 1.2 0 00-1.1-1.1z" fill="#2d92d4"/><path d="M311 179.2v4.7a1.2 1.2 0 001.1 1.2h17.6a1.2 1.2 0 001.1-1.2v-4.7z" fill="#2150a9"/><path d="M311 167.2h19.8v6H311z" fill="#2d83d4"/><path d="M311 173.2h19.8v6H311z" fill="#2e70c9"/><path d="M316.5 179.8h-11a1.1 1.1 0 01-1.2-1.1v-11a1.1 1.1 0 011.1-1.1h11a1.1 1.1 0 011.2 1v11a1.1 1.1 0 01-1.1 1.2z" fill="#00488d"/><path d="M313.9 169.9l-1 4.8-1.2-4.8h-1.4l-1.2 5-1-5h-1.4l1.6 6.6h1.6l1-5.1 1.2 5h1.5l1.6-6.5z" fill="#fff"/><path d="M367.5 173.9a13 13 0 1026 0z" fill="#dc4c2c"/><path d="M380.5 160.9v13h13a13 13 0 00-13-13z" fill="#f7a278"/><path d="M380.5 160.9a13 13 0 00-13 13h13z" fill="#c06346"/><path d="M377.9 181.1h-12a1.2 1.2 0 01-1.2-1.2v-12a1.2 1.2 0 011.2-1.2h12a1.2 1.2 0 011.2 1.2v12a1.2 1.2 0 01-1.2 1.2z" fill="#9b341f"/><path d="M372.4 170.3H369v7.2h1.4V175h1.7a2.5 2.5 0 002.4-2.5 2.2 2.2 0 00-2.1-2.2zm.6 2.4a1.1 1.1 0 01-1.1 1.1h-1.5v-2.4h1.5a1.1 1.1 0 011.1 1.1z" fill="#fff"/></svg>